<?xml version="1.0" encoding="UTF-8"?>
<svg width="30px" height="30px" viewBox="0 0 30 30" version="1.1" xmlns="http://www.w3.org/2000/svg" xmlns:xlink="http://www.w3.org/1999/xlink">
    <title>4DB4C2C0-879C-49D3-B77E-E1734FBCF48F</title>
    <g id="Page-2" stroke="none" stroke-width="1" fill="none" fill-rule="evenodd">
        <g id="dashboard" transform="translate(-812.000000, -589.000000)" fill-rule="nonzero">
            <g id="book(1)" transform="translate(812.000000, 589.000000)">
                <path d="M2.95862069,27.0051724 L0.0879310345,10.7068966 C0.0602120121,10.5495904 0.042932881,10.3906224 0.0362068966,10.2310345 C-0.00645566897,8.38323688 1.32034793,6.78709878 3.14482759,6.49137931 L8.68448276,5.5137931 L8.53448276,27.0051724 L2.95862069,27.0051724 Z" id="Shape" fill="#35495E"></path>
                <path d="M24.2793103,26.2913793 C24.1832487,26.6901843 23.8606166,26.9945543 23.4568966,27.0672414 L7.15344828,29.9431034 C6.12583417,30.1224983 5.07073523,29.8506806 4.25771578,29.1970961 C3.44469635,28.5435117 2.95250724,27.5714681 2.90689655,26.5293103 C2.86615552,24.7626397 4.08246888,23.2146046 5.80862069,22.8362069 L10.3758621,24.1189655 L10.3706897,24.1189655 L6.25862069,24.8482759 C5.80000578,24.9288844 5.40168931,25.2108606 5.17325886,25.6166252 C4.94482845,26.0223897 4.91035032,26.5091935 5.07931034,26.9431034 C5.37187314,27.6419715 6.11491003,28.0394099 6.85862069,27.8948276 L19.3189655,25.6965517 L24.2793103,26.2913793 Z" id="Shape" fill="#2C3E50"></path>
                <path d="M10.3706897,24.1189655 L6.25862069,24.8482759 C5.80000578,24.9288844 5.40168931,25.2108606 5.17325886,25.6166252 C4.94482845,26.0223897 4.91035032,26.5091935 5.07931034,26.9431034 C5.37187314,27.6419715 6.11491003,28.0394099 6.85862069,27.8948276 L19.3189655,25.6965517 L10.3706897,24.1189655 Z" id="Shape" fill="#F9EAB0"></path>
                <path d="M6.63413793,17.1574138 L9.50844828,0.857068966 C9.61133762,0.296768902 10.1452175,-0.0769700121 10.7068966,0.0181034483 L26.8846552,2.87068966 C28.7104454,3.16663815 30.0382839,4.76379721 29.9958621,6.61293103 C29.9888257,6.77180995 29.9715485,6.93006952 29.9441379,7.08672414 L27.0698276,23.387069 L6.63413793,17.1574138 Z" id="Shape" fill="#E64C3C"></path>
                <path d="M23.5024138,5.41758621 C23.4720759,5.41758621 23.4417943,5.41497636 23.4118966,5.40982759 L11.6958621,3.34396552 C11.4314646,3.27875924 11.2629098,3.01971844 11.3103984,2.75157161 C11.357887,2.48342479 11.6051518,2.29802531 11.8758621,2.32758621 L23.5913793,4.39086207 C23.8556032,4.43714913 24.0405949,4.67775027 24.017438,4.9449965 C23.9942811,5.21224272 23.7706614,5.41743776 23.5024138,5.41758621 Z" id="Shape" fill="#3F5C6C"></path>
                <path d="M21.0155172,7.60345897 C20.9851539,7.60349219 20.9548519,7.60072174 20.925,7.59517241 L13.2843103,6.24982759 C13.0094083,6.19407786 12.8290393,5.92937566 12.8777218,5.65313441 C12.9264042,5.37689322 13.1863944,5.18979621 13.4637931,5.23137931 L21.105,6.5762069 C21.3707651,6.62111788 21.557495,6.86258793 21.5341046,7.13110422 C21.5107143,7.39962047 21.2850448,7.6051665 21.0155172,7.60345897 L21.0155172,7.60345897 Z" id="Shape" fill="#3F5C6C"></path>
                <path d="M13.360299,8.92134268 L19.0513793,8.92134268 C20.7657957,8.92134268 22.1556049,10.3111518 22.1556049,12.0255683 C22.1556049,13.7399847 20.7657957,15.1297939 19.0513793,15.1297939 L13.360299,15.1297939 C11.6458826,15.1297939 10.2560734,13.7399847 10.2560734,12.0255683 C10.2560734,10.3111518 11.6458826,8.92134268 13.360299,8.92134268 Z" id="Rectangle-path" fill="#ECF0F1" transform="translate(16.205839, 12.025568) rotate(10.017934) translate(-16.205839, -12.025568) "></path>
                <path d="M29.9948276,6.61034483 C29.9886691,6.76997503 29.9713858,6.92898145 29.9431034,7.0862069 L27.0672414,23.3844828 L23.0793103,22.1689655 L25.3913793,9.06206897 L25.9396552,5.96896552 L26.4982759,2.80344828 L26.8862069,2.87068966 C28.7098536,3.16786668 30.0359049,4.76309984 29.9948276,6.61034483 L29.9948276,6.61034483 Z" id="Shape" fill="#C03A2B"></path>
                <path d="M24.0103448,19.1689655 L7.83103448,16.3189655 C7.771239,16.3086679 7.71067572,16.3034483 7.65,16.3034483 C7.11389648,16.3048078 6.66765952,16.7155054 6.62191371,17.2496554 C6.57616784,17.7838053 6.94607255,18.2643991 7.47413793,18.3568966 L23.7724138,21.2275862 C24.2306271,21.3105646 24.6277273,21.5940978 24.8549789,22.0005477 C25.0822304,22.4069977 25.1158207,22.8937742 24.9465517,23.3275862 C24.6555717,24.0249079 23.913652,24.4207427 23.1724138,24.2741379 L6.9362069,21.4137931 C6.87641141,21.4034955 6.81584814,21.3983044 6.75517241,21.3982759 C6.21807667,21.396953 5.76930688,21.8068844 5.72213866,22.3419066 C5.67497048,22.8769288 6.04509538,23.359055 6.57413793,23.4517241 L22.8775862,26.3224138 C23.9044519,26.5024326 24.9591082,26.231546 25.7721203,25.5789577 C26.5851323,24.9263695 27.0777553,23.9552866 27.1241379,22.9137931 C27.164735,21.0638757 25.8366133,19.4665998 24.0103448,19.1689655 L24.0103448,19.1689655 Z" id="Shape" fill="#802F34"></path>
                <path d="M24.9465517,23.3275862 C24.6555717,24.0249079 23.913652,24.4207427 23.1724138,24.2741379 L6.9362069,21.4137931 L7.47413793,18.3568966 L23.7724138,21.2275862 C24.2306271,21.3105646 24.6277273,21.5940978 24.8549789,22.0005477 C25.0822304,22.4069977 25.1158207,22.8937742 24.9465517,23.3275862 L24.9465517,23.3275862 Z" id="Shape" fill="#F9EAB0"></path>
            </g>
        </g>
    </g>
</svg>