<?xml version="1.0" encoding="UTF-8"?>
<svg width="29px" height="28px" viewBox="0 0 29 28" version="1.1" xmlns="http://www.w3.org/2000/svg" xmlns:xlink="http://www.w3.org/1999/xlink">
    <title>44C310A8-76CD-456C-B4B3-8C886AC358B7</title>
    <g id="Page-2" stroke="none" stroke-width="1" fill="none" fill-rule="evenodd">
        <g id="dashboard" transform="translate(-648.000000, -460.000000)" fill-rule="nonzero">
            <g id="books" transform="translate(648.000000, 460.000000)">
                <g id="Group" transform="translate(0.000000, 19.419355)">
                    <path d="M24.2421875,8.58064516 L0.90625,8.58064516 L0.90625,0 L24.2421875,0 C26.6196211,0 28.546875,1.92082258 28.546875,4.29032258 C28.546875,6.65982258 26.6196211,8.58064516 24.2421875,8.58064516 Z" id="Path" fill="#EDEAEE"></path>
                    <path d="M27.1623516,1.13902419 C26.9312578,3.29135484 25.1036914,4.96774194 22.8828125,4.96774194 L0.90625,4.96774194 L0.90625,8.58064516 L24.2421875,8.58064516 C26.6196211,8.58064516 28.546875,6.65982258 28.546875,4.29032258 C28.546875,3.04432258 28.0134336,1.92285484 27.1623516,1.13902419 Z" id="Path" fill="#DBD4DD"></path>
                    <g transform="translate(0.906250, 2.709677)" fill="#B7AABA" id="Path">
                        <path d="M4.984375,0.451612903 C4.984375,0.202209677 4.78148828,0 4.53125,0 L0,0 L0,0.903225806 L4.53125,0.903225806 C4.78148828,0.903225806 4.984375,0.701016129 4.984375,0.451612903 Z"></path>
                        <path d="M6.34375,0.903225806 L13.59375,0.903225806 C13.8439883,0.903225806 14.046875,0.701016129 14.046875,0.451612903 C14.046875,0.202209677 13.8439883,0 13.59375,0 L6.34375,0 C6.09351172,0 5.890625,0.202209677 5.890625,0.451612903 C5.890625,0.701016129 6.09351172,0.903225806 6.34375,0.903225806 Z"></path>
                        <path d="M8.15625,2.25806452 L0,2.25806452 L0,3.16129032 L8.15625,3.16129032 C8.40648828,3.16129032 8.609375,2.95908065 8.609375,2.70967742 C8.609375,2.46027419 8.40648828,2.25806452 8.15625,2.25806452 Z"></path>
                        <path d="M17.21875,2.25806452 L9.96875,2.25806452 C9.71851172,2.25806452 9.515625,2.46027419 9.515625,2.70967742 C9.515625,2.95908065 9.71851172,3.16129032 9.96875,3.16129032 L17.21875,3.16129032 C17.4689883,3.16129032 17.671875,2.95908065 17.671875,2.70967742 C17.671875,2.46027419 17.4689883,2.25806452 17.21875,2.25806452 Z"></path>
                    </g>
                    <path d="M24.2421875,0 L0.453125,0 C0.202886719,0 0,0.202209677 0,0.451612903 L0,1.35483871 C0,1.60424194 0.202886719,1.80645161 0.453125,1.80645161 L24.1980078,1.80645161 C25.5925566,1.80645161 26.7578809,2.94383871 26.7340352,4.33350806 C26.7108125,5.68326613 25.6019023,6.77419355 24.2421875,6.77419355 L0.453125,6.77419355 C0.202886719,6.77419355 0,6.97640323 0,7.22580645 L0,8.12903226 C0,8.37843548 0.202886719,8.58064516 0.453125,8.58064516 L24.2421875,8.58064516 C26.6196211,8.58064516 28.546875,6.65982258 28.546875,4.29032258 C28.546875,1.92082258 26.6196211,0 24.2421875,0 Z" id="Path" fill="#FBC137"></path>
                </g>
                <g id="Group">
                    <path d="M22.203125,8.58064516 L0.90625,8.58064516 L0.90625,0 L22.203125,0 C24.5805586,0 26.5078125,1.92082258 26.5078125,4.29032258 C26.5078125,6.65982258 24.5805586,8.58064516 22.203125,8.58064516 Z" id="Path" fill="#EDEAEE"></path>
                    <path d="M25.5128633,1.54750806 C25.1093555,3.49977419 23.3751895,4.96774194 21.296875,4.96774194 L0.90625,4.96774194 L0.90625,8.58064516 L22.203125,8.58064516 C24.5805586,8.58064516 26.5078125,6.65982258 26.5078125,4.29032258 C26.5078125,3.24709677 26.1339277,2.29114516 25.5128633,1.54750806 Z" id="Path" fill="#DBD4DD"></path>
                    <g transform="translate(0.906250, 2.709677)" fill="#B7AABA" id="Path">
                        <path d="M4.078125,0.451612903 C4.078125,0.202209677 3.87523828,0 3.625,0 L0,0 L0,0.903225806 L3.625,0.903225806 C3.87523828,0.903225806 4.078125,0.701016129 4.078125,0.451612903 Z"></path>
                        <path d="M5.890625,0.903225806 L17.21875,0.903225806 C17.4689883,0.903225806 17.671875,0.701016129 17.671875,0.451612903 C17.671875,0.202209677 17.4689883,0 17.21875,0 L5.890625,0 C5.64038672,0 5.4375,0.202209677 5.4375,0.451612903 C5.4375,0.701016129 5.64038672,0.903225806 5.890625,0.903225806 Z"></path>
                        <path d="M7.703125,2.25806452 L0,2.25806452 L0,3.16129032 L7.703125,3.16129032 C7.95336328,3.16129032 8.15625,2.95908065 8.15625,2.70967742 C8.15625,2.46027419 7.95336328,2.25806452 7.703125,2.25806452 Z"></path>
                        <path d="M18.578125,2.25806452 L10.875,2.25806452 C10.6247617,2.25806452 10.421875,2.46027419 10.421875,2.70967742 C10.421875,2.95908065 10.6247617,3.16129032 10.875,3.16129032 L18.578125,3.16129032 C18.8283633,3.16129032 19.03125,2.95908065 19.03125,2.70967742 C19.03125,2.46027419 18.8283633,2.25806452 18.578125,2.25806452 Z"></path>
                    </g>
                    <path d="M22.203125,0 L0.453125,0 C0.202886719,0 0,0.202209677 0,0.451612903 L0,1.35483871 C0,1.60424194 0.202886719,1.80645161 0.453125,1.80645161 L22.1589453,1.80645161 C23.5534941,1.80645161 24.7188184,2.94383871 24.6949727,4.33350806 C24.67175,5.68326613 23.5628398,6.77419355 22.203125,6.77419355 L0.453125,6.77419355 C0.202886719,6.77419355 0,6.97640323 0,7.22580645 L0,8.12903226 C0,8.37843548 0.202886719,8.58064516 0.453125,8.58064516 L22.203125,8.58064516 C24.5805586,8.58064516 26.5078125,6.65982258 26.5078125,4.29032258 C26.5078125,1.92082258 24.5805586,0 22.203125,0 Z" id="Path" fill="#746EFF"></path>
                </g>
                <g id="Group" transform="translate(3.625000, 8.580645)">
                    <path d="M5.4375,0 L24.015625,0 L24.015625,10.8387097 L5.4375,10.8387097 C2.4344707,10.8387097 0,8.4123629 0,5.41935484 C0,2.42634677 2.4344707,0 5.4375,0 Z" id="Path" fill="#EDEAEE"></path>
                    <path d="M6.34375,7.22580645 C3.53448828,7.22580645 1.22298438,5.10243548 0.936326172,2.37825 C0.345394531,3.24534677 0,4.29212903 0,5.41935484 C0,8.4123629 2.43441406,10.8387097 5.4375,10.8387097 L24.015625,10.8387097 L24.015625,7.22580645 L6.34375,7.22580645 Z" id="Path" fill="#DBD4DD"></path>
                    <g transform="translate(4.984375, 3.161290)" fill="#B7AABA" id="Path">
                        <path d="M14.046875,0 C13.7966367,0 13.59375,0.202209677 13.59375,0.451612903 C13.59375,0.701016129 13.7966367,0.903225806 14.046875,0.903225806 L19.03125,0.903225806 L19.03125,0 L14.046875,0 Z"></path>
                        <path d="M16.3125,1.80645161 C16.0622617,1.80645161 15.859375,2.00866129 15.859375,2.25806452 C15.859375,2.50746774 16.0622617,2.70967742 16.3125,2.70967742 L19.03125,2.70967742 L19.03125,1.80645161 L16.3125,1.80645161 Z"></path>
                        <path d="M14.5,2.25806452 C14.5,2.00866129 14.2971133,1.80645161 14.046875,1.80645161 L11.328125,1.80645161 C11.0778867,1.80645161 10.875,2.00866129 10.875,2.25806452 C10.875,2.50746774 11.0778867,2.70967742 11.328125,2.70967742 L14.046875,2.70967742 C14.2971133,2.70967742 14.5,2.50746774 14.5,2.25806452 Z"></path>
                        <path d="M8.609375,1.80645161 L0.453125,1.80645161 C0.202886719,1.80645161 0,2.00866129 0,2.25806452 C0,2.50746774 0.202886719,2.70967742 0.453125,2.70967742 L8.609375,2.70967742 C8.85961328,2.70967742 9.0625,2.50746774 9.0625,2.25806452 C9.0625,2.00866129 8.85961328,1.80645161 8.609375,1.80645161 Z"></path>
                        <path d="M8.609375,0 L4.984375,0 C4.73413672,0 4.53125,0.202209677 4.53125,0.451612903 C4.53125,0.701016129 4.73413672,0.903225806 4.984375,0.903225806 L8.609375,0.903225806 C8.85961328,0.903225806 9.0625,0.701016129 9.0625,0.451612903 C9.0625,0.202209677 8.85961328,0 8.609375,0 Z"></path>
                        <path d="M12.6875,4.06451613 C12.6875,4.31391935 12.8903867,4.51612903 13.140625,4.51612903 L19.03125,4.51612903 L19.03125,3.61290323 L13.140625,3.61290323 C12.8903867,3.61290323 12.6875,3.8151129 12.6875,4.06451613 Z"></path>
                        <path d="M6.796875,3.61290323 L1.8125,3.61290323 C1.56226172,3.61290323 1.359375,3.8151129 1.359375,4.06451613 C1.359375,4.31391935 1.56226172,4.51612903 1.8125,4.51612903 L6.796875,4.51612903 C7.04711328,4.51612903 7.25,4.31391935 7.25,4.06451613 C7.25,3.8151129 7.04711328,3.61290323 6.796875,3.61290323 Z"></path>
                    </g>
                    <path d="M16.3125,1.35483871 L13.59375,1.35483871 C13.3435117,1.35483871 13.140625,1.55704839 13.140625,1.80645161 L13.140625,7.22580645 C13.140625,7.39233871 13.2326094,7.54537903 13.3799883,7.62395968 C13.5273672,7.70259677 13.7060684,7.69395968 13.8451211,7.60154839 L14.953125,6.8653629 L16.0611855,7.60160484 C16.1370273,7.65201613 16.2246504,7.67747581 16.3125566,7.67747581 C16.3858496,7.67747581 16.4593125,7.65980645 16.5262617,7.62401613 C16.6736406,7.54537903 16.765625,7.39233871 16.765625,7.22580645 L16.765625,1.80645161 C16.765625,1.55704839 16.5627383,1.35483871 16.3125,1.35483871 Z" id="Path" fill="#E7714E"></path>
                    <path d="M5.49249805,1.80645161 L24.921875,1.80645161 C25.1721133,1.80645161 25.375,1.60424194 25.375,1.35483871 L25.375,0.451612903 C25.375,0.202209677 25.1721133,0 24.921875,0 L5.4375,0 C2.4344707,0 0,2.42634677 0,5.41935484 C0,8.4123629 2.4344707,10.8387097 5.4375,10.8387097 L24.921875,10.8387097 C25.1721133,10.8387097 25.375,10.6365 25.375,10.3870968 L25.375,9.48387097 C25.375,9.23446774 25.1721133,9.03225806 24.921875,9.03225806 L5.4375,9.03225806 C3.4199043,9.03225806 1.78202734,7.38099194 1.81295313,5.36318548 C1.8433125,3.38083065 3.5032793,1.80645161 5.49249805,1.80645161 Z" id="Path" fill="#6F5575"></path>
                </g>
            </g>
        </g>
    </g>
</svg>