<?xml version="1.0" encoding="UTF-8"?>
<svg width="22px" height="24px" viewBox="0 0 22 24" version="1.1" xmlns="http://www.w3.org/2000/svg" xmlns:xlink="http://www.w3.org/1999/xlink">
    <title>A03373AB-53E0-4E38-8CA2-832C74D96EA9</title>
    <g id="Page-2" stroke="none" stroke-width="1" fill="none" fill-rule="evenodd">
        <g id="dashboard" transform="translate(-324.000000, -332.000000)" fill-rule="nonzero">
            <g id="calendar(1)" transform="translate(324.000000, 332.000000)">
                <path d="M21.9757067,3.86317907 L21.9757067,7.58148893 L0,7.58148893 L0,3.86317907 C0,3.30736419 0.318574004,2.8244668 0.786602478,2.58205231 C0.992102376,2.47484909 1.22611661,2.41448692 1.47487965,2.41448692 L20.5008271,2.41448692 C21.0666892,2.41448692 21.5583158,2.72740443 21.8051123,3.18712274 C21.9142534,3.38897384 21.9757067,3.618833 21.9757067,3.86317907 Z" id="Path" fill="#FD646F"></path>
                <path d="M5.89951859,2.41448692 L5.89951859,5.11871227 C5.89951859,5.38527163 5.67926989,5.60160966 5.40789204,5.60160966 L3.14640991,5.60160966 C2.87503206,5.60160966 2.65478336,5.38527163 2.65478336,5.11871227 L2.65478336,2.41448692 L5.89951859,2.41448692 Z" id="Path" fill="#FC4755"></path>
                <path d="M18.5343209,2.41448692 L18.5343209,5.11871227 C18.5343209,5.38527163 18.3140722,5.60160966 18.0426943,5.60160966 L15.7812122,5.60160966 C15.5098344,5.60160966 15.2895857,5.38527163 15.2895857,5.11871227 L15.2895857,2.41448692 L18.5343209,2.41448692 Z" id="Path" fill="#FC4755"></path>
                <path d="M0.786602478,2.58205231 L0.786602478,7.58148893 L0,7.58148893 L0,3.86317907 C0,3.30736419 0.318574004,2.8244668 0.786602478,2.58205231 Z" id="Path" fill="#FC4755"></path>
                <g id="Group" transform="translate(3.785524, 10.430584)" fill="#E6E6E6">
                    <path d="M0.245813274,0.0395975855 L2.77523187,0.0395975855 C2.91096996,0.0395975855 3.02104514,0.14771831 3.02104514,0.281046278 L3.02104514,2.76555332 C3.02104514,2.89888129 2.91096996,3.00700201 2.77523187,3.00700201 L0.245813274,3.00700201 C0.110075184,3.00700201 -1.42108547e-14,2.89888129 -1.42108547e-14,2.76555332 L-1.42108547e-14,0.281046278 C-1.42108547e-14,0.14771831 0.110075184,0.0395975855 0.245813274,0.0395975855 L0.245813274,0.0395975855 Z" id="Path"></path>
                    <path d="M0.245813274,3.73134809 L2.77523187,3.73134809 C2.91096996,3.73134809 3.02104514,3.83946881 3.02104514,3.97279678 L3.02104514,6.45778672 C3.02104514,6.59111469 2.91096996,6.69923541 2.77523187,6.69923541 L0.245813274,6.69923541 C0.110075184,6.69923541 -1.42108547e-14,6.59111469 -1.42108547e-14,6.45778672 L-1.42108547e-14,3.97279678 C-1.42108547e-14,3.83946881 0.110075184,3.73134809 0.245813274,3.73134809 L0.245813274,3.73134809 Z" id="Path"></path>
                    <path d="M0.245813274,7.42358149 L2.77523187,7.42358149 C2.91096996,7.42358149 3.02104514,7.53170221 3.02104514,7.66503018 L3.02104514,10.1495372 C3.02104514,10.2828652 2.91096996,10.3909859 2.77523187,10.3909859 L0.245813274,10.3909859 C0.110075184,10.3909859 -1.42108547e-14,10.2828652 -1.42108547e-14,10.1495372 L-1.42108547e-14,7.66503018 C-1.42108547e-14,7.53170221 0.110075184,7.42358149 0.245813274,7.42358149 L0.245813274,7.42358149 Z" id="Path"></path>
                    <path d="M4.00429824,0.0395975855 L6.58779576,0.0395975855 C6.72353385,0.0395975855 6.83360903,0.14771831 6.83360903,0.281046278 L6.83360903,2.76555332 C6.83360903,2.89888129 6.72353385,3.00700201 6.58779576,3.00700201 L4.00429824,3.00700201 C3.86856015,3.00700201 3.75848497,2.89888129 3.75848497,2.76555332 L3.75848497,0.281046278 C3.75848497,0.14771831 3.86856015,0.0395975855 4.00429824,0.0395975855 Z" id="Path"></path>
                    <path d="M4.00429824,3.73134809 L6.58779576,3.73134809 C6.72353385,3.73134809 6.83360903,3.83946881 6.83360903,3.97279678 L6.83360903,6.45778672 C6.83360903,6.59111469 6.72353385,6.69923541 6.58779576,6.69923541 L4.00429824,6.69923541 C3.86856015,6.69923541 3.75848497,6.59111469 3.75848497,6.45778672 L3.75848497,3.97279678 C3.75848497,3.83946881 3.86856015,3.73134809 4.00429824,3.73134809 Z" id="Path"></path>
                    <path d="M4.00429824,7.42358149 L6.58779576,7.42358149 C6.72353385,7.42358149 6.83360903,7.53170221 6.83360903,7.66503018 L6.83360903,10.1495372 C6.83360903,10.2828652 6.72353385,10.3909859 6.58779576,10.3909859 L4.00429824,10.3909859 C3.86856015,10.3909859 3.75848497,10.2828652 3.75848497,10.1495372 L3.75848497,7.66503018 C3.75848497,7.53170221 3.86856015,7.42358149 4.00429824,7.42358149 Z" id="Path"></path>
                    <path d="M7.81686213,0.0395975855 L10.4003596,0.0395975855 C10.5360977,0.0395975855 10.6461729,0.14771831 10.6461729,0.281046278 L10.6461729,2.76555332 C10.6461729,2.89888129 10.5360977,3.00700201 10.4003596,3.00700201 L7.81686213,3.00700201 C7.68112404,3.00700201 7.57104885,2.89888129 7.57104885,2.76555332 L7.57104885,0.281046278 C7.57104885,0.14771831 7.68112404,0.0395975855 7.81686213,0.0395975855 Z" id="Path"></path>
                    <path d="M7.81686213,3.73134809 L10.4003596,3.73134809 C10.5360977,3.73134809 10.6461729,3.83946881 10.6461729,3.97279678 L10.6461729,6.45778672 C10.6461729,6.59111469 10.5360977,6.69923541 10.4003596,6.69923541 L7.81686213,6.69923541 C7.68112404,6.69923541 7.57104885,6.59111469 7.57104885,6.45778672 L7.57104885,3.97279678 C7.57104885,3.83946881 7.68112404,3.73134809 7.81686213,3.73134809 Z" id="Path"></path>
                    <path d="M7.81686213,7.42358149 L10.4003596,7.42358149 C10.5360977,7.42358149 10.6461729,7.53170221 10.6461729,7.66503018 L10.6461729,10.1495372 C10.6461729,10.2828652 10.5360977,10.3909859 10.4003596,10.3909859 L7.81686213,10.3909859 C7.68112404,10.3909859 7.57104885,10.2828652 7.57104885,10.1495372 L7.57104885,7.66503018 C7.57104885,7.53170221 7.68112404,7.42358149 7.81686213,7.42358149 Z" id="Path"></path>
                    <path d="M14.4046579,0.281046278 L14.4046579,2.76555332 C14.4046579,2.89888129 14.2945827,3.00700201 14.1588446,3.00700201 L11.629426,3.00700201 C11.4936879,3.00700201 11.3836127,2.89888129 11.3836127,2.76555332 L11.3836127,0.281046278 C11.3836127,0.14771831 11.4936879,0.0395975855 11.629426,0.0395975855 L14.1588446,0.0395975855 C14.2945827,0.0395975855 14.4046579,0.14771831 14.4046579,0.281046278 Z" id="Path"></path>
                    <path d="M11.629426,3.73134809 L14.1588446,3.73134809 C14.2945827,3.73134809 14.4046579,3.83946881 14.4046579,3.97279678 L14.4046579,6.45778672 C14.4046579,6.59111469 14.2945827,6.69923541 14.1588446,6.69923541 L11.629426,6.69923541 C11.4936879,6.69923541 11.3836127,6.59111469 11.3836127,6.45778672 L11.3836127,3.97279678 C11.3836127,3.83946881 11.4936879,3.73134809 11.629426,3.73134809 Z" id="Path"></path>
                    <path d="M11.629426,7.42358149 L14.1588446,7.42358149 C14.2945827,7.42358149 14.4046579,7.53170221 14.4046579,7.66503018 L14.4046579,10.1495372 C14.4046579,10.2828652 14.2945827,10.3909859 14.1588446,10.3909859 L11.629426,10.3909859 C11.4936879,10.3909859 11.3836127,10.2828652 11.3836127,10.1495372 L11.3836127,7.66503018 C11.3836127,7.53170221 11.4936879,7.42358149 11.629426,7.42358149 Z" id="Path"></path>
                </g>
                <path d="M0,7.24346076 L0,22.5513078 C0,23.3514688 0.660254455,24 1.47487965,24 L20.5008271,24 C21.3154523,24 21.9757067,23.3514688 21.9757067,22.5513078 L21.9757067,7.24346076 L0,7.24346076 Z" id="Path" fill="#F5F5F5"></path>
                <path d="M5.89951859,0.482897384 L5.89951859,4.34607646 C5.89951859,4.61263581 5.67926989,4.82897384 5.40789204,4.82897384 L3.93301239,4.82897384 C3.66163454,4.82897384 3.44138584,4.61263581 3.44138584,4.34607646 L3.44138584,0.482897384 C3.44138584,0.216338028 3.66163454,0 3.93301239,0 L5.40789204,0 C5.67926989,0 5.89951859,0.216338028 5.89951859,0.482897384 Z" id="Path" fill="#50758D"></path>
                <polygon id="Path" fill="#FFAC5C" points="3.78552443 10.4701811 6.80656957 10.4701811 6.80656957 13.4375855 3.78552443 13.4375855"></polygon>
                <polygon id="Path" fill="#FFAC5C" points="15.1691372 10.4701811 18.1901823 10.4701811 18.1901823 13.4375855 15.1691372 13.4375855"></polygon>
                <polygon id="Path" fill="#FFAC5C" points="7.54400939 10.4701811 10.6191335 10.4701811 10.6191335 13.4375855 7.54400939 13.4375855"></polygon>
                <polygon id="Path" fill="#FFAC5C" points="3.78552443 14.1619316 6.80656957 14.1619316 6.80656957 17.1298189 3.78552443 17.1298189"></polygon>
                <polygon id="Path" fill="#E6E6E6" points="15.1691372 14.1619316 18.1901823 14.1619316 18.1901823 17.1298189 15.1691372 17.1298189"></polygon>
                <polygon id="Path" fill="#FFAC5C" points="7.54400939 14.1619316 10.6191335 14.1619316 10.6191335 17.1298189 7.54400939 17.1298189"></polygon>
                <polygon id="Path" fill="#E6E6E6" points="3.78552443 17.854165 6.80656957 17.854165 6.80656957 20.8215694 3.78552443 20.8215694"></polygon>
                <polygon id="Path" fill="#E6E6E6" points="15.1691372 17.854165 18.1901823 17.854165 18.1901823 20.8215694 15.1691372 20.8215694"></polygon>
                <polygon id="Path" fill="#E6E6E6" points="7.54400939 17.854165 10.6191335 17.854165 10.6191335 20.8215694 7.54400939 20.8215694"></polygon>
                <polygon id="Path" fill="#FFAC5C" points="11.3565733 10.4701811 14.4316973 10.4701811 14.4316973 13.4375855 11.3565733 13.4375855"></polygon>
                <polygon id="Path" fill="#FFAC5C" points="11.3565733 14.1619316 14.4316973 14.1619316 14.4316973 17.1298189 11.3565733 17.1298189"></polygon>
                <polygon id="Path" fill="#E6E6E6" points="11.3565733 17.854165 14.4316973 17.854165 14.4316973 20.8215694 11.3565733 20.8215694"></polygon>
                <path d="M18.5343209,0.482897384 L18.5343209,4.34607646 C18.5343209,4.61263581 18.3140722,4.82897384 18.0426943,4.82897384 L16.5678147,4.82897384 C16.2964368,4.82897384 16.0761881,4.61263581 16.0761881,4.34607646 L16.0761881,0.482897384 C16.0761881,0.216338028 16.2964368,0 16.5678147,0 L18.0426943,0 C18.3140722,0 18.5343209,0.216338028 18.5343209,0.482897384 Z" id="Path" fill="#50758D"></path>
                <path d="M0,7.24346076 L0,22.5513078 C0,23.3514688 0.660254455,24 1.47487965,24 L2.01960186,24 C1.33181632,23.8773441 0.811183806,23.2862777 0.811183806,22.5754527 L0.811183806,8.26816901 C0.866737606,8.12088531 1.01078418,8.01609658 1.17990372,8.01609658 L21.9757067,8.01609658 L21.9757067,7.26760563 L21.9757067,7.24346076 L0,7.24346076 Z" id="Path" fill="#E6E6E6"></path>
                <path d="M4.71961487,4.82897384 L3.93301239,4.82897384 C3.66163454,4.82897384 3.44138584,4.61263581 3.44138584,4.34607646 L3.44138584,0.482897384 C3.44138584,0.216338028 3.66163454,0 3.93301239,0 L4.22798832,0 L4.22798832,4.34607646 C4.22798832,4.61263581 4.44823701,4.82897384 4.71961487,4.82897384 Z" id="Path" fill="#2B597F"></path>
                <path d="M17.3544172,4.82897384 L16.5678147,4.82897384 C16.2964368,4.82897384 16.0761881,4.61263581 16.0761881,4.34607646 L16.0761881,0.482897384 C16.0761881,0.216338028 16.2964368,0 16.5678147,0 L16.8627906,0 L16.8627906,4.34607646 C16.8627906,4.61263581 17.0830393,4.82897384 17.3544172,4.82897384 Z" id="Path" fill="#2B597F"></path>
            </g>
        </g>
    </g>
</svg>