<?xml version="1.0" encoding="UTF-8"?>
<svg width="30px" height="30px" viewBox="0 0 30 30" version="1.1" xmlns="http://www.w3.org/2000/svg" xmlns:xlink="http://www.w3.org/1999/xlink">
    <title>852B09BD-B7D3-4989-B71F-DC081E4FDCE9</title>
    <g id="Page-2" stroke="none" stroke-width="1" fill="none" fill-rule="evenodd">
        <g id="dashboard" transform="translate(-648.000000, -719.000000)" fill-rule="nonzero">
            <g id="cutlery" transform="translate(648.000000, 719.000000)">
                <g id="XMLID_130_" fill="#FD9827">
                    <circle id="XMLID_131_" cx="15" cy="15" r="15"></circle>
                </g>
                <path d="M30,15 C30,13.261875 29.7033398,11.5932422 29.1596484,10.0407422 L22.9680469,3.84919922 C22.9680469,3.84919922 18.7599609,5.04867187 18.0956836,6.81644531 L15.3885352,4.21019531 L13.8085547,6.26994141 L11.7424219,4.21019531 L10.3808203,6.26994141 L8.13890625,4.21019531 L6.25060547,4.21019531 L8.26171875,11.2942969 C8.26171875,12.4440234 7.57294922,14.1673828 7.57294922,14.1673828 L9.50109375,16.1044336 L9.66878906,26.4758203 L13.0696875,29.8767188 C13.7016797,29.9578711 14.345918,30 15,30 C23.2842773,30 30,23.2842773 30,15 L30,15 Z" id="Path" fill="#EA7B0C"></path>
                <g id="Group" transform="translate(6.210938, 3.808594)">
                    <g id="Path">
                        <polygon fill="#FFE780" points="2.66771484 10.6847461 6.54960937 10.6847461 6.54960937 15.7824023 2.66771484 15.7824023"></polygon>
                        <polygon fill="#FBBE2C" points="4.60898437 10.6845703 6.54960937 10.6845703 6.54960937 15.7822266 4.60898437 15.7822266"></polygon>
                        <path d="M4.60869141,23.045332 C3.53671875,23.045332 2.66771484,22.1763281 2.66771484,21.1043555 L2.66771484,14.0832422 L6.54960937,14.0832422 L6.54960937,21.1044141 C6.54966797,22.1763867 5.68066406,23.045332 4.60869141,23.045332 Z" fill="#605553"></path>
                        <polygon fill="#FFE780" points="12.8752148 10.6847461 16.7571094 10.6847461 16.7571094 15.7824023 12.8752148 15.7824023"></polygon>
                        <polygon fill="#FBBE2C" points="14.8160156 10.6845703 16.7572266 10.6845703 16.7572266 15.7822266 14.8160156 15.7822266"></polygon>
                        <path d="M14.8161914,23.045332 C13.7442187,23.045332 12.8752148,22.1763281 12.8752148,21.1043555 L12.8752148,14.0832422 L16.7571094,14.0832422 L16.7571094,21.1044141 C16.7571094,22.1763867 15.8881641,23.045332 14.8161914,23.045332 L14.8161914,23.045332 Z" fill="#605553"></path>
                        <path d="M16.7572266,14.0830078 L16.7572266,21.1042969 C16.7572266,22.1765625 15.8882813,23.0455078 14.8160156,23.0455078 L14.8160156,14.0830078 L16.7572266,14.0830078 Z" fill="#4C403F"></path>
                        <path d="M16.7571094,10.9777148 L13.5042187,10.9777148 C12.3154687,10.9777148 11.3518359,10.0140234 11.3518359,8.82533203 L11.3518359,4.70759766 C11.3518359,2.13005859 13.4413477,0.0406054688 16.0188281,0.0406054688 L16.7571094,0.0406054688 L16.7571094,10.9777148 Z" fill="#EEF9FF"></path>
                        <path d="M7.28935547,0.401542969 L7.28935547,5.32341797 C7.28935547,5.80880859 6.89583984,6.20232422 6.41044922,6.20232422 C5.92505859,6.20232422 5.53154297,5.80880859 5.53154297,5.32341797 L5.53154297,0.401542969 L3.68583984,0.401542969 L3.68583984,5.32341797 C3.68583984,5.80880859 3.29232422,6.20232422 2.80693359,6.20232422 C2.32154297,6.20232422 1.92802734,5.80880859 1.92802734,5.32341797 L1.92802734,0.401542969 L0.0397265625,0.401542969 L0.0397265625,7.48564453 C0.0397265625,9.57603516 1.73431641,11.2706836 3.82476563,11.2706836 L5.39261719,11.2706836 C7.48300781,11.2706836 9.17765625,9.57609375 9.17765625,7.48564453 L9.17765625,0.401542969 L7.28935547,0.401542969 Z" fill="#EEF9FF"></path>
                        <path d="M9.17753906,0.401367187 L9.17753906,7.4859375 C9.17753906,9.17226562 8.07421875,10.6013672 6.54960937,11.0900391 C6.18515625,11.2072266 5.79609375,11.2705078 5.39238281,11.2705078 L4.60898437,11.2705078 L4.60898437,0.401367187 L5.53183594,0.401367187 L5.53183594,5.32324219 C5.53183594,5.80898437 5.925,6.20214844 6.41015625,6.20214844 L6.41074219,6.20214844 C6.89589844,6.20214844 7.28964844,5.80898437 7.28964844,5.32324219 L7.28964844,0.401367187 L9.17753906,0.401367187 Z" fill="#D2EBFF"></path>
                    </g>
                    <path d="M6.54960937,14.0830078 L6.54960937,21.1042969 C6.54960937,22.1765625 5.68066406,23.0455078 4.60898437,23.0455078 L4.60898437,14.0830078 L6.54960937,14.0830078 Z" id="Path" fill="#4C403F"></path>
                    <path d="M16.7572266,0.0404296875 L16.7572266,10.9775391 L14.8160156,10.9775391 L14.8160156,0.197460938 C15.1998047,0.094921875 15.6029297,0.0404296875 16.0189453,0.0404296875 L16.7572266,0.0404296875 Z" id="Path" fill="#D2EBFF"></path>
                </g>
            </g>
        </g>
    </g>
</svg>