<?xml version="1.0" encoding="UTF-8"?>
<svg width="24px" height="30px" viewBox="0 0 24 30" version="1.1" xmlns="http://www.w3.org/2000/svg" xmlns:xlink="http://www.w3.org/1999/xlink">
    <title>1B24BBC3-8016-4914-A39F-66E45D6C52D3</title>
    <g id="Page-2" stroke="none" stroke-width="1" fill="none" fill-rule="evenodd">
        <g id="dashboard" transform="translate(-487.000000, -459.000000)" fill-rule="nonzero">
            <g id="grandfather" transform="translate(487.000000, 459.000000)">
                <path d="M23.9761171,28.6498828 L23.4732293,24.4261523 C23.240722,22.4730469 21.9410341,20.8120898 20.1023415,20.1182227 L16.2960585,18.6817969 L14.4114146,19.3285547 L9.31287805,19.2905273 L9.06626341,19.5322852 L4.18999024,21.0289453 C2.35129756,21.7228125 1.60033171,22.6444922 1.36782439,24.5975977 L1.11453659,28.6498828 C1.1796878,28.7142773 0.771336585,30 1.49402927,30 L4.33732683,30 L4.84852683,29.0040234 L5.25225366,30 L18.7477463,30 L18.991961,28.2217383 L19.6545366,30 L22.7785171,30 C23.5012098,30 24.061639,29.3681836 23.9761171,28.6498828 L23.9761171,28.6498828 Z" id="Path" fill="#B57F5F"></path>
                <path d="M8.68331707,18.3122461 L3.8976,20.1182227 C2.05890732,20.8120898 0.759219512,22.4731055 0.526712195,24.4261523 L0.0238829268,28.6498828 C-0.0616390244,29.3681836 0.498790244,30 1.22148293,30 L1.49402927,30 C1.44052683,29.8378711 1.42056585,29.6613867 1.44222439,29.4792773 L1.94505366,25.2555469 C2.17756098,23.3024414 3.47724878,21.6414844 5.31594146,20.9475586 L9.31287805,19.4392383 L8.68331707,18.3122461 Z" id="Path" fill="#9F6E50"></path>
                <path d="M5.25225366,30 L5.66903415,25.0886133 C5.69016585,24.8394727 5.50554146,24.6203906 5.2566439,24.5991797 C5.00774634,24.5783789 4.78887805,24.762832 4.7676878,25.0119727 L4.33732683,30 L5.25225366,30 Z" id="Path" fill="#9F6E50"></path>
                <path d="M19.2323122,25.0119727 C19.2111805,24.7628906 18.9918439,24.5782031 18.7433561,24.5991797 C18.4944585,24.620332 18.3098341,24.8394727 18.3309659,25.0886133 L18.7477463,30 L19.6545366,30 L19.2323122,25.0119727 Z" id="Path" fill="#9F6E50"></path>
                <path d="M16.2954146,15.2692383 L16.2954146,18.6836133 L15.051922,19.458457 C14.958439,19.5166992 14.8628488,19.570957 14.7654439,19.6212305 C14.6185171,19.6969922 14.5187707,18.5743359 14.3644098,18.6314063 C14.2174829,18.6857227 14.0162927,19.9206445 13.8641561,19.9576172 C13.5521561,20.0334375 13.2308488,20.0722266 12.9067902,20.0722266 L12.4954537,20.0722266 L12.0432,19.261582 L11.5909463,20.0722266 L11.0879415,20.0722266 C10.7649951,20.0722266 10.4448585,20.0336719 10.1339122,19.9584375 C9.98060488,19.9213477 9.8297561,18.7223438 9.68171707,18.6676758 C9.5273561,18.6106055 9.37609756,19.6969922 9.22917073,19.6212891 C9.13176585,19.5710742 9.03617561,19.5168164 8.94269268,19.4585742 L8.8787122,19.4187305 L8.63678049,18.8125781 L8.89726829,15.2692969 L16.2954146,15.2692969 L16.2954146,15.2692383 Z" id="Path" fill="#FC8D94"></path>
                <polygon id="Path" fill="#FC7585" points="8.8787122 15.2692383 7.69914146 15.2692383 7.69914146 18.6836133 8.8787122 19.4186133"></polygon>
                <g id="Group" transform="translate(9.190244, 15.234375)" fill="#FC7585">
                    <path d="M0.039102439,0.0348632813 L0.039102439,4.38638672 C0.326809756,4.53474609 0.630497561,4.64789063 0.943668293,4.72371094 L0.943668293,0.034921875 L0.039102439,0.034921875 L0.039102439,0.0348632813 Z" id="Path"></path>
                    <path d="M4.6704,0.0348632813 L4.6704,4.72371094 C4.98357073,4.64789063 5.2872,4.53474609 5.57496585,4.38638672 L5.57496585,0.0348632813 L4.6704,0.0348632813 Z" id="Path"></path>
                    <path d="M2.85289756,0.740859375 C2.60312195,0.740859375 2.4006439,1.20580078 2.4006439,1.77931641 L2.4006439,4.83785156 L3.30520976,4.83785156 L3.30520976,1.77931641 C3.30515122,1.20580078 3.10267317,0.740859375 2.85289756,0.740859375 Z" id="Path"></path>
                </g>
                <path d="M19.2402146,6.41373047 L18.3987512,6.41373047 L17.7944195,6.09292969 L17.4181463,5.37896484 C17.4181463,3.15556641 17.1337756,1.57962891 15.2849561,0.629414062 C14.7393951,0.349042969 14.1430244,0.153808594 13.5132878,0.0611132812 C13.2392195,0.0208007812 12.9924878,0.0373242187 12.707239,0.0373242187 L11.3214439,0.109746094 C8.15953171,0.109746094 6.69377561,2.56558594 6.69377561,5.73058594 L6.92259512,10.1986523 L11.9972488,11.9745117 L18.4016195,10.1986523 L18.3987512,9.60474609 L19.2402146,9.60474609 C20.1205463,9.60474609 20.8342244,8.89037109 20.8342244,8.00917969 C20.8342244,7.12810547 20.1205463,6.41373047 19.2402146,6.41373047 L19.2402146,6.41373047 Z" id="Path" fill="#FFC5B2"></path>
                <path d="M5.93162927,9.60486328 L4.71026341,9.60486328 C3.8556878,9.60486328 3.16296585,8.91140625 3.16296585,8.05605469 L3.16296585,7.96253906 C3.16296585,7.10712891 3.85574634,6.41373047 4.71026341,6.41373047 L5.93162927,6.41373047 L5.93162927,9.60486328 Z" id="Path" fill="#FFC5B2"></path>
                <path d="M19.1664585,7.55660156 L18.3987512,7.55660156 L18.3987512,8.46205078 L19.1664585,8.46205078 C19.4162341,8.46205078 19.6187122,8.259375 19.6187122,8.00935547 C19.6187122,7.75933594 19.4162341,7.55660156 19.1664585,7.55660156 Z" id="Path" fill="#FFAE92"></path>
                <path d="M12.673639,0 L11.3234927,0 C10.3828683,0 9.49516098,0.227109375 8.71223415,0.629472656 C8.62782439,0.672890625 8.54868293,1.17357422 8.47399024,1.21810547 L8.47399024,1.33400391 C8.6075122,1.19162109 8.74782439,1.59591797 8.89521951,1.46777344 C9.90011707,0.594082031 11.2122146,0.0652148438 12.6477659,0.0652148438 L13.5395707,0.0652148438 C13.2571317,0.0223242188 12.9680195,0 12.673639,0 Z" id="Path" fill="#FFAE92"></path>
                <path d="M5.23094634,7.55660156 L4.84969756,7.55660156 C4.60202927,7.55660156 4.3860878,7.74761719 4.37865366,7.99541016 C4.37098537,8.25181641 4.57633171,8.46205078 4.83073171,8.46205078 L5.23094634,8.46205078 C5.43389268,8.46205078 5.59838049,8.62675781 5.59838049,8.82984375 L5.59838049,11.1301758 C5.59838049,12.3867187 6.24878049,13.5535547 7.31707317,14.2134375 L8.45841951,14.9184961 C9.64126829,15.6491602 10.9933463,15.9805664 12.3302634,15.9147656 C11.4421463,15.7825781 10.5744585,15.472793 9.78269268,14.9837109 L8.64134634,14.2786523 C7.57305366,13.6187695 6.92265366,12.4519336 6.92265366,11.1953906 L6.92265366,6.36503906 L6.43779512,5.87203125 C6.43779512,5.73298828 6.42807805,5.60660156 6.43779512,5.47001953 L5.59838049,6.41373047 L5.59838049,7.18875 C5.59838049,7.39189453 5.43389268,7.55660156 5.23094634,7.55660156 L5.23094634,7.55660156 Z" id="Path" fill="#FFAE92"></path>
                <path d="M9.43475122,7.44849609 L9.40501463,7.44849609 C9.13281951,7.44849609 8.91213659,7.22759766 8.91213659,6.95513672 L8.91213659,6.92537109 C8.91213659,6.65291016 9.13281951,6.43201172 9.40501463,6.43201172 L9.43475122,6.43201172 C9.70694634,6.43201172 9.92762927,6.65291016 9.92762927,6.92537109 L9.92762927,6.95513672 C9.92762927,7.22765625 9.70694634,7.44849609 9.43475122,7.44849609 Z" id="Path" fill="#B57F5F"></path>
                <path d="M10.7017756,5.83171875 L8.91207805,5.83171875 C8.66230244,5.83171875 8.45982439,5.62904297 8.45982439,5.37902344 C8.45982439,5.12900391 8.66230244,4.92632813 8.91207805,4.92632813 L10.7017756,4.92632813 C10.9515512,4.92632813 11.1540293,5.12900391 11.1540293,5.37902344 C11.1540293,5.62904297 10.9516098,5.83171875 10.7017756,5.83171875 Z" id="Path" fill="#F8F8FF"></path>
                <path d="M14.5921171,7.44849609 L14.5623805,7.44849609 C14.2901854,7.44849609 14.0695024,7.22759766 14.0695024,6.95513672 L14.0695024,6.92537109 C14.0695024,6.65291016 14.2901854,6.43201172 14.5623805,6.43201172 L14.5921171,6.43201172 C14.8643122,6.43201172 15.0849951,6.65291016 15.0849951,6.92537109 L15.0849951,6.95513672 C15.0849951,7.22765625 14.8643707,7.44849609 14.5921171,7.44849609 Z" id="Path" fill="#B57F5F"></path>
                <path d="M15.0849951,5.83171875 L13.2952976,5.83171875 C13.045522,5.83171875 12.8430439,5.62904297 12.8430439,5.37902344 C12.8430439,5.12900391 13.045522,4.92632813 13.2952976,4.92632813 L15.0849951,4.92632813 C15.3347707,4.92632813 15.5372488,5.12900391 15.5372488,5.37902344 C15.5372488,5.62904297 15.3347707,5.83171875 15.0849951,5.83171875 Z" id="Path" fill="#F8F8FF"></path>
                <path d="M11.9985951,14.3749219 C11.777678,14.3749219 11.5568195,14.3483203 11.3420488,14.2951172 L11.2387317,14.2695703 C10.9962732,14.2095703 10.8482927,13.9641797 10.9082341,13.7214258 C10.9681756,13.4786719 11.2133854,13.3306641 11.4558439,13.3906055 L11.5592195,13.4162109 C11.8466341,13.4874023 12.150439,13.4874023 12.4377951,13.4162695 L12.5412878,13.3906641 C12.7837463,13.3305469 13.0289561,13.4787891 13.0888976,13.7214844 C13.148839,13.9641797 13.0008585,14.2096289 12.7584,14.2696289 L12.6550244,14.2952344 C12.4403122,14.3483203 12.2194537,14.3749219 11.9985951,14.3749219 L11.9985951,14.3749219 Z" id="Path" fill="#000000"></path>
                <path d="M12.1326439,9.57796875 L13.6377951,9.57796875 L13.9272585,10.1987695 L18.4016195,10.1987695 L18.4016195,13.1128125 C18.4016195,14.2536914 17.7478829,15.2934375 16.7202732,15.7869141 L12.7809366,17.6776172 C12.7149073,17.7093164 12.6474146,17.7367969 12.5788683,17.76 C12.1340488,17.9107617 11.5455805,17.4102539 11.1170341,17.2044141 L7.48050732,15.5094727 C6.45289756,15.0159961 6.46226189,14.2536914 6.46226189,13.1128711 L6.92265366,10.1988281 L10.0727415,10.1988281 L10.3622049,9.57796875 L11.8673561,9.57796875 L12.1326439,9.57796875 L12.1326439,9.57796875 Z" id="Path" fill="#F8F8FF"></path>
                <path d="M5.59838049,13.1128125 C5.59838049,14.2536914 6.25211707,15.2934375 7.27972683,15.7869141 L11.2162537,17.6774414 C11.6448,17.8832227 12.1339902,17.9104102 12.5788098,17.759707 C12.5660488,17.7539648 12.5531707,17.7486914 12.5405268,17.7426563 L8.604,15.8521875 C7.57639024,15.3587109 6.92265366,14.3189648 6.92265366,13.1780859 L6.92265366,10.1988281 L5.59838049,10.1988281 L5.59838049,13.1128125 Z" id="Path" fill="#EDEDF4"></path>
                <path d="M10.1471415,10.6916602 L8.69262439,10.6916602 C8.27297561,10.6916602 7.93281951,10.3511719 7.93281951,9.93111328 L7.93281951,9.22488281 C7.93281951,8.80482422 8.27297561,8.46433594 8.69262439,8.46433594 L10.1471415,8.46433594 C10.5667902,8.46433594 10.9069463,8.80482422 10.9069463,9.22488281 L10.9069463,9.93111328 C10.9069463,10.3511719 10.5667902,10.6916602 10.1471415,10.6916602 L10.1471415,10.6916602 Z" id="Path" fill="#9FCAF4"></path>
                <path d="M15.3045073,10.6916602 L13.8499902,10.6916602 C13.4303415,10.6916602 13.0901854,10.3511719 13.0901854,9.93111328 L13.0901854,9.22488281 C13.0901854,8.80482422 13.4303415,8.46433594 13.8499902,8.46433594 L15.3045073,8.46433594 C15.7241561,8.46433594 16.0643122,8.80482422 16.0643122,9.22488281 L16.0643122,9.93111328 C16.0643122,10.3511719 15.7241561,10.6916602 15.3045073,10.6916602 Z" id="Path" fill="#9FCAF4"></path>
                <path d="M15.3045073,8.01158203 L13.8499902,8.01158203 C13.2152195,8.01158203 12.6938341,8.50283203 12.6429073,9.12527344 L11.3541073,9.12527344 C11.303239,8.50283203 10.7817951,8.01158203 10.1470829,8.01158203 L8.69256585,8.01158203 C8.02425366,8.01158203 7.48044878,8.55585937 7.48044878,9.22488281 L7.48044878,9.93111328 C7.48044878,10.6000781 8.02419512,11.1443555 8.69256585,11.1443555 L10.1470829,11.1443555 C10.7818537,11.1443555 11.303239,10.6531641 11.3541073,10.0306641 L12.6429073,10.0306641 C12.6938341,10.6531055 13.2152195,11.1443555 13.8499902,11.1443555 L15.3045073,11.1443555 C15.972878,11.1443555 16.5166244,10.6000781 16.5166244,9.93111328 L16.5166244,9.22488281 C16.5166244,8.55585937 15.972878,8.01158203 15.3045073,8.01158203 Z M10.4546927,9.93111328 C10.4546927,10.1008594 10.316722,10.2389648 10.1471415,10.2389648 L8.69262439,10.2389648 C8.5230439,10.2389648 8.38507317,10.1008594 8.38507317,9.93111328 L8.38507317,9.22488281 C8.38507317,9.05513672 8.5230439,8.91703125 8.69262439,8.91703125 L10.1471415,8.91703125 C10.316722,8.91703125 10.4546927,9.05513672 10.4546927,9.22488281 L10.4546927,9.93111328 Z M15.6120585,9.93111328 C15.6120585,10.1008594 15.4740878,10.2389648 15.3044488,10.2389648 L13.8499317,10.2389648 C13.6803512,10.2389648 13.5423805,10.1008594 13.5423805,9.93111328 L13.5423805,9.22488281 C13.5423805,9.05513672 13.6803512,8.91703125 13.8499317,8.91703125 L15.3044488,8.91703125 C15.4740293,8.91703125 15.6120585,9.05513672 15.6120585,9.22488281 L15.6120585,9.93111328 Z" id="Shape" fill="#6F6571"></path>
                <path d="M12,14.4673828 C11.7907902,14.4673828 11.5815805,14.4400195 11.3782244,14.3853516 L11.2830439,14.3596875 C11.0418146,14.2947656 10.8988683,14.0464453 10.9636683,13.8049805 C11.0285268,13.5635156 11.2766049,13.4204883 11.5178341,13.4853516 L11.6130146,13.510957 C11.8661854,13.5789844 12.1338146,13.5789844 12.3869854,13.510957 L12.4821659,13.4853516 C12.7233951,13.4204883 12.9715317,13.5635742 13.0363317,13.8050391 C13.1011902,14.0465039 12.9581854,14.2948242 12.7169561,14.3597461 L12.6217756,14.3853516 C12.4184195,14.4400195 12.2092098,14.4673828 12,14.4673828 L12,14.4673828 Z" id="Path" fill="#FFAE92"></path>
                <path d="M15.3078439,12.9404297 L13.6185951,12.9404297 C13.2856976,12.9404297 12.9604098,12.8473242 12.6777366,12.6713086 L12.3105951,12.4425586 C12.1173073,12.3221484 11.8771902,12.3221484 11.6839024,12.4425586 L11.3168195,12.6713086 C11.0341463,12.8473828 10.7088,12.9404883 10.375961,12.9404883 L8.6867122,12.9404883 C8.43693659,12.9404883 8.23445854,12.7378125 8.23445854,12.487793 C8.23445854,12.2377734 8.43693659,12.0350977 8.6867122,12.0350977 L10.375961,12.0350977 C10.5397463,12.0350977 10.6997854,11.9892773 10.8388683,11.9026758 L11.2059512,11.6739844 C11.6940878,11.3698828 12.3005268,11.3698828 12.7886049,11.6739844 L13.1557463,11.9027344 C13.2947707,11.9893359 13.4548098,12.0351562 13.6185951,12.0351562 L15.3078439,12.0351562 C15.5576195,12.0351562 15.7600976,12.237832 15.7600976,12.4878516 C15.7600976,12.7377539 15.5576195,12.9404297 15.3078439,12.9404297 Z" id="Path" fill="#EDEDF4"></path>
                <path d="M8.89521951,1.15171875 L8.89521951,2.82527344 C8.89521951,3.22939453 8.68308293,3.60386719 8.33654634,3.81128906 L7.97765854,4.02615234 C7.63112195,4.23357422 7.41898537,4.60798828 7.41898537,5.01216797 L7.41898537,5.64791016 C7.41898537,6.07089844 7.07642927,6.41378906 6.65385366,6.41378906 L6.43779512,6.41378906 L6.21623415,2.77851562 C6.21623415,1.41802734 6.69330732,0.403242188 8.05246829,0.403242188 C8.16058537,0.403242188 8.27086829,0.335683594 8.3657561,0.373066406 C8.67576585,0.495410156 8.89521951,0.797871094 8.89521951,1.15171875 L8.89521951,1.15171875 Z" id="Path" fill="#F8F8FF"></path>
                <path d="M8.36546341,0.373769531 C8.27057561,0.336328125 8.16760976,0.315058594 8.05943415,0.315058594 C6.70027317,0.315058594 5.59843902,1.41796875 5.59843902,2.77845703 L5.59843902,6.41373047 L6.43785366,6.41373047 L6.43785366,2.77851563 C6.43779512,1.60142578 7.26280976,0.617753906 8.36546341,0.373769531 Z" id="Path" fill="#EDEDF4"></path>
                <path d="M15.1019122,1.15171875 L15.1019122,2.82527344 C15.1019122,3.22939453 15.3140488,3.60386719 15.6605854,3.81128906 L16.0194732,4.02615234 C16.3660098,4.23357422 16.5781463,4.60798828 16.5781463,5.01216797 L16.5781463,5.64791016 C16.5781463,6.07089844 16.9207024,6.41378906 17.343278,6.41378906 L18.3987512,6.41378906 L18.3987512,2.77851562 C18.3987512,1.41802734 17.2969171,0.315117188 15.9377561,0.315117188 C15.4761366,0.315117188 15.1019122,0.689648438 15.1019122,1.15171875 Z" id="Path" fill="#F8F8FF"></path>
            </g>
        </g>
    </g>
</svg>