<?xml version="1.0" encoding="UTF-8"?>
<svg width="96px" height="39px" viewBox="0 0 96 39" version="1.1" xmlns="http://www.w3.org/2000/svg" xmlns:xlink="http://www.w3.org/1999/xlink">
    <title>0041E424-1FFA-4F54-BE07-6A0C32947111</title>
    <g id="Page-2" stroke="none" stroke-width="1" fill="none" fill-rule="evenodd">
        <g id="dashboard" transform="translate(-67.000000, -33.000000)" fill="#FFFFFF">
            <g id="Group-15" transform="translate(67.000000, 33.000000)">
                <path d="M38.2195153,0 L38.2195153,8.66775289 L54.4392634,8.66775289 C55.3161656,8.43380743 55.7546167,7.86082392 55.7546167,6.94880237 C55.7546167,6.03678082 55.3161656,5.50733312 54.4392634,5.36045929 L48.4673206,5.36045929 L48.4673206,7.08501566 L42.9186973,7.08501566 L42.9186973,0 L56.6412763,0 C59.5303257,1.08078054 60.9748503,3.32361108 60.9748503,6.72849163 C60.9748503,10.1333722 59.5303257,12.4165618 56.6412763,13.5780606 L54.4392634,13.5780606 L63,22.7127818 L55.9681868,22.7127818 L47.608583,14.353178 L38.2195153,14.353178 L38.2195153,22.7127818 L33,22.7127818 L33,0 L38.2195153,0 Z M47.0451655,15.6237708 L48.3610567,16.7757392 L48.3610567,22.5463346 L43.01206,22.5463346 L43.01206,15.6237708 L47.0451655,15.6237708 Z" id="Combined-Shape"></path>
                <text id="By-MobiArchitects" font-family="SFProDisplay-Regular, SF Pro Display" font-size="10" font-weight="normal" letter-spacing="-0.044534375">
                    <tspan x="0" y="37">BY MOBIARCHITECTS</tspan>
                </text>
            </g>
        </g>
    </g>
</svg>