<?xml version="1.0" encoding="UTF-8"?>
<svg width="30px" height="30px" viewBox="0 0 30 30" version="1.1" xmlns="http://www.w3.org/2000/svg" xmlns:xlink="http://www.w3.org/1999/xlink">
    <title>200A76F9-6B58-4B1C-8FCB-E0014418DB09</title>
    <g id="Page-2" stroke="none" stroke-width="1" fill="none" fill-rule="evenodd">
        <g id="dashboard" transform="translate(-320.000000, -719.000000)" fill-rule="nonzero">
            <g id="Group-7" transform="translate(320.000000, 719.000000)">
                <circle id="Oval" fill="#67B9CC" cx="14.5926688" cy="14.5926688" r="14.5926688"></circle>
                <g id="Group" transform="translate(0.712533, 0.071253)" fill="#24AE5F">
                    <path d="M18.4403459,13.6093738 L18.4403459,15.6997736 C18.4406446,16.1244214 18.3416361,16.5432554 18.1512279,16.9228216 L15.2591434,22.7069907 C14.9727876,23.279818 14.3873926,23.6418336 13.7469781,23.6418336 C12.8131057,23.6418336 12.0560526,22.8847804 12.0560526,21.9509081 L12.0560526,17.257541 C12.0560526,16.7538342 11.6477175,16.3454992 11.1440108,16.3454992 C9.63289048,16.3454992 8.40788536,15.1204941 8.40788536,13.6093738 C8.40788536,12.0982535 9.63289048,10.8732484 11.1440108,10.8732484 L15.7042198,10.8732484 C17.2153401,10.8732484 18.4403459,12.0982535 18.4403459,13.6093738 Z" id="Path"></path>
                    <path d="M28.2174333,11.7852902 L24.8246378,11.7852902 C23.8184715,11.7822852 23.0035592,10.9673728 23.0005542,9.96120656 L23.0005542,8.53842134 C22.9987276,7.75262309 22.4960495,7.05547831 21.7510569,6.80554192 C20.8627067,6.51116994 20.2633643,5.68017993 20.2644273,4.74432745 L20.2644273,1.39713404 C24.4061135,3.41091276 27.3541519,7.26161882 28.2174333,11.7852902 Z" id="Path"></path>
                    <path d="M12.0560526,0.0473121685 L12.0560526,3.3033014 C12.0560526,5.46924053 10.3002119,7.22508115 8.13427282,7.22508115 C7.27155999,7.21959038 6.50440469,7.77282746 6.23722587,8.59314385 C5.96244902,9.41185304 5.19464645,9.96290751 4.33105851,9.96121048 L0.0171007838,9.96121048 C1.77959119,4.6094838 6.46564072,0.750593019 12.0560526,0.0473121685 L12.0560526,0.0473121685 Z" id="Path"></path>
                </g>
            </g>
        </g>
    </g>
</svg>