<?xml version="1.0" encoding="UTF-8"?>
<svg width="24px" height="24px" viewBox="0 0 24 24" version="1.1" xmlns="http://www.w3.org/2000/svg" xmlns:xlink="http://www.w3.org/1999/xlink">
    <title>9F52E3C9-F032-466C-BFF6-5069BA128D68</title>
    <g id="Page-2" stroke="none" stroke-width="1" fill="none" fill-rule="evenodd">
        <g id="dashboard" transform="translate(-20.000000, -115.000000)">
            <g id="Outlined-/-Action-/-home" transform="translate(20.000000, 115.000000)">
                <polygon id="Path" points="0 0 24 0 24 24 0 24"></polygon>
                <path d="M12,5.69 L17,10.19 L17,18 L15,18 L15,12 L9,12 L9,18 L7,18 L7,10.19 L12,5.69 L12,5.69 Z M12,3 L2,12 L5,12 L5,20 L11,20 L11,14 L13,14 L13,20 L19,20 L19,12 L22,12 L12,3 Z" id="🔹-Icon-Color" fill="#FFFFFF"></path>
            </g>
        </g>
    </g>
</svg>