<?xml version="1.0" encoding="UTF-8"?>
<svg width="30px" height="30px" viewBox="0 0 30 30" version="1.1" xmlns="http://www.w3.org/2000/svg" xmlns:xlink="http://www.w3.org/1999/xlink">
    <title>36F79D8C-246F-4B8C-AFC9-3449F34D4723</title>
    <g id="Page-2" stroke="none" stroke-width="1" fill="none" fill-rule="evenodd">
        <g id="dashboard" transform="translate(-484.000000, -849.000000)" fill-rule="nonzero">
            <g id="hospital" transform="translate(484.000000, 849.000000)">
                <polyline id="Path" fill="#ECEDF2" points="14.7772852 1.60494141 28.3157227 1.60494141 28.3157227 28.9164844 1.68445313 28.9164844 1.68445313 1.60494141 5.35183594 1.60494141"></polyline>
                <polyline id="Path" fill="#C6CAD5" points="14.7772852 1.60494141 28.3157227 1.60494141 28.3157227 4.41292969 1.68445313 4.41292969 1.68445313 1.60494141 5.35183594 1.60494141"></polyline>
                <path d="M11.1476953,2.66806641 L28.3157227,2.66806641 L29.5116211,2.66806641 C29.7813281,2.66806641 30,2.44945312 30,2.1796875 L30,1.03013672 C30,0.760429687 29.7813867,0.541757812 29.5116211,0.541757812 L12.4066406,0.541757812 L7.72177734,0.541757812 L0.488554688,0.541757812 C0.218847656,0.541757812 0.00017578125,0.760371094 0.00017578125,1.03013672 L0.00017578125,2.17974609 C0.00017578125,2.44945313 0.218789063,2.668125 0.488554688,2.668125 L1.68445313,2.668125 L8.143125,2.668125" id="Path" fill="#525C66"></path>
                <circle id="Oval" fill="#C6CAD5" cx="10.0646484" cy="6.15011719" r="5.51753906"></circle>
                <circle id="Oval" fill="#FFFFFF" cx="10.0646484" cy="5.53792969" r="5.51753906"></circle>
                <path d="M13.2866016,4.45476563 L11.3919727,4.45476563 C11.2570898,4.45476563 11.1476953,4.34542969 11.1476953,4.21048828 L11.1476953,2.31585938 C11.1476953,2.18097656 11.0383594,2.07158203 10.903418,2.07158203 L9.22546875,2.07158203 C9.09058594,2.07158203 8.98119141,2.18091797 8.98119141,2.31585938 L8.98119141,4.21054688 C8.98119141,4.34542969 8.87185547,4.45482422 8.73691406,4.45482422 L6.84228516,4.45482422 C6.70740234,4.45482422 6.59800781,4.56416016 6.59800781,4.69910156 L6.59800781,6.37705078 C6.59800781,6.51193359 6.70734375,6.62132812 6.84228516,6.62132812 L8.73691406,6.62132812 C8.87179687,6.62132812 8.98119141,6.73066406 8.98119141,6.86560547 L8.98119141,8.76023437 C8.98119141,8.89511719 9.09052734,9.00451172 9.22546875,9.00451172 L10.903418,9.00451172 C11.0383008,9.00451172 11.1476953,8.89517578 11.1476953,8.76023437 L11.1476953,6.86560547 C11.1476953,6.73072266 11.2570313,6.62132812 11.3919727,6.62132812 L13.2866016,6.62132812 C13.4214844,6.62132812 13.5308789,6.51199219 13.5308789,6.37705078 L13.5308789,4.69910156 C13.5308789,4.56416016 13.421543,4.45476563 13.2866016,4.45476563 Z" id="Path" fill="#D81616"></path>
                <g id="Group" transform="translate(3.632812, 5.566406)" fill="#A0D9F2">
                    <rect id="Rectangle" x="14.7962695" y="7.34103516" width="2.98382812" height="5.44863281"></rect>
                    <rect id="Rectangle" x="4.95445313" y="7.34103516" width="2.98382813" height="5.44863281"></rect>
                    <rect id="Rectangle" x="19.7168555" y="7.34103516" width="2.98382812" height="5.44863281"></rect>
                    <rect id="Rectangle" x="9.87503906" y="7.34103516" width="2.98382813" height="5.44863281"></rect>
                    <rect id="Rectangle" x="0.0340429688" y="7.34103516" width="2.98382813" height="5.44863281"></rect>
                    <rect id="Rectangle" x="4.95445313" y="14.6414062" width="2.98382813" height="5.44863281"></rect>
                    <rect id="Rectangle" x="9.87503906" y="14.6414062" width="2.98382813" height="5.44863281"></rect>
                    <rect id="Rectangle" x="0.0340429688" y="14.6414062" width="2.98382813" height="5.44863281"></rect>
                    <rect id="Rectangle" x="14.7962695" y="0.040078125" width="2.98382812" height="5.44863281"></rect>
                    <rect id="Rectangle" x="19.7168555" y="0.040078125" width="2.98382812" height="5.44863281"></rect>
                </g>
                <g id="Group" transform="translate(3.281250, 12.539062)" fill="#FFFFFF">
                    <path d="M18.1314844,6.18427734 L15.1476563,6.18427734 C14.9448047,6.18427734 14.780332,6.01974609 14.780332,5.81695313 L14.780332,0.368320313 C14.780332,0.16546875 14.9448633,0.00099609375 15.1476563,0.00099609375 L18.1314844,0.00099609375 C18.3343359,0.00099609375 18.4988086,0.165527344 18.4988086,0.368320313 L18.4988086,5.81695313 C18.4988086,6.01980469 18.3342773,6.18427734 18.1314844,6.18427734 Z M15.5149805,5.44957031 L17.7641016,5.44957031 L17.7641016,0.735644531 L15.5149805,0.735644531 L15.5149805,5.44957031 Z" id="Shape"></path>
                    <path d="M8.29013672,6.18427734 L5.30630859,6.18427734 C5.10345703,6.18427734 4.93898438,6.01974609 4.93898438,5.81695313 L4.93898438,0.368320313 C4.93898438,0.16546875 5.10351562,0.00099609375 5.30630859,0.00099609375 L8.29013672,0.00099609375 C8.49298828,0.00099609375 8.65746094,0.165527344 8.65746094,0.368320313 L8.65746094,5.81695313 C8.65746094,6.01980469 8.49292969,6.18427734 8.29013672,6.18427734 Z M5.67363281,5.44957031 L7.92275391,5.44957031 L7.92275391,0.735644531 L5.67363281,0.735644531 L5.67363281,5.44957031 Z" id="Shape"></path>
                    <path d="M23.0521289,6.18427734 L20.0683008,6.18427734 C19.8654492,6.18427734 19.7009766,6.01974609 19.7009766,5.81695313 L19.7009766,0.368320313 C19.7009766,0.16546875 19.8655078,0.00099609375 20.0683008,0.00099609375 L23.0521289,0.00099609375 C23.2549805,0.00099609375 23.4194531,0.165527344 23.4194531,0.368320313 L23.4194531,5.81695313 C23.4194531,6.01980469 23.2549805,6.18427734 23.0521289,6.18427734 Z M20.435625,5.44957031 L22.6847461,5.44957031 L22.6847461,0.735644531 L20.435625,0.735644531 L20.435625,5.44957031 Z" id="Shape"></path>
                    <path d="M13.2107813,6.18427734 L10.2269531,6.18427734 C10.0241016,6.18427734 9.85962891,6.01974609 9.85962891,5.81695313 L9.85962891,0.368320313 C9.85962891,0.16546875 10.0241602,0.00099609375 10.2269531,0.00099609375 L13.2107813,0.00099609375 C13.4136328,0.00099609375 13.5781055,0.165527344 13.5781055,0.368320313 L13.5781055,5.81695313 C13.5781055,6.01980469 13.4135742,6.18427734 13.2107813,6.18427734 Z M10.5942773,5.44957031 L12.8433984,5.44957031 L12.8433984,0.735644531 L10.5942773,0.735644531 L10.5942773,5.44957031 L10.5942773,5.44957031 Z" id="Shape"></path>
                    <path d="M3.369375,6.18427734 L0.385605469,6.18427734 C0.182753906,6.18427734 0.01828125,6.01974609 0.01828125,5.81695313 L0.01828125,0.368320313 C0.01828125,0.16546875 0.1828125,0.00099609375 0.385605469,0.00099609375 L3.36943359,0.00099609375 C3.57228516,0.00099609375 3.73675781,0.165527344 3.73675781,0.368320313 L3.73675781,5.81695313 C3.73675781,6.01980469 3.57228516,6.18427734 3.369375,6.18427734 Z M0.752929687,5.44957031 L3.00205078,5.44957031 L3.00205078,0.735644531 L0.752929687,0.735644531 L0.752929687,5.44957031 Z" id="Shape"></path>
                </g>
                <polygon id="Path" fill="#A0D9F2" points="26.3333789 20.2079297 18.4289063 20.2079297 18.4289063 27.8532422 26.3333789 28.4655469"></polygon>
                <g id="Group" transform="translate(3.281250, 5.214844)" fill="#FFFFFF">
                    <path d="M23.4194531,22.9445508 L22.6847461,22.9445508 L22.6847461,15.3604102 L15.5149805,15.3604102 L15.5149805,22.9445508 L14.7802734,22.9445508 L14.7802734,14.9930859 C14.7802734,14.7902344 14.9448047,14.6257617 15.1475977,14.6257617 L23.0520703,14.6257617 C23.2549219,14.6257617 23.4194531,14.790293 23.4194531,14.9930859 L23.4194531,22.9445508 L23.4194531,22.9445508 Z" id="Path"></path>
                    <path d="M8.29013672,20.8091016 L5.30630859,20.8091016 C5.10345703,20.8091016 4.93898438,20.6445703 4.93898438,20.4417773 L4.93898438,14.9931445 C4.93898438,14.790293 5.10351562,14.6258203 5.30630859,14.6258203 L8.29013672,14.6258203 C8.49298828,14.6258203 8.65746094,14.7903516 8.65746094,14.9931445 L8.65746094,20.4417773 C8.65746094,20.6445703 8.49292969,20.8091016 8.29013672,20.8091016 Z M5.67363281,20.0743945 L7.92275391,20.0743945 L7.92275391,15.3604688 L5.67363281,15.3604688 L5.67363281,20.0743945 Z" id="Shape"></path>
                    <path d="M13.2107813,20.8091016 L10.2269531,20.8091016 C10.0241016,20.8091016 9.85962891,20.6445703 9.85962891,20.4417773 L9.85962891,14.9931445 C9.85962891,14.790293 10.0241602,14.6258203 10.2269531,14.6258203 L13.2107813,14.6258203 C13.4136328,14.6258203 13.5781055,14.7903516 13.5781055,14.9931445 L13.5781055,20.4417773 C13.5781055,20.6445703 13.4135742,20.8091016 13.2107813,20.8091016 Z M10.5942773,20.0743945 L12.8433984,20.0743945 L12.8433984,15.3604688 L10.5942773,15.3604688 L10.5942773,20.0743945 L10.5942773,20.0743945 Z" id="Shape"></path>
                    <path d="M3.369375,20.8091016 L0.385605469,20.8091016 C0.182753906,20.8091016 0.01828125,20.6445703 0.01828125,20.4417773 L0.01828125,14.9931445 C0.01828125,14.790293 0.1828125,14.6258203 0.385605469,14.6258203 L3.36943359,14.6258203 C3.57228516,14.6258203 3.73675781,14.7903516 3.73675781,14.9931445 L3.73675781,20.4417773 C3.73675781,20.6445703 3.57228516,20.8091016 3.369375,20.8091016 Z M0.752929687,20.0743945 L3.00205078,20.0743945 L3.00205078,15.3604688 L0.752929687,15.3604688 L0.752929687,20.0743945 Z" id="Shape"></path>
                    <path d="M18.1314844,6.20794922 L15.1476563,6.20794922 C14.9448047,6.20794922 14.780332,6.04341797 14.780332,5.840625 L14.780332,0.391875 C14.780332,0.189023437 14.9448633,0.0245507812 15.1476563,0.0245507812 L18.1314844,0.0245507812 C18.3343359,0.0245507812 18.4988086,0.189082031 18.4988086,0.391875 L18.4988086,5.84050781 C18.4988086,6.04341797 18.3342773,6.20794922 18.1314844,6.20794922 Z M15.5149805,5.47324219 L17.7641016,5.47324219 L17.7641016,0.759257813 L15.5149805,0.759257813 L15.5149805,5.47324219 Z" id="Shape"></path>
                    <path d="M23.0521289,6.20794922 L20.0683008,6.20794922 C19.8654492,6.20794922 19.7009766,6.04341797 19.7009766,5.840625 L19.7009766,0.391875 C19.7009766,0.189023437 19.8655078,0.0245507812 20.0683008,0.0245507812 L23.0521289,0.0245507812 C23.2549805,0.0245507812 23.4194531,0.189082031 23.4194531,0.391875 L23.4194531,5.84050781 C23.4194531,6.04341797 23.2549805,6.20794922 23.0521289,6.20794922 Z M20.435625,5.47324219 L22.6847461,5.47324219 L22.6847461,0.759257813 L20.435625,0.759257813 L20.435625,5.47324219 Z" id="Shape"></path>
                    <rect id="Rectangle" x="15.147832" y="16.4929687" width="7.90464844" height="1"></rect>
                    <rect id="Rectangle" x="18.7324805" y="16.860293" width="1" height="6.38994141"></rect>
                    <rect id="Rectangle" x="5.30601563" y="16.3705078" width="2.9840625" height="1"></rect>
                    <path d="M13.2108984,17.1049805 L10.2268359,17.1049805 L10.2268359,16.3702734 L12.8435742,16.3702734 L12.8435742,14.9933203 L13.5782812,14.9933203 L13.5782812,16.7375977 C13.5782227,16.9405078 13.41375,17.1049805 13.2108984,17.1049805 Z" id="Path"></path>
                    <rect id="Rectangle" x="0.385664063" y="16.3705078" width="2.98347656" height="1"></rect>
                    <path d="M23.0520117,9.80466797 L20.0685352,9.80466797 L20.0685352,9.06996094 L22.6846289,9.06996094 L22.6846289,7.69242188 L23.419336,7.69242188 L23.419336,9.43728516 C23.4193945,9.64013672 23.2549219,9.80466797 23.0520117,9.80466797 Z" id="Path"></path>
                    <rect id="Rectangle" x="10.2266016" y="9.07013672" width="2.9840625" height="1"></rect>
                    <rect id="Rectangle" x="0.385664063" y="9.07013672" width="2.98347656" height="1"></rect>
                    <rect id="Rectangle" x="5.30601563" y="9.07013672" width="2.9840625" height="1"></rect>
                    <rect id="Rectangle" x="15.1471875" y="9.07013672" width="2.9840625" height="1"></rect>
                    <path d="M23.0520117,2.50423828 L20.0685352,2.50423828 L20.0685352,1.76953125 L22.6846289,1.76953125 L22.6846289,0.391992187 L23.419336,0.391992187 L23.419336,2.13685547 C23.4193945,2.33976562 23.2549219,2.50423828 23.0520117,2.50423828 Z" id="Path"></path>
                    <rect id="Rectangle" x="15.1471875" y="1.76976563" width="2.9840625" height="1"></rect>
                </g>
                <path d="M29.1016992,27.8533008 L0.898125,27.8533008 C0.402128906,27.8533008 0,28.2554297 0,28.7513672 L0,29.9796094 L29.9998242,29.9796094 L29.9998242,28.7513672 C29.9998242,28.2554297 29.5976953,27.8533008 29.1016992,27.8533008 Z" id="Path" fill="#423E3E"></path>
            </g>
        </g>
    </g>
</svg>