<?xml version="1.0" encoding="UTF-8"?>
<svg width="30px" height="30px" viewBox="0 0 30 30" version="1.1" xmlns="http://www.w3.org/2000/svg" xmlns:xlink="http://www.w3.org/1999/xlink">
    <title>FD786B67-B94E-4DBE-80FC-6052027A05C2</title>
    <g id="Page-2" stroke="none" stroke-width="1" fill="none" fill-rule="evenodd">
        <g id="dashboard" transform="translate(-320.000000, -849.000000)" fill-rule="nonzero">
            <g id="key" transform="translate(320.000000, 849.000000)">
                <g id="XMLID_647_" fill="#FC445F">
                    <circle id="XMLID_648_" cx="15" cy="15" r="15"></circle>
                </g>
                <path d="M30,15 C30,13.6559766 29.8222266,12.3537305 29.4907031,11.1142383 L24.2175,5.84109375 C24.2175,5.84109375 20.3320312,4.51171875 18.8085938,7.3828125 C17.2851563,10.2539062 5.64580078,24.412793 5.64580078,24.412793 L10.5667969,29.3337891 C11.9679492,29.7666211 13.4566992,30 15,30 C23.2842773,30 30,23.2842773 30,15 Z" id="Path" fill="#E00F5A"></path>
                <g id="Group" transform="translate(5.625000, 3.808594)">
                    <polygon id="Path" fill="#FED940" points="0.0881835937 16.9878516 0.0208007812 20.6041992 3.63714844 20.5368164 3.52107422 18.4965234 5.56130859 18.6125977 5.44529297 16.5723047 7.48552734 16.6883789 7.36951172 14.6480859 9.40974609 14.7641602 12.2174414 11.9564648 8.66853516 8.4075"></polygon>
                    <polygon id="Path" fill="#FBBE2C" points="12.2176758 11.9564063 9.40980469 14.7642188 7.3696875 14.6482031 7.48570312 16.6883203 5.44558594 16.5723047 5.56160156 18.6124219 3.52107422 18.4968164 3.63708984 20.5369336 0.0209179687 20.604082 10.4431055 10.1818359"></polygon>
                    <path d="M18.5925,2.0325 C15.9407227,-0.619277344 11.6412891,-0.619277344 8.98951172,2.0325 C6.33773438,4.68427734 6.33773438,8.98371094 8.98951172,11.6354883 C11.6412891,14.2872656 15.9407227,14.2872656 18.5925,11.6354883 C21.2442773,8.98371094 21.2442773,4.68427734 18.5925,2.0325 Z M14.4948047,6.13019531 C13.8022852,5.43767578 13.8022852,4.31484375 14.4948047,3.62232422 C15.1873242,2.92980469 16.3101562,2.92980469 17.0026758,3.62232422 C17.6951953,4.31484375 17.6951953,5.43767578 17.0026758,6.13019531 C16.3101562,6.82271484 15.1873242,6.82271484 14.4948047,6.13019531 Z" id="Shape" fill="#FFE780"></path>
                    <path d="M18.5923828,2.03255859 L17.0026172,3.62232422 C17.6949609,4.31466797 17.6949609,5.43744141 17.0026172,6.12978516 C16.3098633,6.82253906 15.1870898,6.82253906 14.4947461,6.13019531 L8.9896875,11.6352539 C9.61652344,12.2620898 10.3354102,12.7406836 11.1031055,13.0708594 C13.5819727,14.1385547 16.5675586,13.6604297 18.5923828,11.6356641 C21.2444531,8.98365234 21.244043,4.68421875 18.5923828,2.03255859 Z" id="Path" fill="#FED940"></path>
                </g>
            </g>
        </g>
    </g>
</svg>