<?xml version="1.0" encoding="UTF-8"?>
<svg width="29px" height="30px" viewBox="0 0 29 30" version="1.1" xmlns="http://www.w3.org/2000/svg" xmlns:xlink="http://www.w3.org/1999/xlink">
    <title>BD34A08D-9E89-4B65-B9DC-DA5818E305B5</title>
    <g id="Page-2" stroke="none" stroke-width="1" fill="none" fill-rule="evenodd">
        <g id="dashboard" transform="translate(-813.000000, -719.000000)" fill-rule="nonzero">
            <g id="leader" transform="translate(813.000000, 719.000000)">
                <path d="M25.7422555,30 L20.6355131,30 C20.188668,30 19.8135936,29.6620313 19.7653964,29.215957 L18.5777384,18.2308008 C18.5508974,17.9826563 18.6304286,17.7347461 18.7964346,17.5489453 C18.9624406,17.3632031 19.1992837,17.2570313 19.4479135,17.2570313 L26.9299135,17.2570313 C27.1784849,17.2570313 27.415328,17.3632031 27.581334,17.5489453 C27.74734,17.7347461 27.8268712,17.9826563 27.8000302,18.2308008 L26.6123722,29.215957 C26.5641751,29.6620313 26.1891006,30 25.7422555,30 L25.7422555,30 Z" id="Path" fill="#007A9F"></path>
                <path d="M27.581334,17.5488867 C27.415328,17.3631445 27.1784849,17.2569727 26.9299135,17.2569727 L23.1889135,17.2569727 L23.1889135,30 L25.7422555,30 C26.1891006,30 26.5641751,29.6620313 26.6123722,29.215957 L27.8000302,18.2308008 C27.8268712,17.9825977 27.74734,17.7346875 27.581334,17.5488867 L27.581334,17.5488867 Z" id="Path" fill="#00607F"></path>
                <path d="M26.1154044,22.0898438 L20.2624225,22.0898438 C18.704008,22.0898438 17.4361771,20.825918 17.4361771,19.2723047 L17.4361771,12.8748047 C17.4361771,11.3211914 18.7040664,10.0572656 20.2624225,10.0572656 L26.1154628,10.0572656 C27.6738773,10.0572656 28.9417082,11.3211914 28.9417082,12.8748047 L28.9417082,19.2723047 C28.9417082,20.825918 27.6738189,22.0898438 26.1154044,22.0898438 Z" id="Path" fill="#7DD5F4"></path>
                <path d="M26.1154044,10.0572656 L23.1889135,10.0572656 L23.1889135,22.0898438 L26.1154044,22.0898438 C27.6738189,22.0898438 28.9416499,20.825918 28.9416499,19.2723047 L28.9416499,12.8748047 C28.9416499,11.3211914 27.6738189,10.0572656 26.1154044,10.0572656 Z" id="Path" fill="#4793FF"></path>
                <path d="M23.1889135,11.484375 C20.9990926,11.484375 19.2175473,9.69539062 19.2175473,7.49642578 C19.2175473,5.29746094 20.9990926,3.50847656 23.1889135,3.50847656 C25.3787344,3.50847656 27.1602797,5.29746094 27.1602797,7.49642578 C27.1602797,9.69539063 25.3787344,11.484375 23.1889135,11.484375 L23.1889135,11.484375 Z" id="Path" fill="#FFE4C1"></path>
                <path d="M23.1889135,3.50847656 L23.1889135,11.484375 C25.3787344,11.484375 27.1602797,9.69539062 27.1602797,7.49642578 C27.1602797,5.29746094 25.3787344,3.50847656 23.1889135,3.50847656 L23.1889135,3.50847656 Z" id="Path" fill="#FDD1A3"></path>
                <path d="M8.30613682,30 L3.19939437,30 C2.7525493,30 2.37747485,29.6620313 2.32927767,29.215957 L1.14161972,18.2308008 C1.11477867,17.9826563 1.19430986,17.7347461 1.3603159,17.5489453 C1.52632193,17.3632031 1.76316499,17.2570313 2.01179477,17.2570313 L9.49379477,17.2570313 C9.7423662,17.2570313 9.97920926,17.3632031 10.1452153,17.5489453 C10.3112213,17.7347461 10.3907525,17.9826563 10.3639115,18.2308008 L9.17625352,29.215957 C9.12805634,29.6620313 8.75292354,30 8.30613682,30 Z" id="Path" fill="#007A9F"></path>
                <path d="M10.1451569,17.5488867 C9.97915091,17.3631445 9.74230785,17.2569727 9.49373642,17.2569727 L5.75273642,17.2569727 L5.75273642,30 L8.30607847,30 C8.75292354,30 9.12799799,29.6620313 9.17619517,29.215957 L10.3638531,18.2308008 C10.3906942,17.9825977 10.3112213,17.7346875 10.1451569,17.5488867 L10.1451569,17.5488867 Z" id="Path" fill="#00607F"></path>
                <path d="M8.67928571,22.0898438 L2.82624547,22.0898438 C1.26788934,22.0898438 1.42108547e-14,20.825918 1.42108547e-14,19.2723047 L1.42108547e-14,12.8748047 C1.42108547e-14,11.3211914 1.26788934,10.0572656 2.82624547,10.0572656 L8.67928571,10.0572656 C10.2377002,10.0572656 11.5055312,11.3211914 11.5055312,12.8748047 L11.5055312,19.2723047 C11.5055312,20.825918 10.2376419,22.0898438 8.67928571,22.0898438 Z" id="Path" fill="#7DD5F4"></path>
                <path d="M8.67928571,10.0572656 L5.75273642,10.0572656 L5.75273642,22.0898438 L8.67922736,22.0898438 C10.2376419,22.0898438 11.5054728,20.825918 11.5054728,19.2723047 L11.5054728,12.8748047 C11.5054728,11.3211914 10.2376419,10.0572656 8.67928571,10.0572656 Z" id="Path" fill="#4793FF"></path>
                <path d="M5.75273642,11.484375 C3.56291549,11.484375 1.78137022,9.69539062 1.78137022,7.49642578 C1.78137022,5.29746094 3.56291549,3.50847656 5.75273642,3.50847656 C7.94255734,3.50847656 9.72410262,5.29746094 9.72410262,7.49642578 C9.72410262,9.69539063 7.94255734,11.484375 5.75273642,11.484375 Z" id="Path" fill="#FFE4C1"></path>
                <path d="M17.0217746,30 L11.9150322,30 C11.4681871,30 11.0931127,29.6620313 11.0449155,29.215957 L9.85725755,18.2308008 C9.8304165,17.9826563 9.90994769,17.7347461 10.0759537,17.5489453 C10.2419598,17.3632031 10.4788028,17.2570313 10.7274326,17.2570313 L18.2094326,17.2570313 C18.458004,17.2570313 18.6948471,17.3632031 18.8608531,17.5489453 C19.0269175,17.7347461 19.1063903,17.9826563 19.0795493,18.2308008 L17.8918913,29.215957 C17.8436942,29.6620313 17.4685614,30 17.0217746,30 Z" id="Path" fill="#007A9F"></path>
                <path d="M5.75273642,3.50847656 L5.75273642,11.484375 C7.94255734,11.484375 9.72410262,9.69539062 9.72410262,7.49642578 C9.72410262,5.29746094 7.94255734,3.50847656 5.75273642,3.50847656 Z" id="Path" fill="#FDD1A3"></path>
                <path d="M18.8607948,17.5488867 C18.6947887,17.3631445 18.4579457,17.2569727 18.2093742,17.2569727 L14.4683742,17.2569727 L14.4683742,30 L17.0217746,30 C17.4685614,30 17.8436942,29.6620313 17.8918913,29.215957 L19.0795493,18.2308008 C19.106332,17.9825977 19.0268592,17.7346875 18.8607948,17.5488867 L18.8607948,17.5488867 Z" id="Path" fill="#00607F"></path>
                <path d="M17.675004,20.3966016 L11.2618612,20.3966016 C9.6005171,20.3966016 8.24889537,19.0284961 8.24889537,17.3469141 L8.24889537,10.1832422 C8.24889537,8.50160156 9.6005171,7.13355469 11.2618612,7.13355469 L17.6750624,7.13355469 C19.3364064,7.13355469 20.6880282,8.50166016 20.6880282,10.1832422 L20.6880282,17.3469141 C20.6880282,19.0284961 19.3363481,20.3966016 17.675004,20.3966016 Z" id="Path" fill="#FFF4F4"></path>
                <path d="M17.675004,7.13355469 L14.4683742,7.13355469 L14.4683742,20.3966016 L17.675004,20.3966016 C19.3363481,20.3966016 20.6879698,19.0284961 20.6879698,17.3469141 L20.6879698,10.1832422 C20.6879698,8.50160156 19.3363481,7.13355469 17.675004,7.13355469 Z" id="Path" fill="#F6EFEA"></path>
                <path d="M14.4684326,15.2302148 C14.197163,15.2302148 13.9412394,15.1039453 13.7755252,14.8882617 L12.1722394,12.8020312 C11.9844688,12.5576953 11.9380805,12.2323242 12.0500543,11.9448633 L13.65334,7.82970703 C13.7846278,7.49273437 14.1081207,7.27101562 14.4684326,7.27101562 C14.8287445,7.27101562 15.1522374,7.49273437 15.2835252,7.82970703 L16.8868109,11.9448633 C16.9988431,12.2323242 16.9524547,12.5576367 16.7646258,12.8020312 L15.16134,14.8882617 C14.9956258,15.1038867 14.7397022,15.2302148 14.4684326,15.2302148 Z" id="Path" fill="#FF8856"></path>
                <path d="M16.8867525,11.9448633 L15.2834668,7.82970703 C15.1521791,7.49273437 14.8286861,7.27101563 14.4683742,7.27101563 C14.4683742,7.27101563 14.4683742,7.27101563 14.4683159,7.27101563 L14.4683159,15.2302148 L14.4683742,15.2302148 C14.7395855,15.2302148 14.9955674,15.1038867 15.1612817,14.8882617 L16.7645674,12.8020312 C16.9523964,12.5576953 16.9987847,12.2323242 16.8867525,11.9448633 L16.8867525,11.9448633 Z" id="Path" fill="#FF435B"></path>
                <path d="M14.4684326,7.97589844 C12.2786117,7.97589844 10.4970664,6.18691406 10.4970664,3.98794922 C10.4970664,1.78898437 12.2786117,0 14.4684326,0 C16.6581952,0 18.4397988,1.78898437 18.4397988,3.98794922 C18.4397988,6.18691406 16.6581952,7.97589844 14.4684326,7.97589844 L14.4684326,7.97589844 Z" id="Path" fill="#FFE4C1"></path>
                <path d="M14.4684326,0 L14.4683742,7.97589844 L14.4684326,7.97589844 C16.6581952,7.97589844 18.4397988,6.18691406 18.4397988,3.98794922 C18.4397988,1.78898437 16.6581952,0 14.4684326,0 L14.4684326,0 Z" id="Path" fill="#FDD1A3"></path>
            </g>
        </g>
    </g>
</svg>