<?xml version="1.0" encoding="UTF-8"?>
<svg width="200px" height="44px" viewBox="0 0 200 44" version="1.1" xmlns="http://www.w3.org/2000/svg" xmlns:xlink="http://www.w3.org/1999/xlink">
    <title>3AE19DB3-477F-4D4D-9D8A-28EF87391C2D</title>
    <defs>
        <path d="M17.8311285,24.9245539 L17.9633792,24.8358623 L17.9846554,24.8224486 C17.9981136,24.8140812 18.0162886,24.8029011 18.0385783,24.7892686 C18.1109507,24.7450054 18.2267252,24.674874 18.3652817,24.591211 L18.4172389,24.5598482 C18.5465714,24.4818029 18.6922802,24.3940393 18.83938,24.3055229 C18.9930375,24.2130603 19.1484147,24.119655 19.288176,24.0356789 L19.4707703,23.9259917 L19.4707703,23.9259917 C19.5900752,23.8543396 19.686697,23.7963414 19.7444433,23.7616846 C19.7823304,23.7389465 19.8033291,23.7263483 19.8033291,23.7263483 L19.8033291,23.7263483 L14.1449393,20.5659358 L13.8503174,20.3991396 C6.51400266,16.1890022 1.37758917,8.96995842 0.0967314799,0.676353229 C0.0624967675,0.453093954 0.0301007324,0.228008177 4.32602281e-15,0 L4.32602281e-15,0 L22.9924481,12.4052217 L23.1676952,12.5031008 C25.2490709,13.7053563 26.5487486,15.8977357 26.5825023,18.2883685 L26.5825023,18.2883685 L26.6927925,26.0921782 L26.6922138,26.2733282 C26.6551911,28.0804388 25.6847807,29.7493007 24.112087,30.6897424 L24.112087,30.6897424 L15.4789485,35.8538628 L15.3436851,35.9320001 C15.185304,36.0201644 15.035994,36.0912912 14.8955144,36.1463595 C14.801459,36.183225 14.7114622,36.2128655 14.6253429,36.2356166 L14.6573607,36.2268903 C14.6335359,36.2335811 14.610002,36.2397534 14.5867575,36.2454132 L14.5865871,36.2454547 C14.514005,36.2631279 14.4440881,36.2758224 14.3769616,36.2836807 L14.4176012,36.2783798 C14.3834427,36.2832857 14.3499855,36.2869708 14.317224,36.2894581 L14.3769616,36.2836807 C14.3455047,36.2873633 14.3146606,36.2899838 14.2844247,36.2915611 L14.317224,36.2894581 C14.2545335,36.2942177 14.1943904,36.2945915 14.1367547,36.2907411 L14.1825964,36.2928954 C14.1439575,36.2918305 14.1064001,36.2889329 14.0699133,36.2842479 L14.1367547,36.2907411 C14.1081985,36.2888334 14.0802577,36.2858888 14.0529277,36.2819268 L14.0699133,36.2842479 C14.0479637,36.2814295 14.0264015,36.2779644 14.0052243,36.2738623 L14.0529277,36.2819268 C14.0239164,36.2777211 13.9955933,36.272369 13.9679526,36.2658942 L13.9678351,36.2658666 C13.8607592,36.240784 13.7638286,36.1987871 13.6768238,36.1412744 L13.7055624,36.159486 C13.688183,36.1489374 13.6711822,36.1377937 13.6545572,36.126065 L13.6546435,36.1261258 C13.6103931,36.0949078 13.5688822,36.0596228 13.5299775,36.0204002 L13.5539645,36.0437715 C13.5346359,36.0255773 13.5159192,36.006453 13.497809,35.9864201 L13.4979087,35.9865303 C13.4612191,35.9459453 13.4271054,35.9017617 13.3954242,35.8540467 L13.4178821,35.8867043 C13.4048297,35.86838 13.3921637,35.8494905 13.3798815,35.8300468 L13.3954242,35.8540467 C13.3801616,35.8310597 13.3654635,35.8072532 13.3513252,35.7826469 L13.3798815,35.8300468 C13.3640651,35.8050082 13.3488851,35.7790508 13.3343356,35.7521983 L13.3513252,35.7826469 C13.3372824,35.758207 13.3237918,35.7329781 13.3108485,35.7069797 L13.3343356,35.7521983 C13.3190621,35.7240095 13.3044834,35.6948345 13.2905928,35.6647007 L13.3108485,35.7069797 C13.2976835,35.680536 13.2850848,35.6532963 13.2730473,35.6252809 L13.273056,35.625301 C13.2413751,35.5515685 13.2135882,35.4724868 13.1895949,35.3884084 C13.1765079,35.3425612 13.1645112,35.2950567 13.1536355,35.246117 C13.1426771,35.1967752 13.1329168,35.1463285 13.1242653,35.0945044 C13.1148462,35.0380612 13.106765,34.9801845 13.0999708,34.9207636 C13.0800426,34.7464444 13.071189,34.5589245 13.0729147,34.3601047 C13.0746179,34.1626337 13.086794,33.9536719 13.1089614,33.7354733 C13.1251364,33.5762424 13.1466468,33.4120011 13.1732974,33.2435933 C13.1870082,33.1569679 13.2020321,33.0694936 13.218383,32.9810256 C13.2566805,32.7738087 13.3022693,32.5610966 13.3548181,32.3442453 L13.3548743,32.3440133 C13.376155,32.2561953 13.3986394,32.1674629 13.4222496,32.0781361 C13.4994404,31.7860949 13.5886565,31.4877265 13.6891481,31.1860815 C13.7178389,31.0999673 13.7473262,31.0139334 13.7777077,30.9277053 C13.8503342,30.7215733 13.9281214,30.5142044 14.0107869,30.3066923 C14.0748992,30.1457474 14.1420317,29.9845193 14.2119945,29.8236577 L14.2618788,29.7101071 C14.3434494,29.5262725 14.4286912,29.3430574 14.5174373,29.1611405 L14.51744,29.161135 C14.581497,29.0298271 14.6473827,28.8991901 14.7150315,28.7694848 C14.76448,28.6746777 14.8147946,28.5805073 14.8660239,28.4869325 C14.9231797,28.3825346 14.9814096,28.2789899 15.0407419,28.1763224 C15.2344142,27.8412 15.4397806,27.5154996 15.6557126,27.2039163 C15.7095212,27.1262691 15.7641294,27.0493009 15.8193788,26.9732882 C15.8791914,26.8909994 15.9396787,26.8099309 16.0008926,26.7300737 L16.0958054,26.6079721 C16.1939815,26.4834374 16.2939521,26.3620659 16.3956251,26.2442322 C16.5327751,26.0852722 16.6732428,25.9325255 16.8165907,25.7871595 L16.9289605,25.6753084 C16.9815249,25.6239647 17.034461,25.5736249 17.0877579,25.5243331 L17.1875241,25.4336725 L17.1875241,25.4336725 L17.3073815,25.3289796 C17.3334907,25.3066729 17.3596799,25.2846228 17.3859481,25.2628341 L17.4413127,25.2173944 L17.4413127,25.2173944 L17.5661451,25.1184722 L17.5661451,25.1184722 L17.7000133,25.01779 C17.7435256,24.9859678 17.7872324,24.9548822 17.8311285,24.9245539" id="path-1"></path>
        <linearGradient x1="86.6320381%" y1="86.1873077%" x2="86.6320381%" y2="1803.98195%" id="linearGradient-3">
            <stop stop-color="#1C75BC" offset="0%"></stop>
            <stop stop-color="#26CCE1" offset="100%"></stop>
        </linearGradient>
        <path d="M17.8311285,24.9245539 L17.9633792,24.8358623 L17.9846554,24.8224486 C17.9981136,24.8140812 18.0162886,24.8029011 18.0385783,24.7892686 C18.1109507,24.7450054 18.2267252,24.674874 18.3652817,24.591211 L18.4172389,24.5598482 C18.5465714,24.4818029 18.6922802,24.3940393 18.83938,24.3055229 C18.9930375,24.2130603 19.1484147,24.119655 19.288176,24.0356789 L19.4707703,23.9259917 L19.4707703,23.9259917 C19.5900752,23.8543396 19.686697,23.7963414 19.7444433,23.7616846 C19.7823304,23.7389465 19.8033291,23.7263483 19.8033291,23.7263483 L19.8033291,23.7263483 L14.1449393,20.5659358 L13.8503174,20.3991396 C6.51400266,16.1890022 1.37758917,8.96995842 0.0967314799,0.676353229 C0.0624967675,0.453093954 0.0301007324,0.228008177 4.32602281e-15,0 L4.32602281e-15,0 L22.9924481,12.4052217 L23.1676952,12.5031008 C25.2490709,13.7053563 26.5487486,15.8977357 26.5825023,18.2883685 L26.5825023,18.2883685 L26.6927925,26.0921782 L26.6922138,26.2733282 C26.6551911,28.0804388 25.6847807,29.7493007 24.112087,30.6897424 L24.112087,30.6897424 L15.4789485,35.8538628 L15.3436851,35.9320001 C15.185304,36.0201644 15.035994,36.0912912 14.8955144,36.1463595 C14.801459,36.183225 14.7114622,36.2128655 14.6253429,36.2356166 L14.6573607,36.2268903 C14.6335359,36.2335811 14.610002,36.2397534 14.5867575,36.2454132 L14.5865871,36.2454547 C14.514005,36.2631279 14.4440881,36.2758224 14.3769616,36.2836807 L14.4176012,36.2783798 C14.3834427,36.2832857 14.3499855,36.2869708 14.317224,36.2894581 L14.3769616,36.2836807 C14.3455047,36.2873633 14.3146606,36.2899838 14.2844247,36.2915611 L14.317224,36.2894581 C14.2545335,36.2942177 14.1943904,36.2945915 14.1367547,36.2907411 L14.1825964,36.2928954 C14.1439575,36.2918305 14.1064001,36.2889329 14.0699133,36.2842479 L14.1367547,36.2907411 C14.1081985,36.2888334 14.0802577,36.2858888 14.0529277,36.2819268 L14.0699133,36.2842479 C14.0479637,36.2814295 14.0264015,36.2779644 14.0052243,36.2738623 L14.0529277,36.2819268 C14.0239164,36.2777211 13.9955933,36.272369 13.9679526,36.2658942 L13.9678351,36.2658666 C13.8607592,36.240784 13.7638286,36.1987871 13.6768238,36.1412744 L13.7055624,36.159486 C13.688183,36.1489374 13.6711822,36.1377937 13.6545572,36.126065 L13.6546435,36.1261258 C13.6103931,36.0949078 13.5688822,36.0596228 13.5299775,36.0204002 L13.5539645,36.0437715 C13.5346359,36.0255773 13.5159192,36.006453 13.497809,35.9864201 L13.4979087,35.9865303 C13.4612191,35.9459453 13.4271054,35.9017617 13.3954242,35.8540467 L13.4178821,35.8867043 C13.4048297,35.86838 13.3921637,35.8494905 13.3798815,35.8300468 L13.3954242,35.8540467 C13.3801616,35.8310597 13.3654635,35.8072532 13.3513252,35.7826469 L13.3798815,35.8300468 C13.3640651,35.8050082 13.3488851,35.7790508 13.3343356,35.7521983 L13.3513252,35.7826469 C13.3372824,35.758207 13.3237918,35.7329781 13.3108485,35.7069797 L13.3343356,35.7521983 C13.3190621,35.7240095 13.3044834,35.6948345 13.2905928,35.6647007 L13.3108485,35.7069797 C13.2976835,35.680536 13.2850848,35.6532963 13.2730473,35.6252809 L13.273056,35.625301 C13.2413751,35.5515685 13.2135882,35.4724868 13.1895949,35.3884084 C13.1765079,35.3425612 13.1645112,35.2950567 13.1536355,35.246117 C13.1426771,35.1967752 13.1329168,35.1463285 13.1242653,35.0945044 C13.1148462,35.0380612 13.106765,34.9801845 13.0999708,34.9207636 C13.0800426,34.7464444 13.071189,34.5589245 13.0729147,34.3601047 C13.0746179,34.1626337 13.086794,33.9536719 13.1089614,33.7354733 C13.1251364,33.5762424 13.1466468,33.4120011 13.1732974,33.2435933 C13.1870082,33.1569679 13.2020321,33.0694936 13.218383,32.9810256 C13.2566805,32.7738087 13.3022693,32.5610966 13.3548181,32.3442453 L13.3548743,32.3440133 C13.376155,32.2561953 13.3986394,32.1674629 13.4222496,32.0781361 C13.4994404,31.7860949 13.5886565,31.4877265 13.6891481,31.1860815 C13.7178389,31.0999673 13.7473262,31.0139334 13.7777077,30.9277053 C13.8503342,30.7215733 13.9281214,30.5142044 14.0107869,30.3066923 C14.0748992,30.1457474 14.1420317,29.9845193 14.2119945,29.8236577 L14.2618788,29.7101071 C14.3434494,29.5262725 14.4286912,29.3430574 14.5174373,29.1611405 L14.51744,29.161135 C14.581497,29.0298271 14.6473827,28.8991901 14.7150315,28.7694848 C14.76448,28.6746777 14.8147946,28.5805073 14.8660239,28.4869325 C14.9231797,28.3825346 14.9814096,28.2789899 15.0407419,28.1763224 C15.2344142,27.8412 15.4397806,27.5154996 15.6557126,27.2039163 C15.7095212,27.1262691 15.7641294,27.0493009 15.8193788,26.9732882 C15.8791914,26.8909994 15.9396787,26.8099309 16.0008926,26.7300737 L16.0958054,26.6079721 C16.1939815,26.4834374 16.2939521,26.3620659 16.3956251,26.2442322 C16.5327751,26.0852722 16.6732428,25.9325255 16.8165907,25.7871595 L16.9289605,25.6753084 C16.9815249,25.6239647 17.034461,25.5736249 17.0877579,25.5243331 L17.1875241,25.4336725 L17.1875241,25.4336725 L17.3073815,25.3289796 C17.3334907,25.3066729 17.3596799,25.2846228 17.3859481,25.2628341 L17.4413127,25.2173944 L17.4413127,25.2173944 L17.5661451,25.1184722 L17.5661451,25.1184722 L17.7000133,25.01779 C17.7435256,24.9859678 17.7872324,24.9548822 17.8311285,24.9245539" id="path-4"></path>
        <linearGradient x1="69.8158048%" y1="86.1873077%" x2="28.7900438%" y2="-4.7472262%" id="linearGradient-6">
            <stop stop-color="#1C75BC" offset="0%"></stop>
            <stop stop-color="#26CCE1" offset="100%"></stop>
        </linearGradient>
        <path d="M6.58513863,0 L6.59144378,0.0026862288 C6.85873436,0.147480509 7.7498285,0.656675133 8.38737416,1.02212824 L8.41955422,1.0404966 L8.43582871,1.04825408 C9.82486572,1.71865217 14.7658073,4.47598203 9.46422081,7.59311408 L9.27510544,7.70199447 L2.4656123,11.5416765 L2.32697022,11.6171862 C2.21868497,11.6740176 2.11453794,11.7235222 2.01445586,11.7659809 C1.9264018,11.8033336 1.84158971,11.8352012 1.75986731,11.8618178 C1.72683634,11.8725772 1.69421729,11.882505 1.66210257,11.8915827 C1.62311261,11.9026011 1.5850115,11.9123334 1.54764225,11.9208447 C1.5090539,11.9296337 1.47124493,11.9371209 1.43420993,11.9433309 C1.3675029,11.9545184 1.30325312,11.9615648 1.24148075,11.9646052 L1.27566945,11.9625308 C1.21095662,11.9671896 1.14889178,11.9675504 1.08943334,11.9637724 L1.13650006,11.9658813 C1.09978745,11.9649108 1.06402843,11.9624173 1.02921387,11.9584356 L1.08943334,11.9637724 C1.06037641,11.9619261 1.03194193,11.9590914 1.00412507,11.9552869 L1.02921387,11.9584356 C1.00254932,11.9553861 0.976438793,11.9514637 0.950878174,11.9466841 L1.00412507,11.9552869 C0.97419762,11.9511937 0.944985057,11.945978 0.91648133,11.9396629 L0.950878174,11.9466841 C0.918721476,11.9406712 0.887435121,11.9333016 0.857010925,11.9246068 L0.91648133,11.9396629 C0.890691009,11.933949 0.865480991,11.927335 0.840846798,11.9198382 L0.857010925,11.9246068 C0.836297166,11.9186871 0.815983046,11.9121532 0.79606598,11.9050148 L0.840846798,11.9198382 C0.81263585,11.9112528 0.78518008,11.9015096 0.758472759,11.8906344 L0.758874733,11.890798 C0.709395468,11.87065 0.662845514,11.8468429 0.618781154,11.819373 L0.649003417,11.8374147 C0.626679892,11.8246653 0.604965259,11.8110133 0.583854483,11.7964778 L0.618781154,11.819373 C0.597011599,11.8058018 0.575848717,11.7913365 0.555287474,11.7759966 L0.583854483,11.7964778 C0.563778385,11.7826548 0.544248403,11.7680328 0.52526021,11.7526285 L0.555287474,11.7759966 C0.533842986,11.7599977 0.513052936,11.7430473 0.492911614,11.7251674 L0.52526021,11.7526285 C0.505373078,11.7364949 0.486080247,11.7195032 0.467376744,11.7016723 L0.492911614,11.7251674 C0.473188209,11.7076584 0.45408689,11.6892581 0.435602294,11.6699868 L0.467376744,11.7016723 C0.448203142,11.6833933 0.429648866,11.6642324 0.411708558,11.6442102 L0.435602294,11.6699868 C0.417207732,11.6508095 0.399423899,11.6307697 0.382245513,11.6098878 L0.38230196,11.6099564 C0.347754568,11.5679609 0.315704358,11.522639 0.28605211,11.4740861 L0.304627571,11.5035938 C0.291369567,11.4831616 0.278562208,11.4621181 0.266202027,11.4404765 L0.266109543,11.4403146 C0.20862059,11.3396567 0.160744179,11.2258584 0.122222412,11.1004243 L0.122210182,11.1003845 C0.102613928,11.0365754 0.0854292791,10.9697116 0.0706222517,10.90001 L0.0826460229,10.9537616 C0.0751413886,10.9218571 0.0681594811,10.8893217 0.0616955725,10.8561736 L0.0616628176,10.8560056 C0.047872039,10.7852841 0.0364175683,10.7115923 0.027285918,10.6352756 L0.0342508853,10.6896809 C0.0299064563,10.6578639 0.0259815104,10.6255675 0.022472524,10.5928051 L0.0224700494,10.592782 C0.0142364699,10.5159076 0.00829194846,10.4364432 0.00459339768,10.3545865 L0.00741469522,10.4091854 C0.00502818067,10.368223 0.00322185027,10.3266353 0.0019897625,10.2844452 L0.00459339768,10.3545865 C0.00273700946,10.3135007 0.00144644153,10.2718123 0.000715932631,10.2295433 L0.000718004732,10.2296631 C-0.000289667473,10.1713568 -0.000233979184,10.1120701 0.000867969012,10.0517408 C0.00280191959,9.94588069 0.00795584318,9.83682947 0.0162489153,9.72488017 C0.0234343391,9.62790477 0.0329621978,9.52886576 0.0447877817,9.42785845 L0.044804602,9.4277148 C0.0532509381,9.35557106 0.0628909352,9.28227556 0.0736885018,9.20804579 C0.087352382,9.11410545 0.102883183,9.01859654 0.120231578,8.92173905 L0.120252387,8.92162288 C0.133242853,8.84909605 0.147276521,8.77569448 0.162316067,8.70159763 C0.188854787,8.57086327 0.218462878,8.43821911 0.251100111,8.30376461 C0.30779883,8.07018189 0.373650059,7.83110192 0.448172946,7.58836959 C0.472417259,7.50940064 0.49760266,7.429974 0.5236912,7.35022268 C0.552140341,7.26325879 0.581605029,7.1760761 0.612118424,7.08858956 C0.640943761,7.00594301 0.670703648,6.92302891 0.701381586,6.8399117 C0.749606789,6.70925255 0.800104735,6.57808122 0.852802701,6.44667219 C0.887018525,6.36135116 0.922150727,6.27595617 0.958190942,6.19053331 C1.01788514,6.0490568 1.07988249,5.90791465 1.14427104,5.76702231 C1.25314706,5.52878682 1.36883119,5.29132118 1.4909386,5.05614207 L1.49084943,5.05631382 C1.54675499,4.94863959 1.60391352,4.84161487 1.662375,4.7352181 L1.66253107,4.73493407 C1.69084874,4.6833974 1.71963157,4.63172566 1.74871895,4.58022024 L1.74857153,4.58048129 C1.89446457,4.32214653 2.0478564,4.06824839 2.2083248,3.82070878 L2.247251,3.76099811 L2.247251,3.76099811 L2.32696559,3.64079307 C2.35265017,3.60250435 2.37850516,3.56438489 2.40452836,3.52644309 C2.63021376,3.1973902 2.86859429,2.8816465 3.11819975,2.58475308 L3.21806614,2.4676738 C3.35831974,2.30562774 3.50197655,2.14961928 3.6487915,2.00058764 C3.69263831,1.9560804 3.7366494,1.91230984 3.78093419,1.86918311 C3.83098168,1.82044347 3.88143763,1.77247149 3.9322346,1.72535967 L3.96514342,1.69500265 L3.96514342,1.69500265 L4.08291741,1.58904013 C4.1264011,1.55068645 4.17012173,1.51297219 4.21407362,1.47591907 C4.29099173,1.4110716 4.36873379,1.34815922 4.4471558,1.28739442 C4.51892094,1.23178168 4.59154719,1.17775932 4.66472384,1.12564039 C4.78012892,1.04343582 4.89718487,0.965791829 5.01552303,0.893262371 C5.02350977,0.888364576 5.03905654,0.879217122 5.06110325,0.86641779 L5.07376697,0.859077759 C5.14578482,0.817396432 5.27286019,0.744785393 5.42765156,0.656662162 L5.48601384,0.623448164 C5.56785363,0.57688868 5.65596989,0.52682 5.74678476,0.475259634 L6.05738732,0.299047323 L6.07699106,0.287933202 C6.13132578,0.257129799 6.1851161,0.226643805 6.23762893,0.196888607 C6.34685846,0.134996073 6.4511154,0.0759514824 6.54309488,0.0238756058 L6.58513863,0 Z" id="path-7"></path>
        <linearGradient x1="-10.6511167%" y1="75.9963252%" x2="-10.6511167%" y2="5209.26078%" id="linearGradient-9">
            <stop stop-color="#26AAE1" offset="0%"></stop>
            <stop stop-color="#2A3991" offset="100%"></stop>
        </linearGradient>
        <path d="M6.58513863,0 L6.59144378,0.0026862288 C6.85873436,0.147480509 7.7498285,0.656675133 8.38737416,1.02212824 L8.41955422,1.0404966 L8.43582871,1.04825408 C9.82486572,1.71865217 14.7658073,4.47598203 9.46422081,7.59311408 L9.27510544,7.70199447 L2.4656123,11.5416765 L2.32697022,11.6171862 C2.21868497,11.6740176 2.11453794,11.7235222 2.01445586,11.7659809 C1.9264018,11.8033336 1.84158971,11.8352012 1.75986731,11.8618178 C1.72683634,11.8725772 1.69421729,11.882505 1.66210257,11.8915827 C1.62311261,11.9026011 1.5850115,11.9123334 1.54764225,11.9208447 C1.5090539,11.9296337 1.47124493,11.9371209 1.43420993,11.9433309 C1.3675029,11.9545184 1.30325312,11.9615648 1.24148075,11.9646052 L1.27566945,11.9625308 C1.21095662,11.9671896 1.14889178,11.9675504 1.08943334,11.9637724 L1.13650006,11.9658813 C1.09978745,11.9649108 1.06402843,11.9624173 1.02921387,11.9584356 L1.08943334,11.9637724 C1.06037641,11.9619261 1.03194193,11.9590914 1.00412507,11.9552869 L1.02921387,11.9584356 C1.00254932,11.9553861 0.976438793,11.9514637 0.950878174,11.9466841 L1.00412507,11.9552869 C0.97419762,11.9511937 0.944985057,11.945978 0.91648133,11.9396629 L0.950878174,11.9466841 C0.918721476,11.9406712 0.887435121,11.9333016 0.857010925,11.9246068 L0.91648133,11.9396629 C0.890691009,11.933949 0.865480991,11.927335 0.840846798,11.9198382 L0.857010925,11.9246068 C0.836297166,11.9186871 0.815983046,11.9121532 0.79606598,11.9050148 L0.840846798,11.9198382 C0.81263585,11.9112528 0.78518008,11.9015096 0.758472759,11.8906344 L0.758874733,11.890798 C0.709395468,11.87065 0.662845514,11.8468429 0.618781154,11.819373 L0.649003417,11.8374147 C0.626679892,11.8246653 0.604965259,11.8110133 0.583854483,11.7964778 L0.618781154,11.819373 C0.597011599,11.8058018 0.575848717,11.7913365 0.555287474,11.7759966 L0.583854483,11.7964778 C0.563778385,11.7826548 0.544248403,11.7680328 0.52526021,11.7526285 L0.555287474,11.7759966 C0.533842986,11.7599977 0.513052936,11.7430473 0.492911614,11.7251674 L0.52526021,11.7526285 C0.505373078,11.7364949 0.486080247,11.7195032 0.467376744,11.7016723 L0.492911614,11.7251674 C0.473188209,11.7076584 0.45408689,11.6892581 0.435602294,11.6699868 L0.467376744,11.7016723 C0.448203142,11.6833933 0.429648866,11.6642324 0.411708558,11.6442102 L0.435602294,11.6699868 C0.417207732,11.6508095 0.399423899,11.6307697 0.382245513,11.6098878 L0.38230196,11.6099564 C0.347754568,11.5679609 0.315704358,11.522639 0.28605211,11.4740861 L0.304627571,11.5035938 C0.291369567,11.4831616 0.278562208,11.4621181 0.266202027,11.4404765 L0.266109543,11.4403146 C0.20862059,11.3396567 0.160744179,11.2258584 0.122222412,11.1004243 L0.122210182,11.1003845 C0.102613928,11.0365754 0.0854292791,10.9697116 0.0706222517,10.90001 L0.0826460229,10.9537616 C0.0751413886,10.9218571 0.0681594811,10.8893217 0.0616955725,10.8561736 L0.0616628176,10.8560056 C0.047872039,10.7852841 0.0364175683,10.7115923 0.027285918,10.6352756 L0.0342508853,10.6896809 C0.0299064563,10.6578639 0.0259815104,10.6255675 0.022472524,10.5928051 L0.0224700494,10.592782 C0.0142364699,10.5159076 0.00829194846,10.4364432 0.00459339768,10.3545865 L0.00741469522,10.4091854 C0.00502818067,10.368223 0.00322185027,10.3266353 0.0019897625,10.2844452 L0.00459339768,10.3545865 C0.00273700946,10.3135007 0.00144644153,10.2718123 0.000715932631,10.2295433 L0.000718004732,10.2296631 C-0.000289667473,10.1713568 -0.000233979184,10.1120701 0.000867969012,10.0517408 C0.00280191959,9.94588069 0.00795584318,9.83682947 0.0162489153,9.72488017 C0.0234343391,9.62790477 0.0329621978,9.52886576 0.0447877817,9.42785845 L0.044804602,9.4277148 C0.0532509381,9.35557106 0.0628909352,9.28227556 0.0736885018,9.20804579 C0.087352382,9.11410545 0.102883183,9.01859654 0.120231578,8.92173905 L0.120252387,8.92162288 C0.133242853,8.84909605 0.147276521,8.77569448 0.162316067,8.70159763 C0.188854787,8.57086327 0.218462878,8.43821911 0.251100111,8.30376461 C0.30779883,8.07018189 0.373650059,7.83110192 0.448172946,7.58836959 C0.472417259,7.50940064 0.49760266,7.429974 0.5236912,7.35022268 C0.552140341,7.26325879 0.581605029,7.1760761 0.612118424,7.08858956 C0.640943761,7.00594301 0.670703648,6.92302891 0.701381586,6.8399117 C0.749606789,6.70925255 0.800104735,6.57808122 0.852802701,6.44667219 C0.887018525,6.36135116 0.922150727,6.27595617 0.958190942,6.19053331 C1.01788514,6.0490568 1.07988249,5.90791465 1.14427104,5.76702231 C1.25314706,5.52878682 1.36883119,5.29132118 1.4909386,5.05614207 L1.49084943,5.05631382 C1.54675499,4.94863959 1.60391352,4.84161487 1.662375,4.7352181 L1.66253107,4.73493407 C1.69084874,4.6833974 1.71963157,4.63172566 1.74871895,4.58022024 L1.74857153,4.58048129 C1.89446457,4.32214653 2.0478564,4.06824839 2.2083248,3.82070878 L2.247251,3.76099811 L2.247251,3.76099811 L2.32696559,3.64079307 C2.35265017,3.60250435 2.37850516,3.56438489 2.40452836,3.52644309 C2.63021376,3.1973902 2.86859429,2.8816465 3.11819975,2.58475308 L3.21806614,2.4676738 C3.35831974,2.30562774 3.50197655,2.14961928 3.6487915,2.00058764 C3.69263831,1.9560804 3.7366494,1.91230984 3.78093419,1.86918311 C3.83098168,1.82044347 3.88143763,1.77247149 3.9322346,1.72535967 L3.96514342,1.69500265 L3.96514342,1.69500265 L4.08291741,1.58904013 C4.1264011,1.55068645 4.17012173,1.51297219 4.21407362,1.47591907 C4.29099173,1.4110716 4.36873379,1.34815922 4.4471558,1.28739442 C4.51892094,1.23178168 4.59154719,1.17775932 4.66472384,1.12564039 C4.78012892,1.04343582 4.89718487,0.965791829 5.01552303,0.893262371 C5.02350977,0.888364576 5.03905654,0.879217122 5.06110325,0.86641779 L5.07376697,0.859077759 C5.14578482,0.817396432 5.27286019,0.744785393 5.42765156,0.656662162 L5.48601384,0.623448164 C5.56785363,0.57688868 5.65596989,0.52682 5.74678476,0.475259634 L6.05738732,0.299047323 L6.07699106,0.287933202 C6.13132578,0.257129799 6.1851161,0.226643805 6.23762893,0.196888607 C6.34685846,0.134996073 6.4511154,0.0759514824 6.54309488,0.0238756058 L6.58513863,0 Z" id="path-10"></path>
        <linearGradient x1="-7.86079836%" y1="75.9963252%" x2="89.346033%" y2="18.6449588%" id="linearGradient-12">
            <stop stop-color="#26AAE1" offset="0%"></stop>
            <stop stop-color="#2A3991" offset="100%"></stop>
        </linearGradient>
        <path d="M-4.32602281e-15,8.65204562e-15 L22.9924481,12.2637775 C25.1758897,13.428604 26.5475796,15.6505909 26.5825023,18.0793924 L26.6925612,25.7944342 C26.6940826,25.9001523 26.6921051,26.0054282 26.6868373,26.1101562 L26.571245,23.5706513 C26.5365537,21.1418558 25.1646324,18.9191931 22.9811908,17.7548172 L22.9811908,17.7548172 L1.67727564,6.39183939 C0.942261297,4.56308595 0.405994588,2.64726931 0.0967314799,0.668438393 C0.0622654107,0.447736218 0.0301007324,0.225207543 -4.32602281e-15,8.65204562e-15 L-4.32602281e-15,8.65204562e-15 Z" id="path-13"></path>
        <linearGradient x1="49.8941701%" y1="99.9027532%" x2="49.8941701%" y2="2473.69989%" id="linearGradient-15">
            <stop stop-color="#FFFFFF" offset="0%"></stop>
            <stop stop-color="#28ABE1" offset="100%"></stop>
        </linearGradient>
        <path d="M-4.32602281e-15,8.65204562e-15 L22.9924481,12.2637775 C25.1758897,13.428604 26.5475796,15.6505909 26.5825023,18.0793924 L26.6925612,25.7944342 C26.6940826,25.9001523 26.6921051,26.0054282 26.6868373,26.1101562 L26.571245,23.5706513 C26.5365537,21.1418558 25.1646324,18.9191931 22.9811908,17.7548172 L22.9811908,17.7548172 L1.67727564,6.39183939 C0.942261297,4.56308595 0.405994588,2.64726931 0.0967314799,0.668438393 C0.0622654107,0.447736218 0.0301007324,0.225207543 -4.32602281e-15,8.65204562e-15 L-4.32602281e-15,8.65204562e-15 Z" id="path-16"></path>
        <linearGradient x1="49.8941701%" y1="98.2220856%" x2="50.0989877%" y2="1.778071%" id="linearGradient-18">
            <stop stop-color="#FFFFFF" offset="0%"></stop>
            <stop stop-color="#28ABE1" offset="100%"></stop>
        </linearGradient>
        <path d="M0,0 C0,0 0.00103059304,0.00124210478 0.00307667168,0.00370808155 L0.027418111,0.0330445438 C0.112084388,0.135084014 0.389863721,0.469855142 0.819301267,0.987327159 C0.955393838,1.13977909 1.10591577,1.30784151 1.27019124,1.49128307 C1.43446063,1.67427409 1.60789906,1.87581019 1.80928903,2.07667047 C2.00747045,2.28046534 2.21824864,2.49670476 2.4402598,2.72516348 C2.6691447,2.94705897 2.90970703,3.18026049 3.16081435,3.42319118 C3.4165001,3.66137297 3.68914187,3.90317123 3.96751276,4.15650688 C4.25482133,4.40102054 4.54991079,4.65548254 4.86036113,4.90859292 C5.4830822,5.4120983 6.15941717,5.91876961 6.87286663,6.42295079 C7.58815477,6.92170117 8.35453013,7.41095375 9.15343547,7.84275679 C9.96449313,8.28722358 10.7883728,8.73870412 11.6120273,9.19018467 C13.2487972,10.1064853 14.8787239,10.8982247 16.4130758,11.7575263 C16.7977551,11.9762559 17.7728326,12.4871281 18.1453657,12.7144483 C18.504614,12.9478812 18.8512595,13.186063 19.1600964,13.4559102 C19.4755879,13.7164788 19.7509755,14.0107585 19.9839822,14.3206365 C20.2197347,14.6280366 20.3915719,14.9720702 20.4898559,15.320183 C20.587458,15.6691968 20.6044141,16.0243173 20.548511,16.3482229 C20.4937525,16.672585 20.3789691,16.9650504 20.2408126,17.2186113 C19.9578632,17.7252827 19.6080092,18.0928416 19.3067279,18.3715108 C19.0027008,18.6490476 18.7373893,18.8356612 18.5545566,18.9573487 C18.3712734,19.0788171 18.2681735,19.1353656 18.2681735,19.1353656 C18.2681735,19.1353656 18.3678334,19.0736116 18.5433358,18.9419696 C18.7192887,18.8114539 18.9685635,18.6076591 19.2590745,18.322658 C19.5447757,18.035392 19.8726326,17.658104 20.1232833,17.1593475 C20.3702628,16.6651207 20.5013142,16.0186612 20.2978664,15.3751485 C20.1986569,15.0559918 20.0323236,14.7400011 19.8011495,14.4547687 C19.5731839,14.1684099 19.3044387,13.8947209 18.9930751,13.6511083 C18.6899612,13.3989051 18.3467556,13.1758833 17.9914038,12.9580609 C17.6351388,12.7565187 16.6442499,12.2341151 16.2623225,12.0226246 C14.7201775,11.1768939 13.0826891,10.3985002 11.4379008,9.49644622 C10.6204383,9.03954097 9.80296958,8.5828549 8.99856038,8.13318868 C8.1769699,7.67967463 7.41448499,7.18272639 6.69347381,6.67176281 C5.97338198,6.1610184 5.30712321,5.62811245 4.69265183,5.10424768 C4.38632938,4.84141422 4.09604362,4.57722307 3.81331957,4.32411268 C3.53953319,4.06127922 3.27170121,3.8111095 3.02082524,3.56456234 C2.77544704,3.31303492 2.54015113,3.0716872 2.31653873,2.84232741 C2.10323997,2.60324455 1.90093066,2.3770507 1.71077367,2.16420248 C1.51763339,1.95430101 1.35198195,1.74461873 1.19527427,1.55439476 C1.03901713,1.36371417 0.895137578,1.18863798 0.765462113,1.03075526 C0.517100629,0.705942542 0.3301461,0.44469205 0.199094671,0.269396685 C0.0691939369,0.0936446937 0,0 0,0 Z" id="path-19"></path>
        <linearGradient x1="50.0813873%" y1="-0.447688879%" x2="50.0813873%" y2="3257.63175%" id="linearGradient-21">
            <stop stop-color="#87CFE1" offset="0%"></stop>
            <stop stop-color="#27AEE1" offset="100%"></stop>
        </linearGradient>
        <path d="M0,0 C0,0 0.00103059304,0.00124210478 0.00307667168,0.00370808155 L0.027418111,0.0330445438 C0.112084388,0.135084014 0.389863721,0.469855142 0.819301267,0.987327159 C0.955393838,1.13977909 1.10591577,1.30784151 1.27019124,1.49128307 C1.43446063,1.67427409 1.60789906,1.87581019 1.80928903,2.07667047 C2.00747045,2.28046534 2.21824864,2.49670476 2.4402598,2.72516348 C2.6691447,2.94705897 2.90970703,3.18026049 3.16081435,3.42319118 C3.4165001,3.66137297 3.68914187,3.90317123 3.96751276,4.15650688 C4.25482133,4.40102054 4.54991079,4.65548254 4.86036113,4.90859292 C5.4830822,5.4120983 6.15941717,5.91876961 6.87286663,6.42295079 C7.58815477,6.92170117 8.35453013,7.41095375 9.15343547,7.84275679 C9.96449313,8.28722358 10.7883728,8.73870412 11.6120273,9.19018467 C13.2487972,10.1064853 14.8787239,10.8982247 16.4130758,11.7575263 C16.7977551,11.9762559 17.7728326,12.4871281 18.1453657,12.7144483 C18.504614,12.9478812 18.8512595,13.186063 19.1600964,13.4559102 C19.4755879,13.7164788 19.7509755,14.0107585 19.9839822,14.3206365 C20.2197347,14.6280366 20.3915719,14.9720702 20.4898559,15.320183 C20.587458,15.6691968 20.6044141,16.0243173 20.548511,16.3482229 C20.4937525,16.672585 20.3789691,16.9650504 20.2408126,17.2186113 C19.9578632,17.7252827 19.6080092,18.0928416 19.3067279,18.3715108 C19.0027008,18.6490476 18.7373893,18.8356612 18.5545566,18.9573487 C18.3712734,19.0788171 18.2681735,19.1353656 18.2681735,19.1353656 C18.2681735,19.1353656 18.3678334,19.0736116 18.5433358,18.9419696 C18.7192887,18.8114539 18.9685635,18.6076591 19.2590745,18.322658 C19.5447757,18.035392 19.8726326,17.658104 20.1232833,17.1593475 C20.3702628,16.6651207 20.5013142,16.0186612 20.2978664,15.3751485 C20.1986569,15.0559918 20.0323236,14.7400011 19.8011495,14.4547687 C19.5731839,14.1684099 19.3044387,13.8947209 18.9930751,13.6511083 C18.6899612,13.3989051 18.3467556,13.1758833 17.9914038,12.9580609 C17.6351388,12.7565187 16.6442499,12.2341151 16.2623225,12.0226246 C14.7201775,11.1768939 13.0826891,10.3985002 11.4379008,9.49644622 C10.6204383,9.03954097 9.80296958,8.5828549 8.99856038,8.13318868 C8.1769699,7.67967463 7.41448499,7.18272639 6.69347381,6.67176281 C5.97338198,6.1610184 5.30712321,5.62811245 4.69265183,5.10424768 C4.38632938,4.84141422 4.09604362,4.57722307 3.81331957,4.32411268 C3.53953319,4.06127922 3.27170121,3.8111095 3.02082524,3.56456234 C2.77544704,3.31303492 2.54015113,3.0716872 2.31653873,2.84232741 C2.10323997,2.60324455 1.90093066,2.3770507 1.71077367,2.16420248 C1.51763339,1.95430101 1.35198195,1.74461873 1.19527427,1.55439476 C1.03901713,1.36371417 0.895137578,1.18863798 0.765462113,1.03075526 C0.517100629,0.705942542 0.3301461,0.44469205 0.199094671,0.269396685 C0.0691939369,0.0936446937 0,0 0,0 Z" id="path-22"></path>
        <linearGradient x1="50.0813873%" y1="6.38726359%" x2="49.8850128%" y2="93.8438271%" id="linearGradient-24">
            <stop stop-color="#87CFE1" offset="0%"></stop>
            <stop stop-color="#27AEE1" offset="100%"></stop>
        </linearGradient>
        <path d="M8.39977255,1.79173027 C8.57511662,1.79173027 8.74187614,1.80390694 8.90017288,1.82825419 L9.25451402,1.89857447 L10.4709026,1.86569746 L10.4709026,2.39171141 L9.69013445,2.37527291 C9.87095803,2.55609039 9.96136981,2.83005333 9.96136981,3.1971678 C9.96136981,3.71222275 9.83394094,4.07248176 9.57914409,4.27795701 C9.32440812,4.48343225 8.92300413,4.58616683 8.37511479,4.58616683 C8.22716823,4.58616683 8.09292043,4.57520783 7.97237138,4.55328982 C7.87374033,4.79438183 7.82442481,4.95054156 7.82442481,5.021769 C7.82442481,5.19162748 7.87648009,5.2971079 7.98059063,5.33819808 C8.07167213,5.37415579 8.32427719,5.39438124 8.73840579,5.39888052 L8.92574389,5.39984248 C9.4517761,5.39984248 9.82986176,5.48202892 10.0600009,5.6464079 C10.2901399,5.81078688 10.4051486,6.13132559 10.4051486,6.60802402 C10.4051486,7.47923444 9.79698475,7.9148366 8.58059613,7.9148366 C7.92305586,7.9148366 7.46417798,7.82580078 7.20390162,7.64772304 C6.94362527,7.46964531 6.81351753,7.14499698 6.81351753,6.67377805 C6.81351753,6.44912454 6.86283305,6.26694327 6.96146409,6.12721596 C7.06009513,5.98749474 7.22715907,5.82996514 7.46277767,5.65462716 C7.3093516,5.5505227 7.23263857,5.36148596 7.23263857,5.08752302 C7.23263857,5.00989674 7.28024936,4.87710405 7.37534916,4.68913277 L7.51209319,4.43822636 C7.07921251,4.24097037 6.86283305,3.82728621 6.86283305,3.1971678 C6.86283305,2.26020336 7.37510563,1.79173027 8.39977255,1.79173027 Z M125.125104,1.79173027 C125.645657,1.79173027 126.023681,1.95747303 126.2593,2.28897683 C126.494919,2.62047454 126.612728,3.16702445 126.612728,3.92865091 C126.612728,4.69027738 126.474401,5.23683337 126.197686,5.56833108 C125.920971,5.89982879 125.462093,6.06557765 124.820992,6.06557765 C124.486742,6.06557765 124.179951,6.03544039 123.900496,5.97516586 L123.900496,7.8079924 L123.284052,7.8079924 L123.284052,1.87391671 L123.892277,1.87391671 L123.892277,2.16979766 C124.308719,1.91775273 124.719621,1.79173027 125.125104,1.79173027 Z M55.3298829,1.87391671 L56.3572287,5.449158 L56.6284641,5.449158 L57.66409,1.87391671 L58.2804731,1.87391671 L56.5709293,7.8079924 L55.9545462,7.8079924 L56.4887368,5.98338511 L55.8805729,5.98338511 L54.7134389,1.87391671 L55.3298829,1.87391671 Z M7.88195959,5.90119867 C7.70113601,6.03270063 7.57924753,6.14776409 7.51623325,6.24639513 C7.45321898,6.34502009 7.4216814,6.47104255 7.4216814,6.62446253 C7.4216814,6.91487006 7.5025345,7.11622959 7.66417981,7.2285533 C7.82582513,7.34088309 8.12439712,7.3970419 8.56001755,7.3970419 C8.99563798,7.3970419 9.30796961,7.33677347 9.49701244,7.21622442 C9.68599438,7.09568146 9.78054624,6.89432192 9.78054624,6.61213365 C9.78054624,6.32995146 9.71205246,6.14776409 9.5750649,6.06557765 C9.43807735,5.98338511 9.16958174,5.94228885 8.76957807,5.94228885 L7.88195959,5.90119867 Z M135.431621,0.616419651 L135.431621,1.87391671 L136.738483,1.87391671 L136.738483,2.40814992 L135.431621,2.40814992 L135.431621,4.37247233 C135.431621,4.84369735 135.465899,5.15327096 135.534393,5.30121752 C135.602886,5.449158 135.765871,5.52312519 136.023408,5.52312519 L136.754921,5.47380967 L136.796018,5.98338511 L136.397536,6.04124866 C136.21933,6.06294749 136.072723,6.0737969 135.957654,6.0737969 C135.530252,6.0737969 135.23442,5.96968636 135.070035,5.76147745 C134.90565,5.55326245 134.823458,5.1560168 134.823458,4.56972833 L134.823458,2.40814992 L134.239891,2.40814992 L134.239891,1.87391671 L134.823458,1.87391671 L134.823458,0.616419651 L135.431621,0.616419651 Z M61.6995608,0.616419651 L61.6995608,1.87391671 L63.0063612,1.87391671 L63.0063612,2.40814992 L61.6995608,2.40814992 L61.6995608,4.37247233 C61.6995608,4.84369735 61.7337772,5.15327096 61.802271,5.30121752 C61.8707648,5.449158 62.0338104,5.52312519 62.291347,5.52312519 L63.0227997,5.47380967 L63.063896,5.98338511 L62.6654753,6.04124866 C62.4872697,6.06294749 62.3406625,6.0737969 62.225593,6.0737969 C61.7981918,6.0737969 61.5022987,5.96968636 61.3379136,5.76147745 C61.1735286,5.55326245 61.091336,5.1560168 61.091336,4.56972833 L61.091336,2.40814992 L60.5078299,2.40814992 L60.5078299,1.87391671 L61.091336,1.87391671 L61.091336,0.616419651 L61.6995608,0.616419651 Z M13.8406748,0.616419651 L13.8406748,1.87391671 L15.1474752,1.87391671 L15.1474752,2.40814992 L13.8406748,2.40814992 L13.8406748,4.37247233 C13.8406748,4.84369735 13.8749521,5.15327096 13.9434459,5.30121752 C14.0119397,5.449158 14.1749244,5.52312519 14.432461,5.52312519 L15.1639137,5.47380967 L15.2050099,5.98338511 L14.8065892,6.04124866 C14.6283837,6.06294749 14.4817765,6.0737969 14.366707,6.0737969 C13.9393058,6.0737969 13.6434127,5.96968636 13.4790276,5.76147745 C13.3147034,5.55326245 13.2325109,5.1560168 13.2325109,4.56972833 L13.2325109,2.40814992 L12.6489439,2.40814992 L12.6489439,1.87391671 L13.2325109,1.87391671 L13.2325109,0.616419651 L13.8406748,0.616419651 Z M53.0367721,0.616419651 L53.0367721,1.87391671 L54.3436334,1.87391671 L54.3436334,2.40814992 L53.0367721,2.40814992 L53.0367721,4.37247233 C53.0367721,4.84369735 53.0710494,5.15327096 53.1395432,5.30121752 C53.208037,5.449158 53.3710218,5.52312519 53.6285584,5.52312519 L54.3600719,5.47380967 L54.4011682,5.98338511 L54.0026866,6.04124866 C53.824481,6.06294749 53.6778739,6.0737969 53.5628043,6.0737969 C53.1354032,6.0737969 52.8395709,5.96968636 52.6751859,5.76147745 C52.5108008,5.55326245 52.4286082,5.1560168 52.4286082,4.56972833 L52.4286082,2.40814992 L51.8450413,2.40814992 L51.8450413,1.87391671 L52.4286082,1.87391671 L52.4286082,0.616419651 L53.0367721,0.616419651 Z M100.599765,0.616419651 L100.599765,1.87391671 L101.906626,1.87391671 L101.906626,2.40814992 L100.599765,2.40814992 L100.599765,4.37247233 C100.599765,4.84369735 100.634042,5.15327096 100.702536,5.30121752 C100.77103,5.449158 100.934015,5.52312519 101.191551,5.52312519 L101.923065,5.47380967 L101.964161,5.98338511 L101.565679,6.04124866 C101.387474,6.06294749 101.240867,6.0737969 101.125797,6.0737969 C100.698396,6.0737969 100.402564,5.96968636 100.238179,5.76147745 C100.073794,5.55326245 99.9916011,5.1560168 99.9916011,4.56972833 L99.9916011,2.40814992 L99.4080341,2.40814992 L99.4080341,1.87391671 L99.9916011,1.87391671 L99.9916011,0.616419651 L100.599765,0.616419651 Z M39.635797,1.79173027 C40.274159,1.79173027 40.7262179,1.95884291 40.9919738,2.29308646 C41.2576688,2.62732392 41.3905771,3.1697642 41.3905771,3.92043166 C41.3905771,4.67109912 41.2645486,5.21628524 41.0124915,5.5560022 C40.7604344,5.89571917 40.3002171,6.06557765 39.6317178,6.06557765 C38.9632185,6.06557765 38.5030012,5.89571917 38.2509441,5.5560022 C37.998887,5.21628524 37.8728584,4.67109912 37.8728584,3.92043166 C37.8728584,3.1697642 38.0071062,2.62732392 38.2756019,2.29308646 C38.5440975,1.95884291 38.9974958,1.79173027 39.635797,1.79173027 Z M106.044868,1.79173027 C106.683169,1.79173027 107.135228,1.95884291 107.400984,2.29308646 C107.66674,2.62732392 107.799587,3.1697642 107.799587,3.92043166 C107.799587,4.67109912 107.673559,5.21628524 107.421502,5.5560022 C107.169445,5.89571917 106.709227,6.06557765 106.040728,6.06557765 C105.372229,6.06557765 104.912012,5.89571917 104.659954,5.5560022 C104.407897,5.21628524 104.281869,4.67109912 104.281869,3.92043166 C104.281869,3.1697642 104.416117,2.62732392 104.684612,2.29308646 C104.953108,1.95884291 105.406506,1.79173027 106.044868,1.79173027 Z M25.7335082,0.221913753 C26.1937255,0.221913753 26.5430743,0.33149771 26.7814326,0.550671712 C27.0197301,0.769839626 27.1389397,1.07256995 27.1389397,1.45886268 C27.1389397,1.84515542 27.0430484,2.14924953 26.8512658,2.37116328 C26.6594832,2.59307703 26.3334529,2.81087507 25.8732356,3.02456957 L27.1225012,4.25740887 C27.2430502,3.9067329 27.3197633,3.46291757 27.3526403,2.92594462 L27.9525849,2.93415778 C27.8813514,3.6190773 27.7553228,4.18891509 27.5745601,4.64370161 L28.6347829,5.6464079 L28.2649165,6.05735839 L27.2704477,5.12861929 C26.8923621,5.7532582 26.3197541,6.06557765 25.5526847,6.06557765 C24.7855544,6.06557765 24.248624,5.91763718 23.9417719,5.62175014 C23.6349198,5.3258692 23.4814937,4.91629467 23.4814937,4.39302047 C23.4814937,3.86974626 23.5815251,3.48619937 23.781466,3.2423737 C23.9814678,2.99854193 24.3061588,2.80265582 24.7554171,2.65471534 C24.5636345,2.43554134 24.4376668,2.24103119 24.3773923,2.07117271 C24.3171178,1.90131423 24.2869805,1.68762581 24.2869805,1.4300953 C24.2869805,1.06298082 24.4130091,0.769839626 24.6650053,0.550671712 C24.9170624,0.33149771 25.2732301,0.221913753 25.7335082,0.221913753 Z M43.0014899,0.0821864456 L43.0014899,2.07939196 C43.4179321,1.88761547 43.8206146,1.79173027 44.2096593,1.79173027 C44.763089,1.79173027 45.1507333,1.94925378 45.3726532,2.26431907 C45.594573,2.57937828 45.7055025,3.13141378 45.7055025,3.92043166 C45.7055025,4.70945563 45.5671755,5.2642248 45.2904607,5.58476959 C45.0137458,5.9053083 44.5055524,6.06557765 43.7658196,6.06557765 L43.5316622,6.06020774 C43.3057849,6.05126397 43.0030729,6.03113593 42.6234043,5.99982362 L42.3932652,5.97516586 L42.3932652,0.0821864456 L43.0014899,0.0821864456 Z M97.2300538,1.79173027 C97.6957506,1.79173027 98.0341403,1.89857447 98.2450402,2.11226897 C98.4560011,2.32595739 98.5615119,2.66019485 98.5615119,3.11497527 L98.5615119,5.21902499 C98.5779504,5.42176049 98.736856,5.54230345 99.0381677,5.58065996 L99.01351,6.06557765 C98.5806902,6.06557765 98.2546598,5.95599369 98.0354797,5.73681969 C97.5423245,5.95599369 97.0492302,6.06557765 96.556075,6.06557765 C96.1779893,6.06557765 95.8903155,5.95873344 95.6931143,5.74503894 C95.4958522,5.53134444 95.3972211,5.22450449 95.3972211,4.82451909 C95.3972211,4.4245276 95.4985919,4.13001653 95.7013335,3.94097979 C95.9040142,3.75194305 96.2218254,3.63550972 96.654706,3.5916737 L97.9450679,3.46839099 L97.9450679,3.11497527 C97.9450679,2.83553283 97.8847934,2.63553709 97.7642444,2.51499413 C97.6436953,2.39445116 97.4793102,2.33417664 97.27115,2.33417664 C96.9789099,2.33417664 96.6793638,2.34635331 96.3725117,2.37070665 L95.652018,2.44102693 L95.6273602,1.97254775 C96.2300446,1.8519987 96.7642961,1.79173027 97.2300538,1.79173027 Z M17.473463,1.79173027 C17.9392207,1.79173027 18.2775495,1.89857447 18.4885104,2.11226897 C18.6994712,2.32595739 18.8049212,2.66019485 18.8049212,3.11497527 L18.8049212,5.21902499 C18.8213597,5.42176049 18.9802652,5.54230345 19.2816379,5.58065996 L19.2569801,6.06557765 C18.8240994,6.06557765 18.498069,5.95599369 18.2788889,5.73681969 C17.7857946,5.95599369 17.2926394,6.06557765 16.7994842,6.06557765 C16.4214594,6.06557765 16.1337856,5.95873344 15.9365235,5.74503894 C15.7392614,5.53134444 15.6406304,5.22450449 15.6406304,4.82451909 C15.6406304,4.4245276 15.7420012,4.13001653 15.9447428,3.94097979 C16.1474843,3.75194305 16.4652955,3.63550972 16.8981153,3.5916737 L18.188538,3.46839099 L18.188538,3.11497527 C18.188538,2.83553283 18.1282635,2.63553709 18.0077145,2.51499413 C17.8871654,2.39445116 17.7227804,2.33417664 17.5145593,2.33417664 C17.2223191,2.33417664 16.922773,2.34635331 16.6159818,2.37070665 L15.8954272,2.44102693 L15.8707695,1.97254775 C16.4735147,1.8519987 17.0077053,1.79173027 17.473463,1.79173027 Z M83.1879769,1.79173027 C83.8263389,1.79173027 84.2783369,1.95884291 84.5440928,2.29308646 C84.8098486,2.62732392 84.9426961,3.1697642 84.9426961,3.92043166 C84.9426961,4.67109912 84.8166676,5.21628524 84.5646714,5.5560022 C84.3126142,5.89571917 83.8523361,6.06557765 83.1838368,6.06557765 C82.5153984,6.06557765 82.0551202,5.89571917 81.8030631,5.5560022 C81.551006,5.21628524 81.4250383,4.67109912 81.4250383,3.92043166 C81.4250383,3.1697642 81.5592252,2.62732392 81.8277209,2.29308646 C82.0962165,1.95884291 82.5496148,1.79173027 83.1879769,1.79173027 Z M68.1760889,1.79173027 C68.6418466,1.79173027 68.9801754,1.89857447 69.1911363,2.11226897 C69.4020971,2.32595739 69.5075471,2.66019485 69.5075471,3.11497527 L69.5075471,5.21902499 C69.5239856,5.42176049 69.6828912,5.54230345 69.9842638,5.58065996 L69.959606,6.06557765 C69.5267253,6.06557765 69.200695,5.95599369 68.9815149,5.73681969 C68.4884205,5.95599369 67.9952653,6.06557765 67.5021101,6.06557765 C67.1240854,6.06557765 66.8364115,5.95873344 66.6391494,5.74503894 C66.4418873,5.53134444 66.3432563,5.22450449 66.3432563,4.82451909 C66.3432563,4.4245276 66.4446271,4.13001653 66.6473687,3.94097979 C66.8501103,3.75194305 67.1679214,3.63550972 67.6007412,3.5916737 L68.8911031,3.46839099 L68.8911031,3.11497527 C68.8911031,2.83553283 68.8308894,2.63553709 68.7103404,2.51499413 C68.5897913,2.39445116 68.4254063,2.33417664 68.2171852,2.33417664 C67.9249451,2.33417664 67.6253989,2.34635331 67.3185468,2.37070665 L66.5980532,2.44102693 L66.5733954,1.97254775 C67.1761406,1.8519987 67.7103312,1.79173027 68.1760889,1.79173027 Z M129.152355,1.79173027 C129.705785,1.79173027 130.119488,1.94651403 130.393463,2.25609982 C130.667377,2.56567952 130.804364,3.05196099 130.804364,3.7149625 L130.771487,4.18344168 L128.059256,4.18344168 C128.059256,4.6382221 128.141448,4.97519323 128.305833,5.19436723 C128.470218,5.41354123 128.756492,5.52312519 129.164715,5.52312519 C129.572938,5.52312519 129.987979,5.50668668 130.409901,5.47380967 L130.648199,5.449158 L130.664637,5.93407568 C130.040035,6.02174163 129.505783,6.06557765 129.061944,6.06557765 C128.470218,6.06557765 128.051036,5.89434929 127.804459,5.55189258 C127.557881,5.20943586 127.434592,4.67657862 127.434592,3.95330867 C127.434592,2.51224829 128.0072,1.79173027 129.152355,1.79173027 Z M76.3950379,1.79173027 C76.7292875,1.79173027 77.1484086,1.8300807 77.6525228,1.90679373 L77.8826619,1.94788999 L77.8662234,2.47389786 C77.2579986,2.38623191 76.7786031,2.34239589 76.4279149,2.34239589 C75.8306492,2.34239589 75.5320163,2.55061089 75.5320163,2.9670348 C75.5320163,3.15881129 75.6005101,3.29442288 75.7374976,3.37387566 C75.8353372,3.43062504 76.0226753,3.48876865 76.2993901,3.54831866 L76.6744925,3.62044109 C77.1621073,3.70537337 77.507316,3.82454646 77.7100576,3.97796643 C77.9127991,4.13138641 78.0141699,4.4190481 78.0141699,4.84095151 C78.0141699,5.26286101 77.8785218,5.57244071 77.6072864,5.7696967 C77.336112,5.96694661 76.9401875,6.06557765 76.4196957,6.06557765 C76.0799665,6.06557765 75.6799629,6.02722113 75.2196847,5.9505081 L74.9731679,5.90941792 L75.006045,5.37518472 L75.5038273,5.44361761 C75.8873925,5.49114316 76.1926616,5.51490594 76.4196957,5.51490594 C76.7375068,5.51490594 76.9799443,5.46422663 77.1470691,5.36285584 C77.314194,5.26149113 77.3977259,5.09163265 77.3977259,4.85328039 C77.3977259,4.61493422 77.3264924,4.45329499 77.1840253,4.36836271 C77.0619542,4.29557056 76.8150113,4.22579215 76.4433184,4.15903354 L76.2470913,4.12590691 C75.7648951,4.04919388 75.4224262,3.93687017 75.2196847,3.78892969 C75.017004,3.64098922 74.9156332,3.36702629 74.9156332,2.9670348 C74.9156332,2.56704331 75.0566999,2.27116845 75.3388943,2.07939196 C75.6210886,1.88761547 75.9731162,1.79173027 76.3950379,1.79173027 Z M138.752078,1.79173027 C139.086328,1.79173027 139.50551,1.8300807 140.009624,1.90679373 L140.239702,1.94788999 L140.223264,2.47389786 C139.6151,2.38623191 139.135643,2.34239589 138.784955,2.34239589 C138.18775,2.34239589 137.889117,2.55061089 137.889117,2.9670348 C137.889117,3.15881129 137.957611,3.29442288 138.094599,3.37387566 C138.192438,3.43062504 138.379715,3.48876865 138.656491,3.54831866 L139.031533,3.62044109 C139.519208,3.70537337 139.864417,3.82454646 140.067159,3.97796643 C140.269839,4.13138641 140.37121,4.4190481 140.37121,4.84095151 C140.37121,5.26286101 140.235623,5.57244071 139.964387,5.7696967 C139.693152,5.96694661 139.297289,6.06557765 138.776736,6.06557765 C138.437068,6.06557765 138.037064,6.02722113 137.576786,5.9505081 L137.330208,5.90941792 L137.363085,5.37518472 L137.860928,5.44361761 C138.244494,5.49114316 138.549763,5.51490594 138.776736,5.51490594 C139.094547,5.51490594 139.336984,5.46422663 139.504109,5.36285584 C139.671234,5.26149113 139.754827,5.09163265 139.754827,4.85328039 C139.754827,4.61493422 139.683593,4.45329499 139.541126,4.36836271 C139.418994,4.29557056 139.172112,4.22579215 138.800419,4.15903354 L138.604132,4.12590691 C138.121996,4.04919388 137.779527,3.93687017 137.576786,3.78892969 C137.374044,3.64098922 137.272673,3.36702629 137.272673,2.9670348 C137.272673,2.56704331 137.413801,2.27116845 137.695995,2.07939196 C137.978129,1.88761547 138.330217,1.79173027 138.752078,1.79173027 Z M32.4401755,0.295880946 L34.0510274,5.10396153 L35.6619402,0.295880946 L36.8044164,0.295880946 L36.8044164,5.98338511 L36.1715339,5.98338511 L36.1715339,0.96983537 L36.0564643,0.96983537 L34.4044553,5.77790987 L33.6976604,5.77790987 L32.0456513,0.96983537 L31.9305818,0.96983537 L31.9305818,5.98338511 L31.2976993,5.98338511 L31.2976993,0.295880946 L32.4401755,0.295880946 Z M88.0576714,1.78351101 L88.0576714,2.40814992 C87.8275323,2.45198594 87.5878345,2.52047363 87.3385172,2.61361908 C87.1515444,2.68348273 86.9976921,2.7471789 86.8770213,2.80471367 L86.5618282,2.9670348 L86.5618282,5.98338511 L85.945445,5.98338511 L85.945445,1.87391671 L86.5536089,1.87391671 L86.5536089,2.43280768 C87.0303256,2.10404363 87.5317001,1.88761547 88.0576714,1.78351101 Z M5.81076862,1.87391671 L5.81076862,5.98338511 L5.19438549,5.98338511 L5.19438549,1.87391671 L5.81076862,1.87391671 Z M2.0300947,0.295880946 C2.9560697,0.295880946 3.56977396,0.662989332 3.87114658,1.39721828 C4.04642977,1.81912778 4.13410181,2.37252707 4.13410181,3.05744658 C4.13410181,4.48754797 3.77799504,5.38888347 3.06565975,5.76147745 C2.78072563,5.90941792 2.43551699,5.98338511 2.0300947,5.98338511 L-8.65204562e-15,5.98338511 L-8.65204562e-15,0.295880946 L2.0300947,0.295880946 Z M65.8747589,1.78351101 L65.8747589,2.40814992 C65.6446806,2.45198594 65.404922,2.52047363 65.1556046,2.61361908 C64.9686318,2.68348273 64.8147796,2.7471789 64.6941088,2.80471367 L64.3789156,2.9670348 L64.3789156,5.98338511 L63.7625325,5.98338511 L63.7625325,1.87391671 L64.3706964,1.87391671 L64.3706964,2.43280768 C64.8474131,2.10404363 65.3487875,1.88761547 65.8747589,1.78351101 Z M72.6060838,1.79173027 C73.1540341,1.79173027 73.5225002,1.93967074 73.711543,2.23555169 C73.9005858,2.53143263 73.9950768,3.0574405 73.9950768,3.81358745 L73.9950768,5.98338511 L73.3869129,5.98338511 L73.3869129,3.83002596 C73.3869129,3.26017599 73.3307176,2.86977972 73.2183878,2.65882497 C73.106058,2.44787022 72.8663602,2.34239589 72.4992336,2.34239589 C72.3238895,2.34239589 72.1389867,2.36842353 71.9444644,2.4204788 C71.7985879,2.45951721 71.6780997,2.49778849 71.5830608,2.53528655 L71.3403797,2.64649609 L71.3403797,5.98338511 L70.7239357,5.98338511 L70.7239357,1.87391671 L71.3321605,1.87391671 L71.3321605,2.16157841 C71.7760001,1.91501298 72.2006007,1.79173027 72.6060838,1.79173027 Z M133.878243,1.78351101 L133.878243,2.40814992 C133.648165,2.45198594 133.408407,2.52047363 133.159089,2.61361908 C132.972116,2.68348273 132.818264,2.7471789 132.697593,2.80471367 L132.3824,2.9670348 L132.3824,5.98338511 L131.766017,5.98338511 L131.766017,1.87391671 L132.374181,1.87391671 L132.374181,2.43280768 C132.850898,2.10404363 133.352272,1.88761547 133.878243,1.78351101 Z M11.8352987,1.87391671 L11.8352987,5.98338511 L11.2188547,5.98338511 L11.2188547,1.87391671 L11.8352987,1.87391671 Z M80.2414658,0 L81.0716104,0.0575347738 L81.0633912,0.567104131 L80.4631421,0.551694553 C80.4064597,0.551012659 80.3531259,0.550671712 80.3031407,0.550671712 C80.1031388,0.550671712 79.9606718,0.616419651 79.8757395,0.747921617 C79.7908072,0.879429671 79.7483715,1.13421435 79.7483715,1.51228174 L79.7483715,1.87391671 L80.9401024,1.87391671 L80.9401024,2.40814992 L79.7483715,2.40814992 L79.7483715,5.98338511 L79.1319275,5.98338511 L79.1319275,2.40814992 L78.6141145,2.40814992 L78.6141145,1.87391671 L79.1319275,1.87391671 L79.1319275,1.50406249 C79.1319275,0.923259601 79.21412,0.527383828 79.3785051,0.316429079 C79.5428902,0.10547433 79.830564,0 80.2414658,0 Z M119.832087,1.87391671 L120.834836,3.4848295 L121.837524,1.87391671 L122.511503,1.87391671 L121.204642,3.91221241 L122.503284,5.98338511 L121.829305,5.98338511 L120.834836,4.38069159 L119.832087,5.98338511 L119.158169,5.98338511 L120.448531,3.92865091 L119.158169,1.87391671 L119.832087,1.87391671 Z M118.591041,0.295880946 L118.591041,0.854771911 L115.76374,0.854771911 L115.76374,2.81909432 L118.097886,2.81909432 L118.097886,3.36976604 L115.76374,3.36976604 L115.76374,5.42450024 L118.591041,5.42450024 L118.591041,5.98338511 L115.130857,5.98338511 L115.130857,0.295880946 L118.591041,0.295880946 Z M51.0313961,1.87391671 L51.0313961,5.98338511 L50.4149521,5.98338511 L50.4149521,1.87391671 L51.0313961,1.87391671 Z M49.1821249,0.0821864456 L49.1821249,5.98338511 L48.5656809,5.98338511 L48.5656809,0.0821864456 L49.1821249,0.0821864456 Z M47.3328538,1.87391671 L47.3328538,5.98338511 L46.7164098,5.98338511 L46.7164098,1.87391671 L47.3328538,1.87391671 Z M93.1287681,1.79173027 C93.6767183,1.79173027 94.0451844,1.93830087 94.2342272,2.23144206 C94.4232701,2.52458325 94.517761,3.05196099 94.517761,3.81358745 L94.517761,5.98338511 L93.9013779,5.98338511 L93.9013779,3.83002596 C93.9013779,3.26017599 93.8465829,2.86977972 93.7369928,2.65882497 C93.6274028,2.44787022 93.3945239,2.34239589 93.0383563,2.34239589 C92.8575327,2.34239589 92.6712297,2.36842353 92.479508,2.4204788 C92.2877254,2.47252798 92.1397788,2.52321338 92.0356683,2.5725289 L91.8795025,2.64649609 C91.950736,2.82731358 91.9863528,3.22729898 91.9863528,3.84646447 L91.9863528,5.98338511 L91.3699087,5.98338511 L91.3699087,3.86290298 C91.3699087,3.271135 91.316514,2.86977972 91.2096637,2.65882497 C91.1028135,2.44787022 90.8685952,2.34239589 90.506948,2.34239589 C90.331604,2.34239589 90.1521807,2.36842353 89.9686174,2.4204788 C89.785054,2.47252798 89.6439264,2.52321338 89.5452954,2.5725289 L89.405629,2.64649609 L89.405629,5.98338511 L88.7891849,5.98338511 L88.7891849,1.87391671 L89.3974097,1.87391671 L89.3974097,2.16157841 C89.8083115,1.91501298 90.2083152,1.79173027 90.5973598,1.79173027 C91.1068926,1.79173027 91.4630603,1.93145149 91.6658019,2.21089393 C91.8466254,2.10130997 92.0808437,2.0040488 92.3685176,1.91912261 C92.6561915,1.83419032 92.909588,1.79173027 93.1287681,1.79173027 Z M20.6870693,0.0821864456 L20.6870693,5.98338511 L20.0706253,5.98338511 L20.0706253,0.0821864456 L20.6870693,0.0821864456 Z M110.684424,1.79173027 C111.232374,1.79173027 111.60084,1.93967074 111.789883,2.23555169 C111.978926,2.53143263 112.073417,3.0574405 112.073417,3.81358745 L112.073417,5.98338511 L111.465253,5.98338511 L111.465253,3.83002596 C111.465253,3.26017599 111.409057,2.86977972 111.296728,2.65882497 C111.184398,2.44787022 110.9447,2.34239589 110.577573,2.34239589 C110.402229,2.34239589 110.217326,2.36842353 110.022804,2.4204788 C109.828282,2.47252798 109.678996,2.52321338 109.574885,2.5725289 L109.418719,2.64649609 L109.418719,5.98338511 L108.802275,5.98338511 L108.802275,1.87391671 L109.4105,1.87391671 L109.4105,2.16157841 C109.85434,1.91501298 110.27894,1.79173027 110.684424,1.79173027 Z M103.279181,1.87391671 L103.279181,5.98338511 L102.662737,5.98338511 L102.662737,1.87391671 L103.279181,1.87391671 Z M97.9450679,3.93687017 L96.7286793,4.05193363 C96.4821017,4.07385164 96.3040179,4.14508517 96.1944278,4.26562813 C96.0848378,4.38617109 96.0300428,4.56150907 96.0300428,4.79164208 C96.0300428,5.29573802 96.2382639,5.54778295 96.654706,5.54778295 C97.0273122,5.54778295 97.394378,5.48476867 97.7560251,5.35874621 L97.9450679,5.29299827 L97.9450679,3.93687017 Z M18.188538,3.93687017 L16.9720885,4.05193363 C16.7255109,4.07385164 16.547488,4.14508517 16.437898,4.26562813 C16.3283079,4.38617109 16.2735129,4.56150907 16.2735129,4.79164208 C16.2735129,5.29573802 16.481734,5.54778295 16.8981153,5.54778295 C17.2707214,5.54778295 17.6378481,5.48476867 17.9994952,5.35874621 L18.188538,5.29299827 L18.188538,3.93687017 Z M68.8911031,3.93687017 L67.6747145,4.05193363 C67.4281369,4.07385164 67.2501139,4.14508517 67.1405239,4.26562813 C67.0309338,4.38617109 66.9761388,4.56150907 66.9761388,4.79164208 C66.9761388,5.29573802 67.1843599,5.54778295 67.6007412,5.54778295 C67.9733473,5.54778295 68.340474,5.48476867 68.7021211,5.35874621 L68.8911031,5.29299827 L68.8911031,3.93687017 Z M83.1879769,2.32595739 C82.7578359,2.32595739 82.4619428,2.43965097 82.3003584,2.66704422 C82.1387131,2.89443748 82.05786,3.30949151 82.05786,3.91221241 C82.05786,4.50945989 82.1304938,4.92862355 82.2757006,5.16970947 C82.4208465,5.41080148 82.7249589,5.53134444 83.1879769,5.53134444 C83.6509948,5.53134444 83.9537069,5.41217136 84.0961739,5.1738191 C84.238641,4.93547292 84.3098745,4.51493939 84.3098745,3.91221241 C84.3098745,3.30949151 84.2304217,2.89443748 84.0715161,2.66704422 C83.9126106,2.43965097 83.6181178,2.32595739 83.1879769,2.32595739 Z M39.635797,2.32595739 C39.2057169,2.32595739 38.9098238,2.43965097 38.7481785,2.66704422 C38.5865332,2.89443748 38.505741,3.30949151 38.505741,3.91221241 C38.505741,4.50945989 38.5783139,4.92862355 38.7235207,5.16970947 C38.8687275,5.41080148 39.1728399,5.53134444 39.635797,5.53134444 C40.0988149,5.53134444 40.401527,5.41217136 40.543994,5.1738191 C40.6864611,4.93547292 40.7576946,4.51493939 40.7576946,3.91221241 C40.7576946,3.30949151 40.6782418,2.89443748 40.5193363,2.66704422 C40.3604307,2.43965097 40.0659379,2.32595739 39.635797,2.32595739 Z M106.044868,2.32595739 C105.614727,2.32595739 105.318834,2.43965097 105.157189,2.66704422 C104.995543,2.89443748 104.914751,3.30949151 104.914751,3.91221241 C104.914751,4.50945989 104.987324,4.92862355 105.132531,5.16970947 C105.277738,5.41080148 105.58185,5.53134444 106.044868,5.53134444 C106.507825,5.53134444 106.810598,5.41217136 106.953004,5.1738191 C107.095471,4.93547292 107.166705,4.51493939 107.166705,3.91221241 C107.166705,3.30949151 107.087252,2.89443748 106.928347,2.66704422 C106.769502,2.43965097 106.474948,2.32595739 106.044868,2.32595739 Z M125.034692,2.34239589 C124.870307,2.34239589 124.693624,2.3697934 124.504581,2.42458843 C124.315538,2.47937736 124.166252,2.53417238 124.056662,2.58896741 L123.900496,2.67115385 L123.900496,5.44093874 L124.3226,5.4987962 C124.511339,5.52049503 124.66647,5.53134444 124.788114,5.53134444 C125.231954,5.53134444 125.542885,5.40532198 125.720969,5.15327096 C125.899053,4.90122604 125.988065,4.49028163 125.988065,3.92043166 C125.988065,3.35058169 125.907272,2.94512288 125.745627,2.70403086 C125.583982,2.46293885 125.347024,2.34239589 125.034692,2.34239589 Z M44.1439052,2.34239589 C43.8260941,2.34239589 43.5001246,2.40267042 43.165875,2.52321338 L43.0014899,2.58074815 L43.0014899,5.47380967 L43.5749503,5.51033968 C43.6474015,5.51338385 43.7082848,5.51490594 43.7576003,5.51490594 C44.2945916,5.51490594 44.6493589,5.3929931 44.8219632,5.14916134 C44.9945675,4.90533566 45.0809001,4.49302138 45.0809001,3.91221241 C45.0809001,3.33140343 45.0124064,2.92457474 44.8754188,2.69170198 C44.7384312,2.45882923 44.4945934,2.34239589 44.1439052,2.34239589 Z M25.108845,3.04100808 C24.7471978,3.15607154 24.4897221,3.30401201 24.336296,3.4848295 C24.18287,3.66564698 24.106157,3.94508942 24.106157,4.3231629 C24.106157,5.11218078 24.5554153,5.50668668 25.4540536,5.50668668 C26.1280324,5.50668668 26.5909895,5.26012126 26.8430466,4.76698432 L25.108845,3.04100808 Z M2.0300947,0.854771911 L0.632858158,0.854771911 L0.632858158,5.42450024 L2.0300947,5.42450024 C2.99990572,5.42450024 3.48484167,4.63548844 3.48484167,3.05744658 C3.48484167,1.96706216 3.24100382,1.28763433 2.75332812,1.01915089 C2.55606604,0.909560846 2.31502882,0.854771911 2.0300947,0.854771911 Z M8.41621106,2.29308646 C8.08196142,2.29308646 7.84226364,2.36294403 7.69705683,2.50266525 C7.55185002,2.64238646 7.47921617,2.87388935 7.47921617,3.1971678 C7.47921617,3.52044626 7.55185002,3.75057318 7.69705683,3.88755465 C7.84226364,4.0245422 8.08196142,4.09302989 8.41621106,4.09302989 C8.75039981,4.09302989 8.98875816,4.0245422 9.13122522,3.88755465 C9.27369228,3.75057318 9.34492581,3.51907638 9.34492581,3.19305818 C9.34492581,2.86703997 9.27369228,2.63553709 9.13122522,2.49855562 C8.98875816,2.36157415 8.75039981,2.29308646 8.41621106,2.29308646 Z M129.156495,2.30951888 C128.792109,2.30951888 128.518133,2.41910892 128.33457,2.63827684 C128.151068,2.85745084 128.056516,3.20812072 128.051036,3.69030474 L130.187981,3.69030474 C130.187981,3.18620271 130.107128,2.83005333 129.945483,2.62183833 C129.783838,2.41362942 129.520882,2.30951888 129.156495,2.30951888 Z M25.7129297,0.756140871 C25.1732596,0.756140871 24.9033637,1.0136653 24.9033637,1.52872025 C24.9033637,1.8629638 25.0266525,2.16157841 25.2732301,2.42458843 L25.5115884,2.65471534 C25.8896741,2.49033637 26.1526293,2.32869714 26.3005758,2.16979766 C26.4485224,2.01089818 26.5224957,1.79173027 26.5224957,1.51228174 C26.5224957,1.0081858 26.2526606,0.756140871 25.7129297,0.756140871 Z M11.8352987,0.230133007 L11.8352987,0.94517761 L11.2188547,0.94517761 L11.2188547,0.230133007 L11.8352987,0.230133007 Z M47.3328538,0.230133007 L47.3328538,0.94517761 L46.7164098,0.94517761 L46.7164098,0.230133007 L47.3328538,0.230133007 Z M51.0313961,0.230133007 L51.0313961,0.94517761 L50.4149521,0.94517761 L50.4149521,0.230133007 L51.0313961,0.230133007 Z M5.81076862,0.230133007 L5.81076862,0.94517761 L5.19438549,0.94517761 L5.19438549,0.230133007 L5.81076862,0.230133007 Z M103.279181,0.230133007 L103.279181,0.94517761 L102.662737,0.94517761 L102.662737,0.230133007 L103.279181,0.230133007 Z" id="path-25"></path>
        <path d="M2.89342073,5.24275123 C3.04934301,5.24275123 3.17244916,5.28939398 3.2626783,5.38127914 C3.35309008,5.47432718 3.39820465,5.60032529 3.39820465,5.75974227 L3.39820465,19.258076 C3.39820465,19.4093711 3.3508374,19.5372262 3.25652908,19.6423413 C3.16222076,19.7474564 3.04118464,19.8001266 2.89342073,19.8001266 L0.578696322,19.8001266 C0.430932411,19.8001266 0.309652761,19.7430424 0.215527089,19.6298115 C0.121036117,19.5163432 0.0738515138,19.3926648 0.0738515138,19.258076 L0.0738515138,5.75974227 C0.0738515138,5.61703168 0.121036117,5.49497881 0.215527089,5.39404029 C0.309652761,5.29333313 0.430932411,5.24275123 0.578696322,5.24275123 L2.89342073,5.24275123 Z M2.96727224,0 C3.10669513,0 3.2257221,0.0503505375 3.32435314,0.151289057 C3.42274065,0.251996221 3.47211705,0.373817733 3.47211705,0.516522237 L3.47211705,2.78542583 C3.47211705,2.93625217 3.42274065,3.06039943 3.32435314,3.1569239 C3.2257221,3.25345447 3.10669513,3.30195415 2.96727224,3.30195415 L0.529502569,3.30195415 C0.398055398,3.30195415 0.276958398,3.25345447 0.166150685,3.1569239 C0.0552820895,3.06039943 0,2.93625217 0,2.78542583 L0,0.516522237 C0,0.382402286 0.0552820895,0.26290043 0.166150685,0.157785312 C0.276958398,0.0524388367 0.398055398,0 0.529502569,0 L2.96727224,0 Z" id="path-27"></path>
        <path d="M7.26210612,0 C8.19514358,0 9.38005551,0.361287938 9.80891788,1.93569506 L14.473679,18.7649939 C14.4990674,18.8167386 14.4990674,18.8937743 14.4990674,18.9452877 C14.4990674,19.1777952 14.347894,19.3587893 14.0704486,19.3587893 L12.5827028,19.3587893 C12.355547,19.3587893 12.2043127,19.1777952 12.1540231,18.9712789 L10.5148604,13.0347191 L3.98402433,13.0347191 L2.37025003,18.9712789 C2.31989949,19.1777952 2.11794939,19.3587893 1.91642547,19.3587893 L0.428679727,19.3587893 C0.17656174,19.3587893 0,19.1777952 0,18.9452877 C0,18.8937743 0,18.8167386 0.0251448271,18.7649939 L4.69014952,1.96144872 C5.11882925,0.387047686 6.30392382,0 7.26210612,0 Z M7.26210612,2.03895323 C6.98466065,2.03895323 6.83348727,2.21970984 6.75774837,2.50349935 L4.46323724,10.9957659 L10.0358302,10.9957659 L7.74131903,2.50349935 C7.66564102,2.21970984 7.5142241,2.03895323 7.26210612,2.03895323 Z" id="path-29"></path>
        <path d="M5.69868235,0 C6.05186672,0 6.22824581,0.155002942 6.22824581,0.465008827 L6.22824581,1.52312507 C6.22824581,1.80690849 6.05186672,1.96191143 5.69868235,1.96191143 C4.53897614,1.96191143 3.47991012,2.2714546 2.21883312,3.04601269 L2.21883312,13.8612533 C2.21883312,14.1192831 1.99192084,14.3775442 1.71465802,14.3775442 L0.479212915,14.3775442 C0.226912277,14.3775442 0,14.1450368 0,13.8612533 L0,0.697053571 C0,0.413264061 0.20176745,0.180762691 0.479212915,0.180762691 L1.66412484,0.180762691 C1.9415703,0.180762691 2.14333775,0.413264061 2.14333775,0.697053571 L2.14333775,1.2391042 C3.40417122,0.335765634 4.56412097,0 5.69868235,0 Z" id="path-31"></path>
        <path d="M5.37112988,0 C6.53107963,0 7.69102938,0.129243193 8.52318312,0.284252224 C8.92647449,0.361750651 9.02760174,0.490999933 9.02760174,0.852056514 L9.02760174,1.78114874 C9.02760174,2.03941595 8.82583429,2.16865914 8.59867848,2.16865914 L8.49803829,2.16865914 C7.3883782,2.03941595 6.60681853,1.98790254 5.37112988,1.98790254 C3.35382068,1.98790254 2.21907665,3.35555586 2.21907665,6.27255063 L2.21907665,8.28551884 C2.21907665,11.1765225 3.32867586,12.5706296 5.37112988,12.5706296 C6.60681853,12.5706296 7.3883782,12.5191223 8.49803829,12.389873 L8.59867848,12.389873 C8.82583429,12.389873 9.02760174,12.5191223 9.02760174,12.7773834 L9.02760174,13.7064757 C9.02760174,14.0417786 8.92647449,14.1967815 8.52318312,14.274286 C7.69102938,14.429289 6.55622446,14.5580695 5.37112988,14.5580695 C1.94181384,14.5580695 0,12.0803299 0,8.28551884 L0,6.27255063 C0,2.47820231 1.91642547,0 5.37112988,0 Z" id="path-33"></path>
        <path d="M1.7396202,8.65204562e-15 C2.01706567,8.65204562e-15 2.21883312,0.232038656 2.21883312,0.516059523 L2.21883312,5.8330641 C3.4291334,5.29101347 4.99255716,5.03275235 6.07682889,5.03275235 C8.74966921,5.03275235 10.6157442,6.60762219 10.6157442,10.4019705 L10.6157442,18.8940057 C10.6157442,19.1777891 10.3888319,19.4102966 10.1113864,19.4102966 L8.90108613,19.4102966 C8.62388419,19.4102966 8.39672838,19.1777891 8.39672838,18.8940057 L8.39672838,10.4019705 C8.39672838,7.82050393 7.33766236,7.02042354 5.69843882,7.02042354 C4.91687915,7.02042354 3.32824967,7.22717124 2.21883312,7.74346821 L2.21883312,18.8940057 C2.21883312,19.1520355 1.99192084,19.4102966 1.71447537,19.4102966 L0.479030264,19.4102966 C0.226912277,19.4102966 -1.73040912e-14,19.1777891 -1.73040912e-14,18.8940057 L-1.73040912e-14,0.516059523 C-1.73040912e-14,0.232038656 0.201523917,8.65204562e-15 0.479030264,8.65204562e-15 L1.7396202,8.65204562e-15 Z" id="path-35"></path>
        <path d="M1.73980285,5.36852408 C2.01724832,5.36852408 2.24416059,5.60103153 2.24416059,5.88481496 L2.24416059,19.0490147 C2.24416059,19.3327981 2.01724832,19.5653056 1.73980285,19.5653056 L0.529563452,19.5653056 C0.252300638,19.5653056 0.0253883605,19.3327981 0.0253883605,19.0490147 L0.0253883605,5.88481496 C0.0253883605,5.60103153 0.252300638,5.36852408 0.529563452,5.36852408 L1.73980285,5.36852408 Z M1.79033604,0 C2.06759885,0 2.29451113,0.232507458 2.29451113,0.516065611 L2.29451113,2.58100386 C2.29451113,2.86502473 2.06759885,3.09706339 1.79033604,3.09706339 L0.504357742,3.09706339 C0.226912277,3.09706339 0,2.86502473 0,2.58100386 L0,0.516065611 C0,0.232507458 0.226912277,0 0.504357742,0 L1.79033604,0 Z" id="path-37"></path>
        <path d="M4.76582753,0 C4.96735145,0 5.14415672,0.180756603 5.14415672,0.438786365 L5.14415672,3.25229768 L7.86716493,3.25229768 C8.1446104,3.25229768 8.37176621,3.48479905 8.37176621,3.76835721 L8.37176621,4.64640483 C8.37176621,4.92995689 8.1446104,5.16246435 7.86716493,5.16246435 L5.14415672,5.16246435 L5.14415672,14.1703277 C5.14415672,15.590426 5.4969149,15.7969423 6.50569127,15.7969423 L7.91769812,15.7969423 C8.27088248,15.7969423 8.44720069,15.8999691 8.44720069,16.1582302 L8.44720069,17.0613375 C8.44720069,17.2938449 8.32117214,17.4488479 7.99337613,17.5005926 C7.48901839,17.5776283 6.83342639,17.6293731 6.35445701,17.6293731 C4.03455752,17.6293731 2.92514096,17.009824 2.92514096,14.1703277 L2.92514096,5.16246435 L0.479212915,4.87844348 C0.20176745,4.85245847 0,4.69791824 0,4.41389737 L0,3.7168438 C0,3.43305429 0.20176745,3.25229768 0.479212915,3.25229768 L2.92514096,3.25229768 L2.92514096,0.722807232 C2.92514096,0.464546113 3.10152005,0.258261118 3.37896551,0.206747709 L4.69014952,0 L4.76582753,0 Z" id="path-39"></path>
        <path d="M5.59804216,0 C9.27965885,0 11.1454903,2.37471278 11.1454903,6.04028061 L11.1454903,7.43391895 C11.1454903,7.76922187 10.969172,8.00172933 10.6665209,8.00172933 L2.21907665,8.00172933 L2.21907665,8.36301727 C2.21907665,11.4347897 3.40441476,12.5706296 5.72407071,12.5706296 C7.18691517,12.5706296 9.05274657,12.4671401 10.2124528,12.2863835 L10.3387249,12.2863835 C10.5402488,12.2863835 10.7420162,12.3896417 10.7420162,12.6481342 L10.7420162,13.5254816 C10.7420162,13.8612473 10.641376,14.0415472 10.2378411,14.1190457 C8.80068947,14.4032979 7.41382744,14.5578381 5.72407071,14.5578381 C2.82431812,14.5578381 0,13.1641937 0,8.36301727 L0,6.04028061 C0,2.34895912 1.99216437,0 5.59804216,0 Z M5.59804216,1.98766509 C3.42955958,1.98766509 2.21907665,3.25252904 2.21907665,6.04028061 L2.21907665,6.27231927 L8.90132966,6.27231927 L8.90132966,6.04028061 C8.90132966,3.12351112 7.81705793,1.98766509 5.59804216,1.98766509 Z" id="path-41"></path>
        <path d="M5.371069,0 C6.53101875,0 7.69096849,0.129243193 8.52318312,0.284252224 C8.9264136,0.361750651 9.02754086,0.490999933 9.02754086,0.852056514 L9.02754086,1.78114874 C9.02754086,2.03941595 8.82577341,2.16865914 8.59867848,2.16865914 L8.49797741,2.16865914 C7.3883782,2.03941595 6.60675764,1.98790254 5.371069,1.98790254 C3.35382068,1.98790254 2.21901577,3.35555586 2.21901577,6.27255063 L2.21901577,8.28551884 C2.21901577,11.1765225 3.32861497,12.5706296 5.371069,12.5706296 C6.60675764,12.5706296 7.3883782,12.5191223 8.49797741,12.389873 L8.59867848,12.389873 C8.82577341,12.389873 9.02754086,12.5191223 9.02754086,12.7773834 L9.02754086,13.7064757 C9.02754086,14.0417786 8.9264136,14.1967815 8.52318312,14.274286 C7.69096849,14.429289 6.55622446,14.5580695 5.371069,14.5580695 C1.94175295,14.5580695 0,12.0803299 0,8.28551884 L0,6.27255063 C0,2.47820231 1.91636459,0 5.371069,0 Z" id="path-43"></path>
        <path d="M4.76588842,0 C4.96741233,0 5.14421761,0.180756603 5.14421761,0.438786365 L5.14421761,3.25229768 L7.86716493,3.25229768 C8.1446104,3.25229768 8.37176621,3.48479905 8.37176621,3.76835721 L8.37176621,4.64640483 C8.37176621,4.92995689 8.1446104,5.16246435 7.86716493,5.16246435 L5.14421761,5.16246435 L5.14421761,14.1703277 C5.14421761,15.590426 5.4969149,15.7969423 6.50569127,15.7969423 L7.91769812,15.7969423 C8.27088248,15.7969423 8.44726157,15.8999691 8.44726157,16.1582302 L8.44726157,17.0613375 C8.44726157,17.2938449 8.32123302,17.4488479 7.99343702,17.5005926 C7.48907928,17.5776283 6.83348727,17.6293731 6.35451789,17.6293731 C4.03455752,17.6293731 2.92520184,17.009824 2.92520184,14.1703277 L2.92520184,5.16246435 L0.479212915,4.87844348 C0.20176745,4.85245847 0,4.69791824 0,4.41389737 L0,3.7168438 C0,3.43305429 0.20176745,3.25229768 0.479212915,3.25229768 L2.92520184,3.25229768 L2.92520184,0.722807232 C2.92520184,0.464546113 3.10152005,0.258261118 3.3790264,0.206747709 L4.69014952,0 L4.76588842,0 Z" id="path-45"></path>
        <path d="M4.56406008,0 C5.97612782,0 7.3126393,0.129011837 8.49779476,0.335759545 C8.82559076,0.387504312 8.97676414,0.567804289 8.97676414,0.852056514 L8.97676414,1.70365031 C8.97676414,2.01342484 8.80038505,2.14267412 8.54832795,2.14267412 L8.47258905,2.14267412 C7.58990212,2.06516961 5.97612782,1.93592033 4.56406008,1.93592033 C3.15205323,1.93592033 2.21901577,2.11691437 2.21901577,3.43305429 C2.21901577,4.20761237 2.79911241,4.69791824 3.95906215,5.39497181 L6.4550972,6.91762807 C8.54832795,8.18248593 9.22906478,9.2925783 9.22906478,10.8152346 C9.22906478,13.4479832 7.33784501,14.5578381 4.51377043,14.5578381 C3.58073296,14.5578381 1.76519121,14.4803336 0.529502569,14.1707904 C0.2019501,14.093292 0,13.9382891 0,13.6544995 L0,12.7513923 C0,12.5188849 0.2019501,12.3638819 0.454007204,12.3638819 L0.554708279,12.3638819 C1.76519121,12.5188849 3.60587779,12.6481342 4.51377043,12.6481342 C6.15244602,12.6481342 7.01004901,12.2093417 7.01004901,10.8152346 C7.01004901,10.0406826 6.55622446,9.5503767 5.11876836,8.67302315 L2.57220013,7.12437578 C1.03367766,6.16906109 0,5.05897482 0,3.43305429 C0,0.748566981 1.96695866,0 4.56406008,0 Z" id="path-47"></path>
        <path d="M3.0781591,0 C3.48845206,0 3.80041838,0.205590925 4.01393632,0.617235488 L7.81841563,8.51965188 C7.94152178,8.76352627 8.03193357,8.88511642 8.08928569,8.88511642 C8.15503972,8.88511642 8.24934804,8.76352627 8.37263684,8.51965188 L12.1771161,0.617235488 C12.3904514,0.205590925 12.7023569,0 13.1128934,0 L15.1814055,0 C15.4604948,0 15.6984878,0.100475806 15.8955064,0.30212149 C16.092464,0.503767173 16.1910951,0.747641554 16.1910951,1.03328192 L16.1910951,18.791679 C16.1910951,19.0517971 16.0473495,19.1824345 15.7601627,19.1824345 L13.2112809,19.1824345 C13.104735,19.1824345 13.0101831,19.1297643 12.9281733,19.0246492 C12.8461025,18.9195341 12.8050671,18.7998009 12.8050671,18.6652182 L12.8050671,6.66702608 C12.8050671,6.49021472 12.780592,6.40226871 12.7311547,6.40226871 C12.7066796,6.40226871 12.6654007,6.45679584 12.6080486,6.5658562 L10.1825164,11.4941936 C10.0265942,11.7881932 9.75955975,11.9350744 9.38208292,11.9350744 L6.83344465,11.9350744 C6.45578518,11.9350744 6.1889943,11.7881932 6.03325467,11.4941936 L3.58300391,6.5658562 C3.52540825,6.45679584 3.48437287,6.40226871 3.45989776,6.40226871 C3.41070401,6.40226871 3.38598536,6.49021472 3.38598536,6.66702608 L3.38598536,18.6652182 C3.38598536,18.7998009 3.34501086,18.9195341 3.2629401,19.0246492 C3.1806258,19.1297643 3.08631747,19.1824345 2.9797716,19.1824345 L0.430926323,19.1824345 C0.143489899,19.1824345 0,19.0517971 0,18.791679 L0,1.03328192 C0,0.747641554 0.0986066874,0.503767173 0.295594794,0.30212149 C0.492588988,0.100475806 0.73060639,0 1.00965918,0 L3.0781591,0 Z" id="path-49"></path>
        <path d="M6.02105974,0 C7.30929072,0 8.40531294,0.273348015 9.30845668,0.819343885 C10.2111133,1.36557111 10.8945899,2.13014433 11.3583994,3.11307571 C11.8221479,4.09600709 12.0540526,5.20098525 12.0540526,6.42779101 L12.0540526,8.5075848 C12.0540526,9.73439056 11.8221479,10.838906 11.3583994,11.8218374 C10.8945899,12.8052315 10.2111133,13.5698108 9.30845668,14.116038 C8.40531294,14.6620278 7.30929072,14.9353758 6.02105974,14.9353758 C4.74865843,14.9353758 3.65695893,14.6620278 2.74590035,14.116038 C1.83459824,13.5698108 1.14935604,12.8052315 0.689625801,11.8218374 C0.229652028,10.838906 -1.73040912e-14,9.73439056 -1.73040912e-14,8.5075848 L-1.73040912e-14,6.42779101 C-1.73040912e-14,5.20098525 0.229652028,4.09600709 0.689625801,3.11307571 C1.14935604,2.13014433 1.83459824,1.36557111 2.74590035,0.819343885 C3.65695893,0.273348015 4.74865843,0 6.02105974,0 Z M6.02105974,2.93672097 C5.15079301,2.93672097 4.4838767,3.24997803 4.02031081,3.87579807 C3.55625785,4.50161202 3.32435314,5.3522804 3.32435314,6.42779101 L3.32435314,8.5075848 C3.32435314,9.58309542 3.55857142,10.4337638 4.0262165,11.0595777 C4.49410511,11.6853978 5.15895138,11.9986548 6.02105974,11.9986548 C6.8908394,11.9986548 7.56000839,11.6853978 8.02765346,11.0595777 C8.49578561,10.4337638 8.72969947,9.58309542 8.72969947,8.5075848 L8.72969947,6.42779101 C8.72969947,5.3522804 8.49779476,4.50161202 8.03404622,3.87579807 C7.57023679,3.24997803 6.8992413,2.93672097 6.02105974,2.93672097 Z" id="path-51"></path>
        <path d="M2.81975186,0 C2.95917476,0 3.07820172,0.0503505375 3.17677188,0.150826344 C3.27540292,0.251996221 3.32435314,0.373817733 3.32435314,0.516753593 L3.32435314,5.09122473 C4.19437633,4.97404862 5.00321175,4.91510744 5.74988526,4.91510744 C7.08804059,4.91510744 8.20445874,5.17151162 9.09920057,5.6840947 C9.99369888,6.1966717 10.6626852,6.93990529 11.1058552,7.91471483 C11.5494513,8.88974964 11.770945,10.0490358 11.770945,11.393249 L11.770945,13.3718729 C11.770945,15.4221931 11.264091,17.014232 10.2503222,18.1486838 C9.23637078,19.2831356 7.73638748,19.8504833 5.74988526,19.8504833 C4.04253324,19.8504833 2.3516806,19.6279546 0.677327363,19.1824345 C0.480126165,19.1316152 0.336624089,19.0796391 0.246394952,19.0246431 C0.155983164,18.9703473 0.0922991714,18.9009647 0.0553429729,18.8167325 C0.0186303077,18.7329692 0,18.6236775 0,18.4890887 L0,0.516753593 C0,0.390755483 0.0494372871,0.272879213 0.148068328,0.163587496 C0.246394952,0.0547584926 0.365421918,0 0.505088342,0 L2.81975186,0 Z M5.74988526,7.70053936 C4.95377446,7.70053936 4.14518258,7.75947445 3.32435314,7.87665665 L3.32435314,16.8882339 C3.88247089,17.0061102 4.6913063,17.0645886 5.74988526,17.0645886 C6.76773324,17.0645886 7.47160575,16.7413528 7.86174631,16.094187 C8.25164334,15.447484 8.44659185,14.5397375 8.44659185,13.3718729 L8.44659185,11.393249 C8.44659185,10.2170312 8.25164334,9.30742775 7.86174631,8.6644386 C7.47160575,8.02168081 6.76773324,7.70053936 5.74988526,7.70053936 Z" id="path-53"></path>
    </defs>
    <g id="Page-2" stroke="none" stroke-width="1" fill="none" fill-rule="evenodd">
        <g id="authentification" transform="translate(-41.000000, -49.000000)">
            <g id="Group-15" transform="translate(41.000000, 49.000000)">
                <g id="Group-10" transform="translate(0.000000, 0.000365)">
                    <g id="Group-6">
                        <mask id="mask-2" fill="white">
                            <use xlink:href="#path-1"></use>
                        </mask>
                        <g id="Clip-5"></g>
                        <path d="M0.0967314799,0.676353229 C1.39466727,9.08053982 6.65165912,16.381319 14.1449393,20.5659358 L14.1449393,20.5659358 L19.8033291,23.7263483 C19.8033291,23.7263483 18.0780347,24.7614445 17.9633792,24.8358623 L17.9633792,24.8358623 C13.4917218,27.7441994 10.8986082,38.5936139 15.4789485,35.8538628 L15.4789485,35.8538628 L24.112087,30.6897424 C25.7372039,29.7179527 26.7192159,27.9683719 26.6927925,26.0921782 L26.6927925,26.0921782 L26.5825023,18.2883685 C26.547811,15.8313292 25.1758897,13.5837105 22.9924481,12.4052217 L22.9924481,12.4052217 L4.32602281e-15,0 C0.0301007324,0.228008177 0.0624967675,0.453093954 0.0967314799,0.676353229" id="Fill-4" fill="url(#linearGradient-3)" mask="url(#mask-2)"></path>
                    </g>
                    <g id="Group-9">
                        <mask id="mask-5" fill="white">
                            <use xlink:href="#path-4"></use>
                        </mask>
                        <g id="Clip-8"></g>
                        <path d="M0.0967314799,0.676353229 C1.39466727,9.08053982 6.65165912,16.381319 14.1449393,20.5659358 L14.1449393,20.5659358 L19.8033291,23.7263483 C19.8033291,23.7263483 18.0780347,24.7614445 17.9633792,24.8358623 L17.9633792,24.8358623 C13.4917218,27.7441994 10.8986082,38.5936139 15.4789485,35.8538628 L15.4789485,35.8538628 L24.112087,30.6897424 C25.7372039,29.7179527 26.7192159,27.9683719 26.6927925,26.0921782 L26.6927925,26.0921782 L26.5825023,18.2883685 C26.547811,15.8313292 25.1758897,13.5837105 22.9924481,12.4052217 L22.9924481,12.4052217 L4.32602281e-15,0 C0.0301007324,0.228008177 0.0624967675,0.453093954 0.0967314799,0.676353229" id="Fill-7" fill="url(#linearGradient-6)" mask="url(#mask-5)"></path>
                    </g>
                </g>
                <g id="Group-17" transform="translate(13.418022, 23.374095)">
                    <g id="Group-13">
                        <mask id="mask-8" fill="white">
                            <use xlink:href="#path-7"></use>
                        </mask>
                        <g id="Clip-12"></g>
                        <path d="M2.4656123,11.5416765 L9.27510544,7.70199447 C15.7188844,4.06796421 8.09704898,0.893262371 8.09704898,0.893262371 L9.07190723,1.4151119 C9.07190723,1.4151119 6.87827374,0.153243413 6.55282174,-0.0179849441 L6.90134853,-0.178863131 C6.90134853,-0.178863131 5.13350889,0.820908587 5.01552303,0.893262371 C0.43096352,3.70313895 -2.22915827,14.1893111 2.4656123,11.5416765 Z" id="Fill-11" fill="url(#linearGradient-9)" mask="url(#mask-8)"></path>
                    </g>
                    <g id="Group-16">
                        <mask id="mask-11" fill="white">
                            <use xlink:href="#path-10"></use>
                        </mask>
                        <g id="Clip-15"></g>
                        <path d="M2.4656123,11.5416765 L9.27510544,7.70199447 C15.7188844,4.06796421 8.09704898,0.893262371 8.09704898,0.893262371 L9.07190723,1.4151119 C9.07190723,1.4151119 6.87827374,0.153243413 6.55282174,-0.0179849441 L6.90134853,-0.178863131 C6.90134853,-0.178863131 5.13350889,0.820908587 5.01552303,0.893262371 C0.43096352,3.70313895 -2.22915827,14.1893111 2.4656123,11.5416765 Z" id="Fill-14" fill="url(#linearGradient-12)" mask="url(#mask-11)"></path>
                    </g>
                </g>
                <g id="Group-24">
                    <g id="Group-20">
                        <mask id="mask-14" fill="white">
                            <use xlink:href="#path-13"></use>
                        </mask>
                        <g id="Clip-19"></g>
                        <path d="M22.9811908,17.7548172 C25.1646324,18.9191931 26.5365537,21.1418558 26.571245,23.5706513 L26.6925612,26.2636501 C26.7460959,25.9552272 26.6971579,26.1138466 26.6925612,25.7944342 L26.5825023,18.0793924 C26.5475796,15.6505909 25.1758897,13.428604 22.9924481,12.2637775 L-4.32602281e-15,8.65204562e-15 C0.0301007324,0.225207543 0.0622654107,0.447736218 0.0967314799,0.668438393 C0.405994588,2.64726931 0.942261297,4.56308595 1.67727564,6.39183939 L22.9811908,17.7548172 Z" id="Fill-18" fill="url(#linearGradient-15)" mask="url(#mask-14)"></path>
                    </g>
                    <g id="Group-23">
                        <mask id="mask-17" fill="white">
                            <use xlink:href="#path-16"></use>
                        </mask>
                        <g id="Clip-22"></g>
                        <path d="M22.9811908,17.7548172 C25.1646324,18.9191931 26.5365537,21.1418558 26.571245,23.5706513 L26.6925612,26.2636501 C26.7460959,25.9552272 26.6971579,26.1138466 26.6925612,25.7944342 L26.5825023,18.0793924 C26.5475796,15.6505909 25.1758897,13.428604 22.9924481,12.2637775 L-4.32602281e-15,8.65204562e-15 C0.0301007324,0.225207543 0.0622654107,0.447736218 0.0967314799,0.668438393 C0.405994588,2.64726931 0.942261297,4.56308595 1.67727564,6.39183939 L22.9811908,17.7548172 Z" id="Fill-21" fill="url(#linearGradient-18)" mask="url(#mask-17)"></path>
                    </g>
                </g>
                <g id="Group-31" transform="translate(4.703172, 12.127113)">
                    <g id="Group-27">
                        <mask id="mask-20" fill="white">
                            <use xlink:href="#path-19"></use>
                        </mask>
                        <g id="Clip-26"></g>
                        <path d="M0.765462113,1.03075526 C0.895137578,1.18863798 1.03901713,1.36371417 1.19527427,1.55439476 C1.35198195,1.74461873 1.51763339,1.95430101 1.71077367,2.16420248 C1.90093066,2.3770507 2.10323997,2.60324455 2.31653873,2.84232741 C2.54015113,3.0716872 2.77544704,3.31303492 3.02082524,3.56456234 C3.27170121,3.8111095 3.53953319,4.06127922 3.81331957,4.32411268 C4.09604362,4.57722307 4.38632938,4.84141422 4.69265183,5.10424768 C5.30712321,5.62811245 5.97338198,6.1610184 6.69347381,6.67176281 C7.41448499,7.18272639 8.1769699,7.67967463 8.99856038,8.13318868 C9.80296958,8.5828549 10.6204383,9.03954097 11.4379008,9.49644622 C13.0826891,10.3985002 14.7201775,11.1768939 16.2623225,12.0226246 C16.6442499,12.2341151 17.6351388,12.7565187 17.9914038,12.9580609 C18.3467556,13.1758833 18.6899612,13.3989051 18.9930751,13.6511083 C19.3044387,13.8947209 19.5731839,14.1684099 19.8011495,14.4547687 C20.0323236,14.7400011 20.1986569,15.0559918 20.2978664,15.3751485 C20.5013142,16.0186612 20.3702628,16.6651207 20.1232833,17.1593475 C19.8726326,17.658104 19.5447757,18.035392 19.2590745,18.322658 C18.9685635,18.6076591 18.7192887,18.8114539 18.5433358,18.9419696 C18.3678334,19.0736116 18.2681735,19.1353656 18.2681735,19.1353656 C18.2681735,19.1353656 18.3712734,19.0788171 18.5545566,18.9573487 C18.7373893,18.8356612 19.0027008,18.6490476 19.3067279,18.3715108 C19.6080092,18.0928416 19.9578632,17.7252827 20.2408126,17.2186113 C20.3789691,16.9650504 20.4937525,16.672585 20.548511,16.3482229 C20.6044141,16.0243173 20.587458,15.6691968 20.4898559,15.320183 C20.3915719,14.9720702 20.2197347,14.6280366 19.9839822,14.3206365 C19.7509755,14.0107585 19.4755879,13.7164788 19.1600964,13.4559102 C18.8512595,13.186063 18.504614,12.9478812 18.1453657,12.7144483 C17.7728326,12.4871281 16.7977551,11.9762559 16.4130758,11.7575263 C14.8787239,10.8982247 13.2487972,10.1064853 11.6120273,9.19018467 C10.7883728,8.73870412 9.96449313,8.28722358 9.15343547,7.84275679 C8.35453013,7.41095375 7.58815477,6.92170117 6.87286663,6.42295079 C6.15941717,5.91876961 5.4830822,5.4120983 4.86036113,4.90859292 C4.54991079,4.65548254 4.25482133,4.40102054 3.96751276,4.15650688 C3.68914187,3.90317123 3.4165001,3.66137297 3.16081435,3.42319118 C2.90970703,3.18026049 2.6691447,2.94705897 2.4402598,2.72516348 C2.21824864,2.49670476 2.00747045,2.28046534 1.80928903,2.07667047 C1.60789906,1.87581019 1.43446063,1.67427409 1.27019124,1.49128307 C1.10591577,1.30784151 0.955393838,1.13977909 0.819301267,0.987327159 C0.29784139,0.358968282 0,0 0,0 C0,0 0.0691939369,0.0936446937 0.199094671,0.269396685 C0.3301461,0.44469205 0.517100629,0.705942542 0.765462113,1.03075526 Z" id="Fill-25" fill="url(#linearGradient-21)" mask="url(#mask-20)"></path>
                    </g>
                    <g id="Group-30">
                        <mask id="mask-23" fill="white">
                            <use xlink:href="#path-22"></use>
                        </mask>
                        <g id="Clip-29"></g>
                        <path d="M0.765462113,1.03075526 C0.895137578,1.18863798 1.03901713,1.36371417 1.19527427,1.55439476 C1.35198195,1.74461873 1.51763339,1.95430101 1.71077367,2.16420248 C1.90093066,2.3770507 2.10323997,2.60324455 2.31653873,2.84232741 C2.54015113,3.0716872 2.77544704,3.31303492 3.02082524,3.56456234 C3.27170121,3.8111095 3.53953319,4.06127922 3.81331957,4.32411268 C4.09604362,4.57722307 4.38632938,4.84141422 4.69265183,5.10424768 C5.30712321,5.62811245 5.97338198,6.1610184 6.69347381,6.67176281 C7.41448499,7.18272639 8.1769699,7.67967463 8.99856038,8.13318868 C9.80296958,8.5828549 10.6204383,9.03954097 11.4379008,9.49644622 C13.0826891,10.3985002 14.7201775,11.1768939 16.2623225,12.0226246 C16.6442499,12.2341151 17.6351388,12.7565187 17.9914038,12.9580609 C18.3467556,13.1758833 18.6899612,13.3989051 18.9930751,13.6511083 C19.3044387,13.8947209 19.5731839,14.1684099 19.8011495,14.4547687 C20.0323236,14.7400011 20.1986569,15.0559918 20.2978664,15.3751485 C20.5013142,16.0186612 20.3702628,16.6651207 20.1232833,17.1593475 C19.8726326,17.658104 19.5447757,18.035392 19.2590745,18.322658 C18.9685635,18.6076591 18.7192887,18.8114539 18.5433358,18.9419696 C18.3678334,19.0736116 18.2681735,19.1353656 18.2681735,19.1353656 C18.2681735,19.1353656 18.3712734,19.0788171 18.5545566,18.9573487 C18.7373893,18.8356612 19.0027008,18.6490476 19.3067279,18.3715108 C19.6080092,18.0928416 19.9578632,17.7252827 20.2408126,17.2186113 C20.3789691,16.9650504 20.4937525,16.672585 20.548511,16.3482229 C20.6044141,16.0243173 20.587458,15.6691968 20.4898559,15.320183 C20.3915719,14.9720702 20.2197347,14.6280366 19.9839822,14.3206365 C19.7509755,14.0107585 19.4755879,13.7164788 19.1600964,13.4559102 C18.8512595,13.186063 18.504614,12.9478812 18.1453657,12.7144483 C17.7728326,12.4871281 16.7977551,11.9762559 16.4130758,11.7575263 C14.8787239,10.8982247 13.2487972,10.1064853 11.6120273,9.19018467 C10.7883728,8.73870412 9.96449313,8.28722358 9.15343547,7.84275679 C8.35453013,7.41095375 7.58815477,6.92170117 6.87286663,6.42295079 C6.15941717,5.91876961 5.4830822,5.4120983 4.86036113,4.90859292 C4.54991079,4.65548254 4.25482133,4.40102054 3.96751276,4.15650688 C3.68914187,3.90317123 3.4165001,3.66137297 3.16081435,3.42319118 C2.90970703,3.18026049 2.6691447,2.94705897 2.4402598,2.72516348 C2.21824864,2.49670476 2.00747045,2.28046534 1.80928903,2.07667047 C1.60789906,1.87581019 1.43446063,1.67427409 1.27019124,1.49128307 C1.10591577,1.30784151 0.955393838,1.13977909 0.819301267,0.987327159 C0.29784139,0.358968282 0,0 0,0 C0,0 0.0691939369,0.0936446937 0.199094671,0.269396685 C0.3301461,0.44469205 0.517100629,0.705942542 0.765462113,1.03075526 Z" id="Fill-28" fill="url(#linearGradient-24)" mask="url(#mask-23)"></path>
                    </g>
                </g>
                <g id="Group-34" transform="translate(37.333608, 35.204341)">
                    <mask id="mask-26" fill="white">
                        <use xlink:href="#path-25"></use>
                    </mask>
                    <g id="Clip-33"></g>
                    <polygon id="Fill-32" fill="#FFFFFF" mask="url(#mask-26)" points="-0.608833585 -0.608833585 140.980044 -0.608833585 140.980044 8.52367019 -0.608833585 8.52367019"></polygon>
                </g>
                <g id="Group-37" transform="translate(84.464999, 9.600338)">
                    <mask id="mask-28" fill="white">
                        <use xlink:href="#path-27"></use>
                    </mask>
                    <g id="Clip-36"></g>
                    <polygon id="Fill-35" fill="#FFFFFF" mask="url(#mask-28)" points="-0.608833585 -0.608833585 4.08095064 -0.608833585 4.08095064 20.4089602 -0.608833585 20.4089602"></polygon>
                </g>
                <g id="Group-40" transform="translate(90.084351, 10.041748)">
                    <mask id="mask-30" fill="white">
                        <use xlink:href="#path-29"></use>
                    </mask>
                    <g id="Clip-39"></g>
                    <polygon id="Fill-38" fill="#FFFFFF" mask="url(#mask-30)" points="-0.608833585 -0.608833585 15.107901 -0.608833585 15.107901 19.9676228 -0.608833585 19.9676228"></polygon>
                </g>
                <g id="Group-43" transform="translate(107.029407, 15.022944)">
                    <mask id="mask-32" fill="white">
                        <use xlink:href="#path-31"></use>
                    </mask>
                    <g id="Clip-42"></g>
                    <polygon id="Fill-41" fill="#FFFFFF" mask="url(#mask-32)" points="-0.608833585 -0.608833585 6.83707939 -0.608833585 6.83707939 14.9863778 -0.608833585 14.9863778"></polygon>
                </g>
                <g id="Group-46" transform="translate(114.568958, 15.022853)">
                    <mask id="mask-34" fill="white">
                        <use xlink:href="#path-33"></use>
                    </mask>
                    <g id="Clip-45"></g>
                    <polygon id="Fill-44" fill="#FFFFFF" mask="url(#mask-34)" points="-0.608833585 -0.608833585 9.63643533 -0.608833585 9.63643533 15.1669031 -0.608833585 15.1669031"></polygon>
                </g>
                <g id="Group-49" transform="translate(126.420574, 9.990168)">
                    <mask id="mask-36" fill="white">
                        <use xlink:href="#path-35"></use>
                    </mask>
                    <g id="Clip-48"></g>
                    <polygon id="Fill-47" fill="#FFFFFF" mask="url(#mask-36)" points="-0.608833585 -0.608833585 11.2245777 -0.608833585 11.2245777 20.0191302 -0.608833585 20.0191302"></polygon>
                </g>
                <g id="Group-52" transform="translate(140.717874, 9.835159)">
                    <mask id="mask-38" fill="white">
                        <use xlink:href="#path-37"></use>
                    </mask>
                    <g id="Clip-51"></g>
                    <polygon id="Fill-50" fill="#FFFFFF" mask="url(#mask-38)" points="-0.608833585 -0.608833585 2.90334472 -0.608833585 2.90334472 20.1741392 -0.608833585 20.1741392"></polygon>
                </g>
                <g id="Group-55" transform="translate(145.609547, 11.951525)">
                    <mask id="mask-40" fill="white">
                        <use xlink:href="#path-39"></use>
                    </mask>
                    <g id="Clip-54"></g>
                    <polygon id="Fill-53" fill="#FFFFFF" mask="url(#mask-40)" points="-0.608833585 -0.608833585 9.05603427 -0.608833585 9.05603427 18.2382067 -0.608833585 18.2382067"></polygon>
                </g>
                <g id="Group-58" transform="translate(155.947846, 15.022993)">
                    <mask id="mask-42" fill="white">
                        <use xlink:href="#path-41"></use>
                    </mask>
                    <g id="Clip-57"></g>
                    <polygon id="Fill-56" fill="#FFFFFF" mask="url(#mask-42)" points="-0.608833585 -0.608833585 11.7543238 -0.608833585 11.7543238 15.1666717 -0.608833585 15.1666717"></polygon>
                </g>
                <g id="Group-61" transform="translate(169.665293, 15.022853)">
                    <mask id="mask-44" fill="white">
                        <use xlink:href="#path-43"></use>
                    </mask>
                    <g id="Clip-60"></g>
                    <polygon id="Fill-59" fill="#FFFFFF" mask="url(#mask-44)" points="-0.608833585 -0.608833585 9.63637445 -0.608833585 9.63637445 15.1669031 -0.608833585 15.1669031"></polygon>
                </g>
                <g id="Group-64" transform="translate(180.432454, 11.951525)">
                    <mask id="mask-46" fill="white">
                        <use xlink:href="#path-45"></use>
                    </mask>
                    <g id="Clip-63"></g>
                    <polygon id="Fill-62" fill="#FFFFFF" mask="url(#mask-46)" points="-0.608833585 -0.608833585 9.05609516 -0.608833585 9.05609516 18.2382067 -0.608833585 18.2382067"></polygon>
                </g>
                <g id="Group-67" transform="translate(190.770935, 15.022993)">
                    <mask id="mask-48" fill="white">
                        <use xlink:href="#path-47"></use>
                    </mask>
                    <g id="Clip-66"></g>
                    <polygon id="Fill-65" fill="#FFFFFF" mask="url(#mask-48)" points="-0.608833585 -0.608833585 9.83789836 -0.608833585 9.83789836 15.1666717 -0.608833585 15.1666717"></polygon>
                </g>
                <g id="Group-70" transform="translate(36.950817, 10.218121)">
                    <mask id="mask-50" fill="white">
                        <use xlink:href="#path-49"></use>
                    </mask>
                    <g id="Clip-69"></g>
                    <polygon id="Fill-68" fill="#FFFFFF" mask="url(#mask-50)" points="-0.608833585 -0.608833585 16.7999287 -0.608833585 16.7999287 19.7912681 -0.608833585 19.7912681"></polygon>
                </g>
                <g id="Group-73" transform="translate(55.788998, 14.666734)">
                    <mask id="mask-52" fill="white">
                        <use xlink:href="#path-51"></use>
                    </mask>
                    <g id="Clip-72"></g>
                    <polygon id="Fill-71" fill="#FFFFFF" mask="url(#mask-52)" points="-0.608833585 -0.608833585 12.6628862 -0.608833585 12.6628862 15.5442094 -0.608833585 15.5442094"></polygon>
                </g>
                <g id="Group-76" transform="translate(70.293180, 9.751675)">
                    <mask id="mask-54" fill="white">
                        <use xlink:href="#path-53"></use>
                    </mask>
                    <g id="Clip-75"></g>
                    <polygon id="Fill-74" fill="#FFFFFF" mask="url(#mask-54)" points="-0.608833585 -0.608833585 12.3797786 -0.608833585 12.3797786 20.4593168 -0.608833585 20.4593168"></polygon>
                </g>
            </g>
        </g>
    </g>
</svg>