<?xml version="1.0" encoding="UTF-8"?>
<svg width="20px" height="30px" viewBox="0 0 20 30" version="1.1" xmlns="http://www.w3.org/2000/svg" xmlns:xlink="http://www.w3.org/1999/xlink">
    <title>643DA24F-EF18-4EB1-A8BF-EC6B6F12D326</title>
    <g id="Page-2" stroke="none" stroke-width="1" fill="none" fill-rule="evenodd">
        <g id="dashboard" transform="translate(-489.000000, -327.000000)" fill-rule="nonzero">
            <g id="man(1)" transform="translate(489.000000, 327.000000)">
                <path d="M19.9370874,26.8900645 L19.9370874,29.4229677 C19.9370874,29.708129 19.7053722,29.9390968 19.419288,29.9390968 L0.51961165,29.9390968 C0.233527508,29.9390968 0.00181229773,29.708129 0.00181229773,29.4229677 L0.00181229773,26.8900645 C0.00181229773,24.2326452 2.16297735,22.0797419 4.82964401,22.0790968 C5.77203883,22.0784516 6.6018123,21.5952258 7.0794822,20.8623226 C7.55935275,20.1272258 7.50990291,19.488 7.50990291,18.9713548 L7.51961165,18.9474839 C5.19598706,17.9887742 3.56168285,15.7068387 3.56168285,13.0442581 L3.56168285,12.8423226 C2.63902913,12.8423226 1.94355987,12.1155484 1.94355987,11.2590968 L1.94355987,8.57780645 C1.9228479,7.64425806 1.96556634,4.352 4.35132686,2.05974194 C7.12543689,-0.605419355 11.5215534,-0.387354839 14.7060194,1.03845161 C14.8095793,1.08490323 14.806343,1.23264516 14.7014887,1.27587097 L13.871068,1.61651613 C13.7467961,1.66748387 13.7733333,1.85006452 13.9066667,1.86425806 L14.3099029,1.90748387 C16.2406472,2.11329032 18.0341748,3.15845161 19.1461489,4.89780645 C19.1759223,4.94490323 19.1675081,5.01651613 19.1293204,5.05716129 C18.4432362,5.7803871 18.0600647,6.7403871 18.0600647,7.73845161 L18.0600647,11.2590968 C18.0600647,12.1332903 17.3487379,12.8423226 16.4717152,12.8423226 L16.3772168,12.8423226 L16.3772168,13.0442581 C16.3772168,15.7068387 14.7429126,17.9887742 12.419288,18.9474839 L12.4289968,18.9713548 C12.4289968,19.4730968 12.3754693,20.1210323 12.8594175,20.8623226 C13.3370874,21.5952258 14.1668608,22.0784516 15.1092557,22.0790968 C17.7759223,22.0797419 19.9370874,24.2326452 19.9370874,26.8900645 Z" id="Path" fill="#FFDFBA"></path>
                <path d="M19.9370874,26.8900645 L19.9370874,29.4229677 C19.9370874,29.708 19.7052427,29.9390968 19.419288,29.9390968 L0.51961165,29.9390968 C0.233656958,29.9390968 0.00181229773,29.708 0.00181229773,29.4229677 L0.00181229773,26.8900645 C0.00181229773,24.2326452 2.16330097,22.0800645 4.82932039,22.0790968 C5.77197411,22.0787742 6.60194175,21.5949677 7.0794822,20.8623226 C8.74640777,22.2818065 11.191521,22.2826452 12.8594175,20.8623226 C13.3368932,21.5949677 14.1669256,22.0787742 15.1095793,22.0790968 C17.7755987,22.0800645 19.9370874,24.2326452 19.9370874,26.8900645 L19.9370874,26.8900645 Z" id="Path" fill="#FE4F60"></path>
                <path d="M19.14589,4.89812903 C19.1759223,4.94516129 19.1675081,5.0163871 19.1291262,5.05690323 C18.4432362,5.78064516 18.0600647,6.74032258 18.0600647,7.73845161 L18.0600647,11.2590968 C18.0600647,12.0583226 17.4559871,12.8423226 16.3772168,12.8423226 L16.3772168,8.85716129 C16.3772168,7.14683871 14.9862783,5.7603871 13.2704207,5.7603871 L6.66847896,5.7603871 C4.95262136,5.7603871 3.56168285,7.14683871 3.56168285,8.85716129 L3.56168285,12.8423226 C2.63902913,12.8423226 1.94355987,12.1155484 1.94355987,11.2590968 L1.94355987,8.57780645 C1.9228479,7.64425806 1.96556634,4.352 4.35132686,2.05974194 C7.12524272,-0.605483871 11.5218123,-0.387290323 14.7057605,1.03864516 C14.8093204,1.08503226 14.8066019,1.23283871 14.7015534,1.27593548 L13.871068,1.61670968 C13.7469256,1.66767742 13.7730744,1.85006452 13.9065372,1.86432258 L14.3099029,1.90748387 C16.2409709,2.11309677 18.0340453,3.15825806 19.14589,4.89812903 Z" id="Path" fill="#42434D"></path>
                <path d="M16.3772168,13.0442581 C16.3772168,16.5730323 13.5067961,19.4313548 9.96944984,19.4313548 C6.6366343,19.4313548 3.56168285,16.8487097 3.56168285,12.8423226 L3.56168285,8.85716129 C3.56168285,7.14683871 4.95262136,5.7603871 6.66847896,5.7603871 L13.2704207,5.7603871 C14.9862783,5.7603871 16.3772168,7.14683871 16.3772168,8.85716129 L16.3772168,13.0442581 Z" id="Path" fill="#FFEBD2"></path>
                <path d="M15.2121683,28.8423226 L13.6587702,28.8423226 C13.3728155,28.8423226 13.1409709,28.6112258 13.1409709,28.3261935 C13.1409709,28.0411613 13.3728155,27.8100645 13.6587702,27.8100645 L15.2121683,27.8100645 C15.498123,27.8100645 15.7299676,28.0411613 15.7299676,28.3261935 C15.7299676,28.6112258 15.4981877,28.8423226 15.2121683,28.8423226 Z" id="Path" fill="#FFFFFF"></path>
                <path d="M8.51857605,17.1686452 C9.57210356,17.8256129 8.74135922,19.4367742 7.58809061,18.9753548 C5.21695793,18.0267097 3.56168285,15.7234839 3.56168285,13.0442581 L3.56168285,8.85716129 C3.56168285,8.20658065 3.76297735,7.60283871 4.10679612,7.1043871 C4.52841424,6.49322581 5.50343042,6.76322581 5.50343042,7.56683871 L5.50343042,11.7539355 C5.50343042,14.1094194 6.74563107,16.0629677 8.51857605,17.1686452 Z" id="Path" fill="#FFF3E4"></path>
                <path d="M12.5021359,20.0307097 C10.9075081,20.6960645 9.15508091,20.7476774 7.43676375,20.0307097 C7.52453074,19.6677419 7.50990291,19.4326452 7.50990291,18.9713548 L7.51961165,18.9474839 C9.07831715,19.5923871 10.8575405,19.5936774 12.419288,18.9474839 L12.4289968,18.9713548 C12.4289968,19.4328387 12.4143689,19.667871 12.5021359,20.0307097 Z" id="Path" fill="#FFD6A6"></path>
                <path d="M7.43754045,23.6376129 C7.1981877,23.7126452 6.94148867,23.754 6.66627832,23.7563871 C3.99339806,23.779871 1.81411003,25.8865161 1.81411003,28.5509032 L1.81411003,29.035871 C1.81411003,29.5347097 1.40841424,29.9390968 0.907961165,29.9390968 L0.51961165,29.9390968 C0.233656958,29.9390968 0.00181229773,29.708 0.00181229773,29.4229677 L0.00181229773,26.8900645 C0.00181229773,24.2325806 2.16330097,22.0800645 4.82932039,22.0790968 C5.77197411,22.0787742 6.60194175,21.5949677 7.0794822,20.8623226 C7.27197411,21.0261935 7.47805825,21.1734839 7.69514563,21.3024516 C8.65003236,21.8696129 8.49786408,23.3052903 7.43754045,23.6376129 Z" id="Path" fill="#FF6D7A"></path>
                <path d="M12.5013592,23.6376129 C12.740712,23.7126452 12.997411,23.754 13.2726214,23.7563871 C15.9455016,23.779871 18.1247896,25.8865161 18.1247896,28.5509032 L18.1247896,29.035871 C18.1247896,29.5347097 18.5304854,29.9390968 19.0309385,29.9390968 L19.419288,29.9390968 C19.7052427,29.9390968 19.9370874,29.708 19.9370874,29.4229677 L19.9370874,26.8900645 C19.9370874,24.2325806 17.7755987,22.0800645 15.1095793,22.0790968 C14.1669256,22.0787742 13.3369579,21.5949677 12.8594175,20.8623226 C12.6669256,21.0261935 12.4608414,21.1734839 12.243754,21.3024516 C11.288932,21.8696129 11.4410356,23.3052903 12.5013592,23.6376129 L12.5013592,23.6376129 Z" id="Path" fill="#E84857"></path>
                <path d="M14.7014887,1.27587097 C13.9404531,1.58806452 13.8319741,1.65690323 13.5682848,1.61612903 C9.31754045,0.959354839 5.58809061,2.71245161 4.3215534,6.82812903 L4.3215534,6.82877419 C3.84776699,7.372 3.56168285,8.08167742 3.56168285,8.85716129 L3.56168285,11.278 C3.56168285,12.3223871 1.94355987,12.3950968 1.94355987,11.2590968 L1.94355987,8.57780645 C1.9228479,7.64425806 1.96556634,4.352 4.35132686,2.05974194 C7.12543689,-0.605419355 11.5215534,-0.387354839 14.7060194,1.03845161 C14.8095793,1.08490323 14.806343,1.23264516 14.7014887,1.27587097 Z" id="Path" fill="#4D4E59"></path>
            </g>
        </g>
    </g>
</svg>