<?xml version="1.0" encoding="UTF-8"?>
<svg width="247px" height="154px" viewBox="0 0 247 154" version="1.1" xmlns="http://www.w3.org/2000/svg" xmlns:xlink="http://www.w3.org/1999/xlink">
    <title>3E5F9232-A235-4604-B137-07DE45B87E84</title>
    <g id="Page-2" stroke="none" stroke-width="1" fill="none" fill-rule="evenodd">
        <g id="dashboard" transform="translate(-1148.000000, -319.000000)">
            <g id="Group-5" transform="translate(925.000000, 298.000000)">
                <g id="Mar-Business_9" transform="translate(223.000000, 21.000000)">
                    <path d="M46.1369209,153.371819 C31.6088915,149.557492 23.9441288,134.251458 20.0722904,122.081107 C15.8877537,108.928463 15.1116633,96.5110169 15.1044418,96.3865989 L15.0857356,96.0725085 L15.3920825,96.1473333 C33.7424441,100.642915 45.1738554,114.334124 51.5323153,125.027989 C58.4148972,136.60409 61.000009,147.262282 61.0251537,147.368429 L60.5724633,147.476316 C60.5472316,147.37104 57.9749096,136.771141 51.1253028,125.255073 C44.8488023,114.702158 33.5994938,101.209322 15.5909774,96.6763277 C15.7411492,98.6939887 16.7217898,110.018644 20.5186294,121.948859 C24.3549695,134.003492 31.9343797,149.162486 46.2550746,152.922 L46.1369209,153.371819" id="Fill-2" fill="#BFBFBF"></path>
                    <path d="M55.0714441,149.652328 C46.0940271,135.017977 34.4453627,119.96513 20.4486768,104.914023 L20.789565,104.596452 C34.8071322,119.671051 46.4746768,134.74826 55.4681898,149.408712 L55.0714441,149.652328" id="Fill-3" fill="#BFBFBF"></path>
                    <path d="M172.026701,103.79687 C164.086565,135.787977 131.715243,155.285073 99.7241356,147.344068 C67.7330282,139.403932 48.2359322,107.03261 56.1763288,75.0418508 C64.1167254,43.0506565 96.4875254,23.5536475 128.478633,31.4940441 C160.46974,39.4343537 179.966836,71.8053277 172.026701,103.79687" id="Fill-4" fill="#F6F5F5"></path>
                    <path d="M161.481616,101.17887 C154.986644,127.346689 128.509085,143.293955 102.341266,136.798983 C76.1743164,130.304011 60.2267898,103.826452 66.7216746,77.6595028 C73.2164723,51.4920316 99.6945537,35.5444181 125.861503,42.0392158 C152.028452,48.5341006 167.976588,75.0120079 161.481616,101.17887" id="Fill-5" fill="#FFFFFF"></path>
                    <path d="M150.138689,98.3642373 C145.198508,118.26678 125.059311,130.396237 105.156768,125.456056 C85.254226,120.516746 73.1244203,100.377548 78.0644271,80.4741356 C83.0042599,60.5717672 103.143458,48.4419616 123.046,53.3819684 C142.949412,58.3219751 155.07887,78.4608249 150.138689,98.3642373" id="Fill-6" fill="#F6F5F5"></path>
                    <path d="M136.368305,94.9457853 C133.316147,107.243164 120.872599,114.738701 108.57435,111.685672 C96.2769718,108.633514 88.7823051,96.1899661 91.8344633,83.8925876 C94.8866215,71.594774 107.33104,64.1000203 119.628418,67.1522655 C131.925797,70.2046847 139.420463,82.6484068 136.368305,94.9457853" id="Fill-7" fill="#FFFFFF"></path>
                    <path d="M121.424215,91.2367345 C120.420169,95.2807571 116.328294,97.7456271 112.284271,96.7415819 C108.239379,95.7384068 105.775379,91.645661 106.778554,87.6016384 C107.782599,83.5576158 111.874475,81.0927458 115.919367,82.096791 C119.96339,83.0999661 122.42826,87.1927119 121.424215,91.2367345" id="Fill-8" fill="#F6F5F5"></path>
                    <path d="M172.242475,153.337017 C172.224203,153.213469 170.498011,140.779492 172.655751,125.51522 C174.646441,111.429006 180.446237,91.9797627 196.759797,79.2873785 L196.781548,79.2664972 L196.788508,79.2647571 L196.80591,79.2517062 L196.812,79.2595367 L197.010373,79.2108136 L197.458452,79.3343616 L197.165243,79.5623164 C197.189605,79.8233333 197.343605,80.6055141 197.532407,81.5677966 C198.444226,86.2199887 200.866463,98.5774011 200.816,112.42522 C200.752486,129.82113 196.916407,143.548881 189.41478,153.22652 L189.046746,152.941141 C203.561028,134.217525 201.423299,103.842113 197.075627,81.6574124 C196.900746,80.7664746 196.795469,80.2279096 196.742395,79.8929379 C180.784689,92.4913559 175.085819,111.657831 173.117751,125.568294 C170.967842,140.769051 172.685333,153.147345 172.702734,153.271763 L172.242475,153.337017" id="Fill-9" fill="#BFBFBF"></path>
                    <path d="M179.021955,153.203028 L178.565175,153.111672 C179.549209,148.226305 180.447977,143.400102 181.317164,138.733989 C184.637299,120.912621 187.504136,105.520452 193.512746,93.7503277 L193.926893,93.9626215 C187.949605,105.672712 185.087989,121.033559 181.774814,138.819254 C180.905627,143.487107 180.005989,148.314181 179.021955,153.203028" id="Fill-10" fill="#BFBFBF"></path>
                    <polyline id="Fill-11" fill="#BFBFBF" points="184.919198 120.038215 182.358621 105.376893 182.817141 105.296847 185.376847 119.958169 184.919198 120.038215"></polyline>
                    <polyline id="Fill-12" fill="#BFBFBF" points="183.198226 130.768621 182.908497 130.404938 195.700938 120.193955 195.990667 120.557638 183.198226 130.768621"></polyline>
                    <path d="M163.249571,152.77496 C155.716621,148.825774 151.657808,138.773141 151.512508,123.703763 C151.403751,112.361706 153.553661,102.055017 153.575412,101.95235 L153.628486,101.700904 L153.873842,101.778339 C169.54704,106.759412 173.542339,122.952904 173.580621,123.115605 L173.128192,123.222621 C173.09078,123.063401 169.192056,107.291887 153.979989,102.302113 C153.296994,105.769288 146.344373,143.387921 163.466215,152.363424 L163.249571,152.77496" id="Fill-13" fill="#BFBFBF"></path>
                    <path d="M168.419446,153.334407 C168.386384,153.07687 164.968802,127.475458 158.588678,113.120395 L159.014136,112.930723 C165.422102,127.348429 168.847514,153.015966 168.881446,153.273503 L168.419446,153.334407" id="Fill-14" fill="#BFBFBF"></path>
                    <polyline id="Fill-15" fill="#BFBFBF" points="164.907898 131.747435 164.454599 131.642158 167.24748 119.587525 167.70078 119.693672 164.907898 131.747435"></polyline>
                    <polyline id="Fill-16" fill="#BFBFBF" points="166.000689 139.22209 157.914384 132.312102 158.217164 131.958859 166.302599 138.867977 166.000689 139.22209"></polyline>
                    <path d="M199.778023,153.509288 L199.557898,153.098621 C217.043424,143.673299 214.129605,116.835537 213.735469,113.783379 C204.97835,116.999107 200.497559,123.957819 200.453186,124.028294 L200.059051,123.779458 C200.106034,123.706373 204.764316,116.470983 213.849446,113.247424 L214.113944,113.153458 L214.157446,113.431006 C214.202689,113.730305 218.52252,143.404452 199.778023,153.509288" id="Fill-17" fill="#BFBFBF"></path>
                    <path d="M195.619153,152.218994 L195.190215,152.038023 C195.27461,151.83878 203.647164,132.086757 209.048475,125.955469 L209.397367,126.262599 C204.04565,132.338203 195.703548,152.020621 195.619153,152.218994" id="Fill-18" fill="#BFBFBF"></path>
                    <polyline id="Fill-19" fill="#BFBFBF" points="200.346169 140.435819 200.166068 140.006881 209.27991 136.184723 209.460011 136.613661 200.346169 140.435819"></polyline>
                    <polygon id="Fill-20" fill="#FFFFFF" points="105.746667 153.058599 156.713706 153.058599 156.713706 115.396463 105.746667 115.396463"></polygon>
                    <path d="M105.979842,152.826294 L156.480531,152.826294 L156.480531,115.629638 L105.979842,115.629638 L105.979842,152.826294 Z M105.514362,153.290904 L156.946011,153.290904 L156.946011,115.164158 L105.514362,115.164158 L105.514362,153.290904 Z" id="Fill-21" fill="#BFBFBF"></path>
                    <polygon id="Fill-22" fill="#BFBFBF" points="128.086237 141.760045 156.713706 141.760045 156.713706 141.294565 128.086237 141.294565"></polygon>
                    <polygon id="Fill-23" fill="#BFBFBF" points="105.746667 128.831876 134.374136 128.831876 134.374136 128.366395 105.746667 128.366395"></polygon>
                    <path d="M85.4569492,152.902859 L60.4724938,152.902859 C48.9804395,152.902859 40.2850079,142.509164 42.3133706,131.197559 L42.3464328,131.013977 C42.9741785,127.512 44.6010972,124.266689 47.030904,121.668701 L62.2916949,105.349921 L83.1547797,105.349921 L98.791435,121.704373 C101.915808,124.972305 103.731616,129.272994 103.894316,133.790328 C104.269311,144.232746 95.9063277,152.902859 85.4569492,152.902859" id="Fill-24" fill="#FFFFFF"></path>
                    <path d="M62.3926215,105.583096 L47.201,121.827921 C44.7960768,124.398938 43.196652,127.590305 42.5756056,131.05487 L42.5423695,131.239322 C41.5879175,136.562328 43.0307322,141.99496 46.5012136,146.14252 C49.9716949,150.290949 55.0641356,152.669684 60.4724938,152.669684 L85.4569492,152.669684 C90.4467232,152.669684 95.1023955,150.692045 98.5669605,147.101322 C102.031525,143.509729 103.840373,138.785322 103.661141,133.799028 C103.501051,129.333898 101.711345,125.094983 98.6235141,121.865333 L83.0547232,105.583096 L62.3926215,105.583096 M85.4569492,153.135164 L60.4724938,153.135164 C54.9259706,153.135164 49.7035435,150.695525 46.1444034,146.440949 C42.5850893,142.187243 41.1052102,136.616271 42.0842847,131.156667 L42.1173469,130.972215 C42.7544023,127.419774 44.3948068,124.146621 46.8609819,121.50948 L62.1908554,105.117616 L83.2539661,105.117616 L98.9593559,121.543412 C102.126362,124.855718 103.962181,129.20252 104.126621,133.782497 C104.310203,138.895819 102.455243,143.741164 98.9019322,147.424113 C95.3494915,151.107062 90.5746215,153.135164 85.4569492,153.135164" id="Fill-25" fill="#BFBFBF"></path>
                    <path d="M70.6697299,145.175887 L70.6697299,141.851401 C68.3231006,141.746124 66.0479028,141.115333 64.7163684,140.346203 L65.7684407,136.248237 C67.2397062,137.05304 69.3039153,137.788237 71.5820712,137.788237 C73.5778938,137.788237 74.9437085,137.018237 74.9437085,135.618316 C74.9437085,134.28713 73.8231627,133.445785 71.2313514,132.570508 C67.4848881,131.310667 64.9273571,129.559243 64.9273571,126.164282 C64.9273571,123.081672 67.0999751,120.666395 70.8464384,119.931198 L70.8464384,116.604102 L74.2764621,116.604102 L74.2764621,119.685842 C76.6230045,119.791119 78.1998079,120.281831 79.3543729,120.840407 L78.339452,124.798294 C77.4298949,124.412859 75.8189853,123.606316 73.2956475,123.606316 C71.0203627,123.606316 70.2847299,124.58687 70.2847299,125.568294 C70.2847299,126.722859 71.5108136,127.458056 74.4874508,128.578689 C78.6531073,130.049955 80.3349266,131.97452 80.3349266,135.128475 C80.3349266,138.244147 78.1284633,140.90478 74.1025379,141.606045 L74.1025379,145.175887 L70.6697299,145.175887" id="Fill-26" fill="#DADADA"></path>
                    <path d="M80.1243729,104.007424 L64.7807525,104.007424 L60.6561627,89.9447006 C69.2862531,92.1154915 75.999435,85.9746328 82.7641243,89.4487684 L80.1243729,104.007424" id="Fill-27" fill="#FFFFFF"></path>
                    <path d="M64.9549379,103.774249 L79.9294802,103.774249 L82.5039774,89.5784068 C79.0873525,87.8991977 75.6184373,88.7031299 71.948713,89.5540452 C68.5279119,90.3457966 64.9940904,91.1636497 60.9922655,90.2640113 L64.9549379,103.774249 M80.3183955,104.239729 L64.6063062,104.239729 L60.3184068,89.6201695 L60.7128904,89.7193559 C64.7688328,90.7399322 68.3659073,89.905548 71.8436102,89.0998757 C75.6534136,88.2176384 79.2517062,87.3823842 82.8702712,89.2416949 L83.0234011,89.32 L80.3183955,104.239729" id="Fill-28" fill="#BFBFBF"></path>
                    <path d="M86.1268927,108.921503 L59.2340554,108.921503 C57.842661,108.921503 56.7042791,107.782599 56.7042791,106.391379 L56.7042791,104.120531 C56.7042791,102.729311 57.842661,101.591277 59.2340554,101.591277 L86.1268927,101.591277 C87.518113,101.591277 88.6561469,102.729311 88.6561469,104.120531 L88.6561469,106.391379 C88.6561469,107.782599 87.518113,108.921503 86.1268927,108.921503" id="Fill-29" fill="#FFFFFF"></path>
                    <path d="M60.0874938,101.823582 C58.350339,101.823582 56.9370192,103.236554 56.9370192,104.974056 L56.9370192,105.537853 C56.9370192,107.275356 58.350339,108.688328 60.0874938,108.688328 L85.2733672,108.688328 C87.0108701,108.688328 88.4238418,107.275356 88.4238418,105.537853 L88.4238418,104.974056 C88.4238418,103.236554 87.0108701,101.823582 85.2733672,101.823582 L60.0874938,101.823582 Z M85.2733672,109.153808 L60.0874938,109.153808 C58.0937593,109.153808 56.471626,107.532023 56.471626,105.537853 L56.471626,104.974056 C56.471626,102.980757 58.0937593,101.358102 60.0874938,101.358102 L85.2733672,101.358102 C87.2666667,101.358102 88.889322,102.980757 88.889322,104.974056 L88.889322,105.537853 C88.889322,107.532023 87.2666667,109.153808 85.2733672,109.153808 L85.2733672,109.153808 Z" id="Fill-30" fill="#BFBFBF"></path>
                    <path d="M180.958701,83.4619096 C180.253085,83.4619096 179.678847,84.0361469 179.678847,84.7417627 C179.678847,85.4482486 180.253085,86.0216158 180.958701,86.0216158 C181.665186,86.0216158 182.238554,85.4482486 182.238554,84.7417627 C182.238554,84.0361469 181.665186,83.4619096 180.958701,83.4619096 Z M180.958701,86.487096 C179.996418,86.487096 179.213367,85.7040452 179.213367,84.7417627 C179.213367,83.7794802 179.996418,82.9964294 180.958701,82.9964294 C181.920983,82.9964294 182.704034,83.7794802 182.704034,84.7417627 C182.704034,85.7040452 181.920983,86.487096 180.958701,86.487096 L180.958701,86.487096 Z" id="Fill-31" fill="#BFBFBF"></path>
                    <path d="M129.800249,95.2529153 C129.094633,95.2529153 128.520395,95.8271525 128.520395,96.5327684 C128.520395,97.2383842 129.094633,97.8126215 129.800249,97.8126215 C130.506734,97.8126215 131.080102,97.2383842 131.080102,96.5327684 C131.080102,95.8271525 130.506734,95.2529153 129.800249,95.2529153 Z M129.800249,98.2781017 C128.837966,98.2781017 128.054915,97.4950508 128.054915,96.5327684 C128.054915,95.5704859 128.837966,94.787435 129.800249,94.787435 C130.762531,94.787435 131.545582,95.5704859 131.545582,96.5327684 C131.545582,97.4950508 130.762531,98.2781017 129.800249,98.2781017 L129.800249,98.2781017 Z" id="Fill-32" fill="#BFBFBF"></path>
                    <path d="M30.5094011,89.7454576 C29.8035243,89.7454576 29.229548,90.3196949 29.229548,91.0253107 C29.229548,91.7309266 29.8035243,92.3051638 30.5094011,92.3051638 C31.215278,92.3051638 31.7893412,91.7309266 31.7893412,91.0253107 C31.7893412,90.3196949 31.215278,89.7454576 30.5094011,89.7454576 Z M30.5094011,92.7706441 C29.5470316,92.7706441 28.7640678,91.9875932 28.7640678,91.0253107 C28.7640678,90.0630282 29.5470316,89.2799774 30.5094011,89.2799774 C31.4718576,89.2799774 32.2548215,90.0630282 32.2548215,91.0253107 C32.2548215,91.9875932 31.4718576,92.7706441 30.5094011,92.7706441 L30.5094011,92.7706441 Z" id="Fill-33" fill="#BFBFBF"></path>
                    <path d="M10.0306203,118.834927 C10.0306203,119.477028 9.50963051,119.998192 8.86700678,119.998192 C8.22438305,119.998192 7.70348023,119.477028 7.70348023,118.834927 C7.70348023,118.191955 8.22438305,117.670791 8.86700678,117.670791 C9.50963051,117.670791 10.0306203,118.191955 10.0306203,118.834927" id="Fill-34" fill="#BFBFBF"></path>
                    <path d="M232.272023,108.827537 C232.272023,109.470508 231.751729,109.991672 231.108757,109.991672 C230.466655,109.991672 229.945492,109.470508 229.945492,108.827537 C229.945492,108.185435 230.466655,107.664271 231.108757,107.664271 C231.751729,107.664271 232.272023,108.185435 232.272023,108.827537" id="Fill-35" fill="#BFBFBF"></path>
                    <path d="M144.184893,20.7186554 L179.006294,20.7186554 C179.007164,20.6888994 179.007164,20.6591435 179.007164,20.6293876 C179.007164,18.2929379 177.032136,16.3921254 174.604678,16.3921254 C173.779864,16.3921254 172.976802,16.6125977 172.279887,17.0300508 L172.02235,17.1843119 L171.937085,16.8959751 C170.749458,12.8663955 167.423232,10.1588667 163.660237,10.1588667 C160.073864,10.1588667 156.892938,12.5898045 155.555661,16.3523638 L155.470395,16.5944136 L155.23809,16.4850475 C154.116588,15.9577932 152.828034,15.6792011 151.509898,15.6792011 C147.804328,15.6792011 144.712147,17.8277186 144.184893,20.7186554 Z M179.437842,21.1840486 L143.649808,21.1840486 L143.68287,20.9220746 C144.094407,17.6679763 147.459785,15.2137209 151.509898,15.2137209 C152.806282,15.2137209 154.078305,15.4709966 155.204158,15.9594463 C156.656282,12.1441616 159.950316,9.69338644 163.660237,9.69338644 C167.544169,9.69338644 170.982633,12.4111819 172.298158,16.4868746 C173.004644,16.1196237 173.795525,15.9267322 174.604678,15.9267322 C177.288802,15.9267322 179.472644,18.0363582 179.472644,20.6293876 C179.472644,20.744148 179.469164,20.8591695 179.457853,20.9738429 L179.437842,21.1840486 L179.437842,21.1840486 Z" id="Fill-36" fill="#BFBFBF"></path>
                    <path d="M192.842802,8.23760791 L217.541966,8.23760791 C217.522825,6.81950282 216.150746,5.67068023 214.465446,5.67068023 C213.885989,5.67068023 213.320452,5.80814915 212.83061,6.06794802 L212.587864,6.19706441 L212.500859,5.93587345 C211.663864,3.41810395 209.313842,1.7263661 206.654949,1.7263661 C204.118734,1.7263661 201.872249,3.24583277 200.929977,5.59750847 L200.842102,5.8165887 L200.624588,5.7256678 C199.830226,5.39452429 198.916667,5.21955593 197.982226,5.21955593 C195.41904,5.21955593 193.27261,6.49923503 192.842802,8.23760791 Z M217.973514,8.70300113 L192.292056,8.70300113 L192.330339,8.43737288 C192.630508,6.33766554 195.059706,4.75416271 197.982226,4.75416271 C198.894915,4.75416271 199.789333,4.91138192 200.587175,5.21068136 C201.648644,2.80358305 204.005627,1.26097288 206.654949,1.26097288 C209.426079,1.26097288 211.884859,2.96950282 212.854102,5.53973672 C213.350904,5.32022147 213.90339,5.20528701 214.465446,5.20528701 C216.418723,5.20528701 218.007446,6.57858418 218.007446,8.26640678 C218.007446,8.34253672 218.003966,8.41892768 217.996136,8.49505763 L217.973514,8.70300113 L217.973514,8.70300113 Z" id="Fill-37" fill="#BFBFBF"></path>
                    <path d="M42.5221842,20.3966475 L73.0495085,20.3966475 C72.5527062,18.1992328 69.8673638,16.5739672 66.6544192,16.5739672 C65.4969831,16.5739672 64.3652136,16.7906983 63.3814407,17.2009299 L63.1636655,17.2918508 L63.0757028,17.0727706 C61.908087,14.1572113 59.1221661,12.273452 55.978652,12.273452 C52.6811379,12.273452 49.7683627,14.3708972 48.7309073,17.4924859 L48.6440757,17.7535898 L48.4008949,17.6245605 C47.7904633,17.3007254 47.0855435,17.1293243 46.3628746,17.1293243 C44.2449831,17.1293243 42.5221842,18.5870169 42.5221842,20.3784633 L42.5221842,20.3966475 Z M73.596948,20.8620407 L42.0922023,20.8620407 L42.0701028,20.6539232 C42.0603582,20.5621322 42.056704,20.4702542 42.056704,20.3784633 C42.056704,18.3301763 43.9884034,16.6639311 46.3628746,16.6639311 C47.0680554,16.6639311 47.7588802,16.8121017 48.3772294,17.094348 C49.5480644,13.921339 52.5695096,11.8080588 55.978652,11.8080588 C59.2357085,11.8080588 62.1308215,13.7145266 63.4184181,16.6850734 C64.4061062,16.3073819 65.5194305,16.108487 66.6544192,16.108487 C70.2258271,16.108487 73.1942859,18.0379243 73.5592746,20.5964124 L73.596948,20.8620407 L73.596948,20.8620407 Z" id="Fill-38" fill="#BFBFBF"></path>
                    <path d="M126.765492,0.616 C126.765492,0.616 118.046655,14.337748 103.380983,17.4294938 L103.380983,1.86078983 C103.380983,1.86078983 114.311503,5.59515932 126.765492,0.616" id="Fill-39" fill="#EB5D60"></path>
                    <polygon id="Fill-40" fill="#102048" points="103.147808 30.0799412 103.613288 30.0799412 103.613288 1.86070282 103.147808 1.86070282"></polygon>
                    <polygon id="Fill-41" fill="#7D69ED" points="98.4486328 54.0985469 108.308983 54.0985469 108.308983 28.3614056 98.4486328 28.3614056"></polygon>
                    <polygon id="Fill-42" fill="#7D69ED" points="94.9057627 41.9673492 111.851853 41.9673492 111.851853 35.2126655 94.9057627 35.2126655"></polygon>
                    <polygon id="Fill-43" fill="#7D69ED" points="95.0588927 54.7219424 111.697853 54.7219424 111.697853 46.8096486 95.0588927 46.8096486"></polygon>
                    <polygon id="Fill-44" fill="#6D5AD6" points="95.0588927 53.0555232 111.697853 53.0555232 111.697853 50.3052746 95.0588927 50.3052746"></polygon>
                    <polygon id="Fill-45" fill="#7D69ED" points="91.3333107 122.644904 115.424305 122.644904 115.424305 72.5294757 91.3333107 72.5294757"></polygon>
                    <path d="M107.779989,78.0806102 L91.3333107,78.0806102 L91.3333107,74.459348 L107.580746,74.459348 C107.566825,74.473704 107.552034,74.4882339 107.538113,74.5026768 L107.779989,78.0806102" id="Fill-46" fill="#6D5AD6"></path>
                    <polyline id="Fill-47" fill="#7D69ED" points="126.681096 153.192588 80.0730395 153.192588 91.3315706 122.664915 115.426915 122.664915 126.681096 153.192588"></polyline>
                    <path d="M111.575175,131.866633 L87.9383503,131.866633 L90.0534576,126.13209 L109.772418,126.13209 C109.726305,126.181684 109.680192,126.232147 109.632339,126.28174 L111.575175,131.866633" id="Fill-48" fill="#6D5AD6"></path>
                    <polyline id="Fill-49" fill="#7D69ED" points="120.237458 53.0555232 86.5201582 53.0555232 91.3333107 72.5294757 115.424305 72.5294757 120.237458 53.0555232"></polyline>
                    <path d="M117.085243,74.459348 L89.6715028,74.459348 C88.8780113,74.459348 88.2289492,73.8100249 88.2289492,73.0162723 L88.2289492,72.0425921 C88.2289492,71.2489266 88.8780113,70.5995164 89.6715028,70.5995164 L117.085243,70.5995164 C117.878734,70.5995164 118.528667,71.2489266 118.528667,72.0425921 L118.528667,73.0162723 C118.528667,73.8100249 117.878734,74.459348 117.085243,74.459348" id="Fill-50" fill="#7D69ED"></path>
                    <path d="M117.435876,126.13209 L89.3217401,126.13209 C87.887887,126.13209 86.7141808,124.958384 86.7141808,123.524531 L86.7141808,121.765277 C86.7141808,120.330554 87.887887,119.157718 89.3217401,119.157718 L117.435876,119.157718 C118.869729,119.157718 120.043435,120.330554 120.043435,121.765277 L120.043435,123.524531 C120.043435,124.958384 118.869729,126.13209 117.435876,126.13209" id="Fill-51" fill="#7D69ED"></path>
                    <path d="M103.348791,119.300407 L90.258791,119.300407 C90.1300226,119.300407 90.0256158,119.196 90.0256158,119.067232 C90.0256158,118.938463 90.1300226,118.834927 90.258791,118.834927 L103.348791,118.834927 C103.477559,118.834927 103.581966,118.938463 103.581966,119.067232 C103.581966,119.196 103.477559,119.300407 103.348791,119.300407" id="Fill-52" fill="#4737A0"></path>
                    <path d="M116.613672,119.300407 L109.166859,119.300407 C109.03809,119.300407 108.933684,119.196 108.933684,119.067232 C108.933684,118.938463 109.03809,118.834927 109.166859,118.834927 L116.613672,118.834927 C116.742441,118.834927 116.845977,118.938463 116.845977,119.067232 C116.845977,119.196 116.742441,119.300407 116.613672,119.300407" id="Fill-53" fill="#4737A0"></path>
                    <path d="M116.598881,70.8320825 L104.861819,70.8320825 C104.733051,70.8320825 104.628644,70.7281107 104.628644,70.5995164 C104.628644,70.470835 104.733051,70.3667763 104.861819,70.3667763 L116.598881,70.3667763 C116.72765,70.3667763 116.831186,70.470835 116.831186,70.5995164 C116.831186,70.7281107 116.72765,70.8320825 116.598881,70.8320825" id="Fill-54" fill="#4737A0"></path>
                    <path d="M98.2293785,70.8321695 L90.782565,70.8321695 C90.6537966,70.8321695 90.5493898,70.7281107 90.5493898,70.5995164 C90.5493898,70.470835 90.6537966,70.3667763 90.782565,70.3667763 L98.2293785,70.3667763 C98.3581469,70.3667763 98.4616836,70.470835 98.4616836,70.5995164 C98.4616836,70.7281107 98.3581469,70.8321695 98.2293785,70.8321695" id="Fill-55" fill="#4737A0"></path>
                    <path d="M118.820136,131.866633 L117.700373,128.831876 L117.701243,128.831876 L118.820136,131.866633 M117.528972,128.366395 L117.528972,128.366395 L116.705028,126.13209 L117.528972,128.366395" id="Fill-56" fill="#FFFFFF"></path>
                    <polyline id="Fill-57" fill="#C9C9C9" points="117.701243 128.831876 117.700373 128.831876 117.528972 128.366395 117.701243 128.831876"></polyline>
                    <polyline id="Fill-58" fill="#907FF0" points="126.681096 153.192588 119.256904 153.192588 118.941073 153.043808 111.575175 131.866633 118.820136 131.866633 126.681096 153.192588"></polyline>
                    <path d="M118.820136,131.866633 L111.575175,131.866633 L109.632339,126.28174 C109.680192,126.232147 109.726305,126.181684 109.772418,126.13209 L116.705028,126.13209 L118.820136,131.866633" id="Fill-59" fill="#8373DC"></path>
                    <path d="M120.049932,122.711028 L120.049932,122.58226 C120.049932,122.604011 120.049932,122.624893 120.049932,122.646644 C120.049932,122.667525 120.049932,122.689277 120.049932,122.711028" id="Fill-60" fill="#FFFFFF"></path>
                    <path d="M115.433607,115.164158 L115.430607,115.164158 L115.430607,112.329514 C115.431607,112.329514 115.432607,112.329514 115.433607,112.329514 L115.433607,115.164158" id="Fill-61" fill="#F7F6F6"></path>
                    <path d="M115.430607,112.329514 L115.430607,96.8494689 C115.431607,96.8485989 115.432607,96.8485989 115.433607,96.8485989 L115.433607,112.329514 C115.432607,112.329514 115.431607,112.329514 115.430607,112.329514 M115.426915,81.9915141 C115.426045,81.9915141 115.425175,81.9906441 115.424305,81.9906441 L115.424305,74.459348 L116.673706,74.459348 C116.649345,74.4603051 116.624113,74.4607401 116.599751,74.4607401 L115.426915,74.4607401 L115.426915,81.9915141" id="Fill-62" fill="#FFFFFF"></path>
                    <path d="M115.430607,96.8494689 L115.430607,81.9906441 C115.431607,81.9906441 115.432607,81.9915141 115.433607,81.9915141 L115.433607,96.8485989 C115.432607,96.8485989 115.431607,96.8485989 115.430607,96.8494689" id="Fill-63" fill="#F7F6F6"></path>
                    <polygon id="Fill-64" fill="#FFFFFF" points="115.430607 118.834927 115.433607 118.834927 115.433607 115.629638 115.430607 115.629638"></polygon>
                    <polygon id="Fill-65" fill="#C9C9C9" points="115.430607 115.629638 115.433607 115.629638 115.433607 115.164158 115.430607 115.164158"></polygon>
                    <polyline id="Fill-66" fill="#907FF0" points="115.424305 118.834927 110.538938 118.834927 107.779989 78.0806102 115.424305 78.0806102 115.424305 118.834927"></polyline>
                    <path d="M115.424305,78.0806102 L107.779989,78.0806102 L107.538113,74.5026768 C107.552034,74.4882339 107.566825,74.473704 107.580746,74.459348 L115.424305,74.459348 L115.424305,78.0806102" id="Fill-67" fill="#8373DC"></path>
                    <path d="M116.673706,74.459348 L107.580746,74.459348 C109.144237,72.8464373 107.853073,71.1500011 107.584226,70.8320825 L116.598881,70.8320825 C116.723299,70.8320825 116.825096,70.7345492 116.831186,70.6116102 C117.783898,70.7271537 118.526056,71.5463119 118.526056,72.5292147 C118.526056,73.565452 117.701243,74.4197605 116.673706,74.459348" id="Fill-68" fill="#907FF0"></path>
                    <path d="M116.705028,126.13209 L109.772418,126.13209 C112.400859,123.243503 110.954825,119.953819 110.624203,119.300407 L116.613672,119.300407 C116.706768,119.300407 116.787684,119.245593 116.824226,119.166418 C117.677751,119.231672 118.446011,119.611017 119.019379,120.184384 C119.638859,120.802994 120.026034,121.648689 120.043435,122.58226 L120.043435,122.711028 C120.009503,124.547718 118.533017,126.049435 116.702418,126.12339 L116.705028,126.13209" id="Fill-69" fill="#907FF0"></path>
                    <path d="M116.613672,119.300407 L110.624203,119.300407 C110.585921,119.223842 110.563299,119.183819 110.563299,119.183819 L110.538938,118.834927 L115.426915,118.834927 L115.426915,119.155977 L116.557989,119.155977 C116.647605,119.155977 116.73635,119.159458 116.824226,119.166418 C116.787684,119.245593 116.706768,119.300407 116.613672,119.300407" id="Fill-70" fill="#6255AE"></path>
                    <polyline id="Fill-71" fill="#F7F6F6" points="116.87904 66.6430215 116.87904 66.6430215 120.237458 53.0555232 120.239198 53.0556972 116.87904 66.6430215"></polyline>
                    <polyline id="Fill-72" fill="#FFFFFF" points="116.722429 67.2792068 116.87904 66.6430215 116.722429 67.2792068"></polyline>
                    <polyline id="Fill-73" fill="#907FF0" points="115.95852 70.3667763 107.681672 70.3667763 113.705073 53.0556972 120.237458 53.0556972 116.87904 66.6430215 116.722429 67.2792068 115.95852 70.3667763"></polyline>
                    <path d="M116.598881,70.8320825 L107.584226,70.8320825 C107.554644,70.7974542 107.538113,70.7791831 107.538113,70.7791831 L107.681672,70.3667763 L115.95852,70.3667763 L115.901096,70.5976893 L116.599751,70.5976893 C116.678056,70.5976893 116.754621,70.6023876 116.831186,70.6116102 C116.825096,70.7345492 116.723299,70.8320825 116.598881,70.8320825" id="Fill-74" fill="#6255AE"></path>
                    <polygon id="Fill-75" fill="#86A7FF" points="141.667819 128.473412 161.205808 128.473412 161.205808 87.8295932 141.667819 87.8295932"></polygon>
                    <path d="M157.494147,92.6992994 L141.667819,92.6992994 L141.667819,89.3948249 L157.437593,89.3948249 C157.431503,89.4078757 157.424542,89.4209266 157.417582,89.4339774 L157.494147,92.6992994" id="Fill-76" fill="#6787DB"></path>
                    <polyline id="Fill-77" fill="#86A7FF" points="161.206678 87.8278531 141.667819 87.8278531 145.321186 82.2125085 145.721412 81.6008588 156.575367 81.6008588 157.23574 82.4848362 161.206678 87.8278531"></polyline>
                    <polyline id="Fill-78" fill="#86A7FF" points="170.337921 153.243921 132.535706 153.243921 141.667819 128.487333 161.206678 128.487333 170.337921 153.243921"></polyline>
                    <polyline id="Fill-79" fill="#6787DB" points="158.664373 134.970994 139.275164 134.970994 140.628972 131.301096 157.923955 131.301096 158.664373 134.970994"></polyline>
                    <path d="M159.684949,75.1793198 C159.684949,80.7534237 155.992429,85.2724972 151.436814,85.2724972 C146.881198,85.2724972 143.188678,80.7534237 143.188678,75.1793198 C143.188678,69.6051288 146.881198,65.0862294 151.436814,65.0862294 C155.992429,65.0862294 159.684949,69.6051288 159.684949,75.1793198" id="Fill-80" fill="#86A7FF"></path>
                    <path d="M153.926045,67.0135785 L148.947582,67.0135785 L148.947582,63.2289198 C148.947582,62.200861 149.781096,61.3674339 150.808633,61.3674339 L152.064994,61.3674339 C153.092531,61.3674339 153.926045,62.200861 153.926045,63.2289198 L153.926045,67.0135785" id="Fill-81" fill="#86A7FF"></path>
                    <path d="M162.553525,89.3948249 L140.320972,89.3948249 C139.67713,89.3948249 139.150746,88.8684407 139.150746,88.2245989 L139.150746,87.4354576 C139.150746,86.7916158 139.67713,86.2643616 140.320972,86.2643616 L162.553525,86.2643616 C163.196497,86.2643616 163.723751,86.7916158 163.723751,87.4354576 L163.723751,88.2245989 C163.723751,88.8684407 163.196497,89.3948249 162.553525,89.3948249" id="Fill-82" fill="#86A7FF"></path>
                    <path d="M162.837164,131.301096 L140.037333,131.301096 C138.874068,131.301096 137.922226,130.349254 137.922226,129.186859 L137.922226,127.759966 C137.922226,126.596701 138.874068,125.644859 140.037333,125.644859 L162.837164,125.644859 C164.000429,125.644859 164.952271,126.596701 164.952271,127.759966 L164.952271,129.186859 C164.952271,130.349254 164.000429,131.301096 162.837164,131.301096" id="Fill-83" fill="#86A7FF"></path>
                    <path d="M160.189582,86.487096 L155.632226,86.487096 C155.503458,86.487096 155.399051,86.3835593 155.399051,86.254791 C155.399051,86.1260226 155.503458,86.0216158 155.632226,86.0216158 L160.189582,86.0216158 C160.31748,86.0216158 160.421887,86.1260226 160.421887,86.254791 C160.421887,86.3835593 160.31748,86.487096 160.189582,86.487096" id="Fill-84" fill="#3A6BEA"></path>
                    <path d="M152.140689,86.487096 L142.483062,86.487096 C142.355164,86.487096 142.250757,86.3835593 142.250757,86.254791 C142.250757,86.1260226 142.355164,86.0216158 142.483062,86.0216158 L152.140689,86.0216158 C152.269458,86.0216158 152.373864,86.1260226 152.373864,86.254791 C152.373864,86.3835593 152.269458,86.487096 152.140689,86.487096" id="Fill-85" fill="#3A6BEA"></path>
                    <path d="M146.284339,125.877164 L140.75078,125.877164 C140.622011,125.877164 140.517605,125.773627 140.517605,125.644859 C140.517605,125.51609 140.622011,125.411684 140.75078,125.411684 L146.284339,125.411684 C146.413107,125.411684 146.517514,125.51609 146.517514,125.644859 C146.517514,125.773627 146.413107,125.877164 146.284339,125.877164" id="Fill-86" fill="#3A6BEA"></path>
                    <path d="M161.411141,125.877164 L150.058644,125.877164 C149.929876,125.877164 149.826339,125.773627 149.826339,125.644859 C149.826339,125.51609 149.929876,125.411684 150.058644,125.411684 L161.411141,125.411684 C161.53991,125.411684 161.643446,125.51609 161.643446,125.644859 C161.643446,125.773627 161.53991,125.877164 161.411141,125.877164" id="Fill-87" fill="#3A6BEA"></path>
                    <path d="M163.598463,134.970994 L162.244655,131.301096 L162.246395,131.301096 L163.598463,134.970994 M164.958703,128.550847 L164.958703,128.396847 C164.958703,128.422079 164.959703,128.448181 164.959703,128.473412 C164.959703,128.499514 164.958703,128.524746 164.958703,128.550847 M162.200282,125.651421 L161.643446,125.651421 L161.643446,125.650421 L162.122847,125.650421 C162.148949,125.650421 162.174181,125.650421 162.200282,125.651421" id="Fill-88" fill="#FFFFFF"></path>
                    <path d="M161.205808,125.411684 L161.215808,125.411684 L161.215808,120.055616 L161.205808,120.055616 L161.205808,125.411684 Z M161.215808,118.587831 C161.205808,118.58696 161.215808,118.588701 161.205808,118.58696 L161.205808,105.938949 L161.215808,105.938949 L161.215808,118.587831 L161.215808,118.587831 Z M161.215808,105.370802 L161.205808,105.370802 L161.205808,102.238599 L161.215808,102.237729 L161.215808,105.370802 L161.215808,105.370802 Z" id="Fill-89" fill="#F7F6F6"></path>
                    <path d="M161.205808,102.238599 L161.205808,89.3948249 L162.223774,89.3948249 C162.202893,89.3956949 162.182011,89.396565 162.16026,89.396565 L161.206678,89.396565 L161.206678,102.237729 L161.205808,102.238599" id="Fill-90" fill="#FFFFFF"></path>
                    <polygon id="Fill-91" fill="#C9C9C9" points="161.21224 105.938949 161.21324 105.938949 161.21324 105.370802 161.21224 105.370802"></polygon>
                    <path d="M161.21324,120.055616 L161.21224,120.055616 L161.21224,118.58696 C161.21324,118.588701 161.21224,118.58696 161.21324,118.587831 L161.21324,120.055616" id="Fill-92" fill="#C9C9C9"></path>
                    <path d="M163.730249,87.8826102 L163.730249,87.7826102 C163.730249,87.7989563 163.730249,87.816264 163.730249,87.8326102 C163.730249,87.8489563 163.730249,87.866264 163.730249,87.8826102" id="Fill-93" fill="#F7F6F6"></path>
                    <path d="M162.209853,86.2708588 L160.421887,86.2708588 L162.16026,86.2708588 C162.176791,86.2708588 162.193322,86.2708588 162.209853,86.2708588 M157.237525,82.4842458 L157.189525,82.4192458 L157.237525,82.4842458" id="Fill-94" fill="#FFFFFF"></path>
                    <polyline id="Fill-95" fill="#98B4FF" points="161.205808 125.411684 158.257186 125.411684 157.494147 92.6992994 161.205808 92.6992994 161.205808 125.411684"></polyline>
                    <path d="M161.205808,92.6992994 L157.494147,92.6992994 L157.417582,89.4339774 C157.424542,89.4209266 157.431503,89.4078757 157.437593,89.3948249 L161.205808,89.3948249 L161.205808,92.6992994" id="Fill-96" fill="#7E99E0"></path>
                    <path d="M159.863311,86.0216158 L156.635401,86.0216158 L155.660938,83.8508249 C156.214294,83.4453785 156.725887,82.9642373 157.186147,82.4169718 L157.22791,82.4735254 L157.23574,82.4848362 L159.863311,86.0216158" id="Fill-97" fill="#98B4FF"></path>
                    <polyline id="Fill-98" fill="#98B4FF" points="170.337921 153.243921 162.350802 153.243921 158.664373 134.970994 163.598463 134.970994 170.337921 153.243921"></polyline>
                    <polyline id="Fill-99" fill="#7E99E0" points="163.598463 134.970994 158.664373 134.970994 157.923955 131.301096 162.244655 131.301096 163.598463 134.970994"></polyline>
                    <path d="M155.660938,83.8508249 L154.895288,82.1446441 C159.54922,76.676339 153.926915,65.5804215 153.926915,65.5804215 C153.950407,65.5804215 153.968678,65.5804215 153.992169,65.5850328 C157.296644,66.897513 159.684079,70.6953966 159.684079,75.1774927 C159.684079,78.016226 158.725277,80.5811525 157.185277,82.4152316 L157.186147,82.4169718 C156.725887,82.9642373 156.214294,83.4453785 155.660938,83.8508249" id="Fill-100" fill="#98B4FF"></path>
                    <path d="M162.223774,89.3948249 L157.437593,89.3948249 C158.30678,87.7269266 157.555051,86.8455593 157.07739,86.487096 L160.189582,86.487096 C160.31487,86.487096 160.416667,86.3887797 160.421887,86.2643616 L162.209853,86.2643616 C163.033797,86.2904633 163.70026,86.9586667 163.723751,87.7826102 L163.723751,87.873096 C163.70026,88.6918192 163.040757,89.3617627 162.223774,89.3948249" id="Fill-101" fill="#98B4FF"></path>
                    <path d="M162.246395,131.301096 L157.923955,131.301096 L157.920475,131.284565 C160.131288,129.539232 158.269367,125.932847 158.269367,125.932847 L158.268497,125.877164 L161.411141,125.877164 C161.53991,125.877164 161.643446,125.773627 161.643446,125.644859 L162.200282,125.644859 C163.694169,125.685751 164.911379,126.90296 164.952271,128.396847 L164.952271,128.550847 C164.911379,130.028203 163.717661,131.234972 162.243785,131.294136 L162.246395,131.301096" id="Fill-102" fill="#98B4FF"></path>
                    <path d="M160.189582,86.487096 L157.07739,86.487096 C156.897288,86.3522373 156.756339,86.2922034 156.756339,86.2922034 L156.635401,86.0216158 L159.863311,86.0216158 L160.042542,86.2643616 L160.421887,86.2643616 C160.416667,86.3887797 160.31487,86.487096 160.189582,86.487096" id="Fill-103" fill="#5781ED"></path>
                    <path d="M161.411141,125.877164 L158.268497,125.877164 L158.257186,125.411684 L161.206678,125.411684 L161.206678,125.643989 L161.643446,125.643989 L161.643446,125.644859 C161.643446,125.773627 161.53991,125.877164 161.411141,125.877164" id="Fill-104" fill="#5781ED"></path>
                    <path d="M58.0945424,138.513864 C58.0945424,138.513864 58.7102814,152.76278 59.8365695,153.152565 C60.9628576,153.54235 77.0680384,150.851266 77.8992034,150.173492 C78.7304554,149.495718 76.6045593,146.827254 67.4158056,146.367864 L66.1397808,138.057955 L58.0945424,138.513864" id="Fill-105" fill="#102048"></path>
                    <path d="M64.679565,143.309616 C64.2304418,143.309616 63.8650181,143.691571 63.8650181,144.161401 C63.8650181,144.631232 64.2304418,145.013186 64.679565,145.013186 C65.1286011,145.013186 65.4940249,144.631232 65.4940249,144.161401 C65.4940249,143.691571 65.1286011,143.309616 64.679565,143.309616 Z M64.679565,145.362949 C64.0379853,145.362949 63.5159514,144.824384 63.5159514,144.161401 C63.5159514,143.499288 64.0379853,142.960723 64.679565,142.960723 C65.3210576,142.960723 65.8430915,143.499288 65.8430915,144.161401 C65.8430915,144.824384 65.3210576,145.362949 64.679565,145.362949 L64.679565,145.362949 Z" id="Fill-106" fill="#FFFFFF"></path>
                    <polyline id="Fill-107" fill="#FFFFFF" points="65.1101559 148.946712 64.7920633 148.60739 67.2743345 146.279989 67.5925141 146.620181 65.1101559 148.946712"></polyline>
                    <path d="M22.6187718,132.466972 C22.6187718,132.466972 14.5830169,140.164362 14.9448734,141.611266 C15.3067299,143.05904 20.4987051,151.84574 21.2653989,152.61226 C21.7478452,153.094271 22.1579898,153.190847 26.7897356,153.190847 L28.8402847,153.190847 C28.7920836,151.550791 26.5605627,149.246881 25.2217198,149.283424 L24.6426972,143.493198 L29.0332633,138.523435 L22.6187718,132.466972" id="Fill-108" fill="#102048"></path>
                    <polyline id="Fill-109" fill="#FFFFFF" points="24.6266011 143.725503 21.4174847 143.501898 21.4497638 143.037288 24.6588802 143.260893 24.6266011 143.725503"></polyline>
                    <path d="M24.0322655,139.720633 C23.5939311,139.720633 23.2371209,140.077356 23.2371209,140.515864 C23.2371209,140.954373 23.5939311,141.311096 24.0322655,141.311096 C24.470687,141.311096 24.8272362,140.954373 24.8272362,140.515864 C24.8272362,140.077356 24.470687,139.720633 24.0322655,139.720633 Z M24.0322655,141.659989 C23.4013876,141.659989 22.8880542,141.146655 22.8880542,140.515864 C22.8880542,139.885073 23.4013876,139.37174 24.0322655,139.37174 C24.6631435,139.37174 25.1763028,139.885073 25.1763028,140.515864 C25.1763028,141.146655 24.6631435,141.659989 24.0322655,141.659989 L24.0322655,141.659989 Z" id="Fill-110" fill="#FFFFFF"></path>
                    <path d="M55.9078294,107.743446 C55.7915028,109.889006 53.8878192,113.412734 51.1650644,117.410644 C43.797426,128.255028 30.430313,142.622271 30.430313,142.622271 L20.0093853,133.504949 L40.3579186,102.023695 C40.5673412,97.7369266 40.8279232,94.632565 41.0979017,92.3886893 C41.9310678,85.3847345 42.8805605,86.7524633 42.8805605,86.7524633 C42.8805605,86.7524633 44.6211955,88.4377627 46.8366203,90.9696271 C48.4516192,92.8219774 50.3226757,95.125887 51.9423729,97.5507345 C53.0873672,99.268226 54.1112497,101.045751 54.8327006,102.768463 C55.5680723,104.527718 55.9916158,106.226068 55.9078294,107.743446" id="Fill-111" fill="#3A6BEA"></path>
                    <path d="M27.8134441,140.031243 L27.4970915,139.690181 C38.5362814,129.468757 45.0870237,119.50574 48.6385944,112.948124 C52.4870282,105.842373 53.7407797,101.092734 53.7531345,101.045751 L54.2035627,101.162339 C54.1544045,101.352011 49.0465638,120.370576 27.8134441,140.031243" id="Fill-112" fill="#1F3C88"></path>
                    <polyline id="Fill-113" fill="#1F3C88" points="30.553948 137.530701 21.9560497 130.784282 22.2433424 130.417989 30.8412407 137.164407 30.553948 137.530701"></polyline>
                    <path d="M55.9078294,107.743446 C55.7915028,109.889006 53.8878192,113.412734 51.1650644,117.410644 C46.4786791,109.155548 42.9864463,100.824757 41.0979017,92.3886893 L46.8366203,90.9696271 L48.1212588,90.6529266 L54.8327006,102.768463 C55.5680723,104.527718 55.9916158,106.226068 55.9078294,107.743446" id="Fill-114" fill="#1F3C88"></path>
                    <path d="M69.9125198,141.435514 L66.7010542,141.706102 L58.3094463,142.413458 L56.2382768,142.590079 L52.8639367,110.843458 C52.8639367,110.843458 44.2255808,98.2955028 43.3133266,96.8851412 C42.2708249,95.2746667 41.5585966,93.771209 41.0979017,92.3886893 C39.6317695,88.0462373 40.6278102,84.8444294 41.6937164,82.945096 C41.7076373,82.912904 41.7262565,82.8807119 41.7448757,82.8476497 C42.4709379,81.5860678 43.2109209,80.9300452 43.2109209,80.9300452 L48.7728441,81.6147797 L59.3007887,82.9085537 C59.7383401,85.4778305 60.2456701,87.7164859 60.7901514,89.6984746 C62.9869571,97.6760226 65.8214271,101.576486 67.3434169,106.501006 C69.624009,113.882565 69.9125198,141.435514 69.9125198,141.435514" id="Fill-115" fill="#3A6BEA"></path>
                    <path d="M41.6937164,82.9476497 L41.5260565,82.8860426 L41.7448757,82.8476497 C41.7262565,82.8815783 41.7076373,82.914614 41.6937164,82.9476497" id="Fill-116" fill="#B7BCC8"></path>
                    <path d="M60.7901514,89.6984746 L41.6937164,82.945096 C41.7076373,82.912904 41.7262565,82.8807119 41.7448757,82.8476497 L48.7728441,81.6147797 L59.3007887,82.9085537 C59.7383401,85.4778305 60.2456701,87.7164859 60.7901514,89.6984746" id="Fill-117" fill="#2D54B9"></path>
                    <path d="M66.4683141,141.706972 C66.466487,141.425073 66.235574,113.417085 61.953504,105.447367 C56.4179435,95.1450282 52.9677345,80.5585311 52.9336282,80.4123616 L53.3867537,80.3062147 C53.4208599,80.4515141 56.857496,94.9797175 62.3634746,105.227243 C66.7000972,113.297887 66.9262249,140.548056 66.9337073,141.704362 L66.4683141,141.706972" id="Fill-118" fill="#1F3C88"></path>
                    <polyline id="Fill-119" fill="#1F3C88" points="56.0131932 139.487458 55.9700384 139.023718 66.6166588 138.034463 66.6598136 138.498203 56.0131932 139.487458"></polyline>
                    <path d="M58.3574734,46.9842689 C58.6211006,51.6778757 57.6788294,53.2966158 55.0673548,53.0339458 C53.6133164,52.8876893 49.325852,50.0507831 49.325852,46.9064859 C49.325852,43.7621887 51.5187424,41.2626034 54.222965,41.2132712 C57.8533627,41.1469729 58.1677141,43.6036644 58.3574734,46.9842689" id="Fill-120" fill="#F9B384"></path>
                    <path d="M55.8876441,49.8978271 L49.8565864,49.2224023 L50.0220712,53.4651458 C51.650904,53.9852655 54.453878,54.8975198 56.1532723,55.4517458 L55.8876441,49.8978271" id="Fill-121" fill="#F9B384"></path>
                    <path d="M49.9639514,52.359739 L50.2425435,59.1132045 L56.3700904,59.9816949 L56.0951525,54.346252 C54.3956712,53.792113 51.5926972,52.8798588 49.9639514,52.359739" id="Fill-122" fill="#D3DFFF"></path>
                    <path d="M50.327026,48.1488395 C50.327026,48.1488395 51.3977175,43.9003537 53.330461,44.5302746 C58.2155672,46.122478 60.5593254,43.4935153 59.4458271,39.2833119 C59.4458271,39.2833119 57.8756362,40.4468384 56.240191,40.1684203 C54.6048328,39.8900893 53.3870147,37.5936621 49.6987582,41.4907322 C46.9499017,41.3515232 46.2540305,47.4058983 49.4551424,49.2847853 L50.327026,48.1488395" id="Fill-123" fill="#102048"></path>
                    <path d="M50.8123435,47.2954011 C51.358391,48.3300723 51.1706328,49.5015164 50.3929763,49.912009 C49.6152328,50.3224147 48.5421921,49.8163028 47.9961446,48.7817186 C47.4500972,47.7470475 47.6378554,46.5755164 48.4155119,46.1651107 C49.1931684,45.7547051 50.266296,46.2607299 50.8123435,47.2954011" id="Fill-124" fill="#F9B384"></path>
                    <path d="M55.8752893,53.3547356 L55.8732011,53.3547356 C53.2658158,53.3252407 52.1541446,52.0970689 52.1082056,52.0448655 C52.0445175,51.9725638 52.051565,51.8627627 52.1234316,51.7989876 C52.1952113,51.7351254 52.3054475,51.7412158 52.3697446,51.8136915 C52.3800113,51.8252633 53.4362599,52.9780011 55.8772904,53.0056689 C55.9736056,53.0068 56.0509537,53.0859751 56.0497498,53.1822904 C56.0486045,53.2779966 55.9707345,53.3547356 55.8752893,53.3547356" id="Fill-125" fill="#E28B6D"></path>
                    <path d="M50.0282486,48.6859254 C49.9664746,48.6859254 49.9148802,48.6372893 49.9121831,48.5749932 C49.8935638,48.1737232 49.7747141,47.8809492 49.5587661,47.7044147 C49.310452,47.5012565 48.9899232,47.4998644 48.7663186,47.5355367 C48.7054147,47.5455424 48.6433797,47.5021266 48.633374,47.4385254 C48.6236294,47.3748373 48.6670452,47.3155864 48.7303853,47.3055808 C49.1193006,47.2444158 49.4569695,47.3205458 49.7060667,47.524226 C49.9753492,47.7443503 50.1228237,48.0942 50.1444011,48.5641175 C50.1474463,48.6284147 50.0978531,48.6827932 50.0337299,48.6857514 L50.0282486,48.6859254" id="Fill-126" fill="#102048"></path>
                    <path d="M58.0084938,47.2072644 C58.0084938,47.4374814 57.8217797,47.6241955 57.5914757,47.6241955 C57.3612588,47.6241955 57.1745446,47.4374814 57.1745446,47.2072644 C57.1745446,46.9769605 57.3612588,46.7903333 57.5914757,46.7903333 C57.8217797,46.7903333 58.0084938,46.9769605 58.0084938,47.2072644" id="Fill-127" fill="#102048"></path>
                    <path d="M55.1964712,47.4205153 C55.1964712,47.6508192 55.0098441,47.8375333 54.7795401,47.8375333 C54.5492362,47.8375333 54.362609,47.6508192 54.362609,47.4205153 C54.362609,47.1902983 54.5492362,47.0035842 54.7795401,47.0035842 C55.0098441,47.0035842 55.1964712,47.1902983 55.1964712,47.4205153" id="Fill-128" fill="#102048"></path>
                    <path d="M56.8672407,49.2784339 C56.825826,49.2784339 56.7856294,49.2561605 56.764748,49.2170079 C56.734296,49.1604542 56.7556124,49.0898056 56.8122531,49.0595277 C57.0402079,48.9372847 57.1549684,48.8046011 57.1356531,48.6859254 C57.1124226,48.5443672 56.9074373,48.401678 56.6686068,48.3612203 L56.595,48.3486915 L56.3834023,47.555374 C56.3668712,47.493252 56.4038486,47.4293898 56.4658836,47.4128588 C56.5281797,47.3966757 56.5920418,47.4334791 56.6083989,47.4953401 L56.7822362,48.1473605 C57.0526497,48.2146158 57.3244554,48.3980237 57.365435,48.648426 C57.3912757,48.8072983 57.3354181,49.0429966 56.9222282,49.264513 C56.9047401,49.2740836 56.8858599,49.2784339 56.8672407,49.2784339" id="Fill-129" fill="#102048"></path>
                    <path d="M56.2941345,50.6690452 C55.7934169,50.6690452 55.3930169,50.4337819 55.3693514,50.419513 C55.3141028,50.3865379 55.2964407,50.3151932 55.3294158,50.2602056 C55.362304,50.2049571 55.4332136,50.1867729 55.4888972,50.219922 C55.4959446,50.2238373 56.2174825,50.6451186 56.8672407,50.2951819 C56.9231853,50.264991 56.9942689,50.2851763 57.0247209,50.342165 C57.0554339,50.3985446 57.0342915,50.4692802 56.9777379,50.4996452 C56.7461288,50.6249333 56.5106915,50.6690452 56.2941345,50.6690452" id="Fill-130" fill="#102048"></path>
                    <path d="M53.5269198,46.4833774 C53.6437684,46.353304 53.7845435,46.2638621 53.9398486,46.1946927 C54.0936746,46.1217819 54.2652497,46.0941141 54.4362158,46.0778441 C54.608052,46.0717537 54.7830203,46.0940271 54.9441548,46.1516249 C55.1061593,46.2080045 55.2516328,46.3002305 55.3712655,46.416122 C55.3991073,46.4430068 55.3998034,46.4874667 55.3729186,46.5153085 C55.3559525,46.5327966 55.332113,46.5395831 55.3098395,46.5354938 L55.3029661,46.5341887 C55.148009,46.5046938 55.0104531,46.4607559 54.8681989,46.446922 C54.7292508,46.4211684 54.5901288,46.415774 54.4515288,46.4233435 C54.1730237,46.4234305 53.8934746,46.5033887 53.608096,46.5930915 L53.5992215,46.5957887 C53.5627661,46.6072734 53.5238746,46.5870011 53.5123028,46.5504588 C53.5048203,46.5262712 53.5111718,46.5009525 53.5269198,46.4833774" id="Fill-131" fill="#102048"></path>
                    <path d="M58.0746181,46.1918215 C57.8414429,46.1780746 57.6248859,46.1529299 57.4255559,46.1899944 C57.3247164,46.199913 57.2282271,46.2241876 57.1329559,46.261513 C57.0322034,46.2895288 56.9411085,46.3446034 56.8268701,46.3908904 L56.8183435,46.3942836 C56.7818881,46.4090746 56.7402994,46.3914994 56.7255085,46.3550441 C56.717765,46.3358158 56.7189831,46.3150215 56.7271616,46.2977073 C56.7844983,46.1771175 56.8742011,46.0690565 56.9907887,45.9916215 C57.1064192,45.9150565 57.2428441,45.8646802 57.380661,45.8470181 C57.658122,45.8224825 57.9326249,45.8870407 58.1362181,46.0701006 C58.165104,46.0960282 58.1674531,46.1404011 58.1415254,46.1692 C58.1267345,46.1856441 58.1059401,46.1935616 58.0854938,46.1924305 L58.0746181,46.1918215" id="Fill-132" fill="#102048"></path>
                    <path d="M54.1954712,49.7083288 L52.7900689,49.5509356 C52.6812249,49.3969356 52.6172757,49.2089164 52.6172757,49.0059322 C52.6172757,48.4838113 53.0404712,48.0605288 53.5626791,48.0605288 C54.0848,48.0605288 54.5080825,48.4838113 54.5080825,49.0059322 C54.5080825,49.2846983 54.3874056,49.5352746 54.1954712,49.7083288" id="Fill-133" fill="#F39176"></path>
                    <path d="M53.5626791,49.9512486 C53.2434554,49.9512486 52.961209,49.7931593 52.7900689,49.5509356 L54.1954712,49.7083288 C54.0278983,49.8593706 53.8060339,49.9512486 53.5626791,49.9512486" id="Fill-134" fill="#F39176"></path>
                    <path d="M76.2439209,57.5878215 L79.9616723,54.5534124 C80.7255819,53.9297559 81.512113,53.3324621 82.3377966,52.7937232 C83.1095367,52.2906565 84.4868362,51.2461537 86.4696949,49.2003028 C86.4696949,49.2003028 88.3794689,46.8514983 88.0610282,48.6529503 C87.7434576,50.4544023 86.809887,58.0943684 83.0425424,58.8296531 L78.6804271,63.0156689 L76.2439209,57.5878215" id="Fill-135" fill="#F9B384"></path>
                    <path d="M78.632226,55.6337616 L68.5966463,62.5332226 L54.4599684,56.3574746 L55.3766599,66.7790113 L65.3476814,69.9949141 C67.9859537,70.8458294 70.8662757,70.4752723 73.2032475,68.9842565 L81.3102599,63.8117706 L78.632226,55.6337616" id="Fill-136" fill="#102048"></path>
                    <path d="M60.5341808,86.1521243 L41.5260565,82.8850621 C40.548722,82.7171412 39.9343751,81.7444181 40.1949571,80.7908362 C42.4383977,72.6456282 42.9224102,53.2325797 52.8778576,55.5271797 C56.4756282,56.3556475 59.1006757,59.4693186 59.1611446,63.202035 L59.5753785,66.4925887 L61.4371254,81.2049831 C61.5627616,82.2238192 61.8606689,83.206113 62.1864181,84.1788362 C62.6612079,85.5657062 61.4650542,86.3104746 60.5341808,86.1521243" id="Fill-137" fill="#1F3C88"></path>
                    <path d="M80.8830621,66.2480158 L84.7887458,65.7767062 C84.7887458,65.7767062 86.1590847,64.680261 88.3298757,60.5550621 C88.3298757,60.5550621 89.5018418,57.7639209 89.7036949,59.581904 C89.905548,61.399974 89.705435,69.6015616 87.7512881,70.7595198 L80.0747797,71.9715085 L80.8830621,66.2480158" id="Fill-138" fill="#F9B384"></path>
                    <path d="M60.6878328,75.2939062 C56.8642825,72.9317898 53.8972158,65.6595096 53.8972158,65.6595096 L59.5753785,66.4925887 L60.6878328,75.2939062" id="Fill-139" fill="#102048"></path>
                    <path d="M56.1968621,57.225965 L70.0922734,67.4304226 L83.2156836,65.958809 L81.9610621,74.4504734 L69.7646102,75.9455785 C67.9875198,76.1633537 66.1925932,75.7166667 64.7249819,74.6911311 L51.9510734,65.7658305 L56.1968621,57.225965" id="Fill-140" fill="#1F3C88"></path>
                    <polyline id="Fill-141" fill="#E28B6D" points="78.632226 55.6337616 81.8227232 59.9870893 80.4845763 61.2815593 78.632226 55.6337616"></polyline>
                    <polyline id="Fill-142" fill="#E28B6D" points="83.2156836 65.958809 84.2910734 71.3062633 82.3795593 71.6128712 83.2156836 65.958809"></polyline>
                    <path d="M199.079367,140.670734 L198.49991,153.190847 L182.433446,153.190847 C182.433446,153.190847 181.927073,149.862011 191.11835,147.183977 L192.131096,139.296045 L199.079367,140.670734" id="Fill-143" fill="#102048"></path>
                    <polyline id="Fill-144" fill="#FFFFFF" points="192.598316 149.128554 190.947819 147.342328 191.288881 147.026497 192.940249 148.813593 192.598316 149.128554"></polyline>
                    <polyline id="Fill-145" fill="#FFFFFF" points="198.746136 146.410497 195.207616 146.105107 195.27722 143.962158 199.000192 144.083966 198.988011 144.432859 195.613932 144.322362 195.566949 145.786667 198.776588 146.062475 198.746136 146.410497"></polyline>
                    <path d="M226.435684,135.459966 L230.488407,146.966463 C230.488407,146.966463 218.112723,153.118633 216.592734,153.190847 C215.073616,153.263062 221.876588,143.565412 221.876588,143.565412 L219.994655,137.341028 L226.435684,135.459966" id="Fill-146" fill="#102048"></path>
                    <polyline id="Fill-147" fill="#FFFFFF" points="224.518079 144.712147 221.800893 143.785537 221.951412 143.345288 224.667729 144.271028 224.518079 144.712147"></polyline>
                    <polyline id="Fill-148" fill="#FFFFFF" points="225.241096 141.745254 224.607695 139.914655 227.491932 138.687876 227.628531 139.008927 225.043593 140.108678 225.45687 141.303266 228.201898 140.369695 228.314136 140.700316 225.241096 141.745254"></polyline>
                    <path d="M210.802508,78.309435 C210.685921,78.7053107 210.574554,79.1011864 210.462316,79.5057627 C210.416203,79.6684633 210.36922,79.8363842 210.327458,79.9990847 C210.117774,80.7534237 209.917661,81.5164633 209.717548,82.2942938 C208.433345,87.3110395 207.306621,92.831548 206.325198,98.4303616 C205.933672,100.659446 205.566508,102.903322 205.221966,105.128056 C204.416294,110.326644 203.732429,115.446056 203.164282,120.142621 C201.652124,132.671435 200.96304,142.189853 200.96304,142.189853 L188.415085,141.417243 C188.973661,120.435831 190.430136,100.562 194.675141,84.1275028 C195.238068,81.9306102 195.852328,79.7989718 196.523141,77.7325876 L196.644079,77.7369379 L210.802508,78.309435" id="Fill-149" fill="#3A6BEA"></path>
                    <path d="M206.325198,98.4303616 C205.933672,100.659446 205.566508,102.903322 205.221966,105.128056 C204.416294,110.326644 203.732429,115.446056 203.164282,120.142621 C202.149797,111.317638 203.299141,93.4684294 203.299141,93.4684294 L206.325198,98.4303616" id="Fill-150" fill="#1F3C88"></path>
                    <path d="M214.494158,80.0234463 C214.494158,80.0234463 218.040508,84.0039548 215.145831,93.2674463 C215.145831,93.2674463 222.961548,117.873514 228.172316,136.690226 L216.592734,141.032678 C216.592734,141.032678 201.829616,102.965096 201.105729,79.9503616 L214.494158,80.0234463" id="Fill-151" fill="#3A6BEA"></path>
                    <path d="M214.493288,80.0225763 C214.493288,80.0225763 213.017672,81.1997627 209.717548,82.2942938 C207.665085,82.9781582 204.905266,83.6341808 201.358915,83.9552316 C199.380407,84.1370734 197.155672,84.2110282 194.675141,84.1275028 C195.238068,81.9306102 195.852328,79.7989718 196.523141,77.7325876 L196.644079,77.7369379 L210.462316,79.5057627 L214.493288,80.0225763" id="Fill-152" fill="#1F3C88"></path>
                    <polyline id="Fill-153" fill="#1F3C88" points="204.994881 105.17939 202.598746 94.586452 199.591831 93.7511977 199.716249 93.3031186 202.992011 94.2131977 205.448181 105.076723 204.994881 105.17939"></polyline>
                    <path d="M215.565198,138.028373 L215.468621,137.573333 C215.506904,137.564633 219.383876,136.722418 227.062994,133.51365 L227.242226,133.942588 C219.516124,137.172237 215.60348,138.020542 215.565198,138.028373" id="Fill-154" fill="#1F3C88"></path>
                    <path d="M199.520486,139.489198 C195.045785,139.489198 188.560384,138.507774 188.487299,138.496463 L188.556904,138.036203 C188.640429,138.049254 196.95904,139.305616 201.186644,138.965424 L201.224056,139.429164 C200.708113,139.470927 200.133006,139.489198 199.520486,139.489198" id="Fill-155" fill="#1F3C88"></path>
                    <path d="M217.90391,116.034215 L217.783842,115.584395 C219.390836,115.156328 220.551492,114.529017 221.234486,113.719864 L221.590339,114.020034 C220.843831,114.903141 219.604,115.580915 217.90391,116.034215" id="Fill-156" fill="#1F3C88"></path>
                    <path d="M201.851367,120.562859 C201.026554,120.562859 200.144316,120.367966 199.215096,119.979921 L199.394328,119.550983 C200.762927,120.12174 202.007977,120.245288 203.097288,119.919887 L203.231277,120.365356 C202.791898,120.496734 202.331638,120.562859 201.851367,120.562859" id="Fill-157" fill="#1F3C88"></path>
                    <path d="M200.467977,46.014504 C200.467977,46.4873797 200.084282,46.8706395 199.611842,46.8706395 C199.138531,46.8706395 198.755706,46.4873797 198.755706,46.014504 C198.755706,45.5416282 199.138531,45.1582814 199.611842,45.1582814 C200.084282,45.1582814 200.467977,45.5416282 200.467977,46.014504" id="Fill-158" fill="#F9B384"></path>
                    <polyline id="Fill-159" fill="#F9B384" points="210.946068 56.1415266 205.230667 58.5989141 202.480418 48.9041356 203.480983 48.4107266 207.762531 46.2977073 210.946068 56.1415266"></polyline>
                    <path d="M206.152927,48.4107266 C206.152927,48.4107266 205.757051,51.3242847 203.648904,53.0231571 L202.480418,48.9041356 L203.480983,48.4107266 L206.152927,48.4107266" id="Fill-160" fill="#102048"></path>
                    <path d="M207.859977,38.8434983 C207.859977,38.8434983 211.671695,33.6327299 216.158576,37.4442734 C218.028328,39.0324746 218.918395,40.6205887 219.319492,41.9330689 C219.981605,44.0960294 221.324972,45.9722192 222.970249,47.524661 C224.353638,48.8296588 225.542136,50.5630723 225.181062,52.4976429 C224.650328,55.3442938 217.799503,57.1294757 214.711672,48.3482565 C211.215785,38.407426 207.859977,38.8434983 207.859977,38.8434983" id="Fill-161" fill="#E49B31"></path>
                    <path d="M200.019898,41.086939 C199.947684,41.3041051 198.283266,50.8572384 203.27652,50.2782158 C208.270644,49.6992802 208.559503,43.3304667 208.559503,43.3304667 L204.144836,40.8698599 L200.019898,41.086939" id="Fill-162" fill="#F9B384"></path>
                    <path d="M205.833616,45.0674475 C205.833616,45.0674475 204.699932,40.7251695 200.019898,41.086939 C200.019898,41.086939 201.467672,35.2489469 208.005277,38.2162746 C214.542881,41.1835153 211.037424,48.3939345 209.058915,50.1549288 C209.058915,50.1549288 206.847232,49.2167469 205.833616,45.0674475" id="Fill-163" fill="#FBC343"></path>
                    <path d="M207.572859,45.2392836 C207.206565,46.1404881 206.374791,46.6536475 205.714418,46.3855831 C205.054045,46.1174316 204.81478,45.1695051 205.181073,44.2683876 C205.546497,43.3671831 206.378271,42.8540237 207.038644,43.1221751 C207.699887,43.3902395 207.938282,44.3381661 207.572859,45.2392836" id="Fill-164" fill="#F9B384"></path>
                    <path d="M206.101593,45.1807288 C206.04939,45.1807288 206.002407,45.1454915 205.989356,45.0925051 C205.983266,45.0723198 205.867548,44.5916136 206.135525,44.2707367 C206.299096,44.0730599 206.565333,43.9841401 206.923797,44.0075446 C206.987311,44.0116339 207.036034,44.0668825 207.031684,44.1310056 C207.028203,44.1953028 206.97513,44.2487243 206.909006,44.2398497 C206.630588,44.2221006 206.428734,44.2827435 206.313887,44.4198644 C206.124215,44.6470362 206.213831,45.0322972 206.214701,45.0362124 C206.230362,45.0984215 206.192079,45.1615876 206.129435,45.1773356 C206.119864,45.1795107 206.110294,45.1807288 206.101593,45.1807288" id="Fill-165" fill="#102048"></path>
                    <path d="M201.621672,44.4146441 C201.621672,44.6395537 201.439831,44.8219175 201.214486,44.8219175 C200.990011,44.8219175 200.807299,44.6395537 200.807299,44.4146441 C200.807299,44.1897345 200.990011,44.0074576 201.214486,44.0074576 C201.439831,44.0074576 201.621672,44.1897345 201.621672,44.4146441" id="Fill-166" fill="#102048"></path>
                    <path d="M201.131831,48.048696 C201.013503,48.048696 200.887345,48.033209 200.754226,47.9986678 C200.691582,47.9825718 200.65504,47.9189706 200.670701,47.8566746 C200.687232,47.7949006 200.750746,47.7573141 200.81252,47.7733232 C201.293661,47.8980893 201.702588,47.754878 202.140226,47.3098441 C202.185469,47.2637311 202.259424,47.2637311 202.304667,47.308539 C202.35078,47.3535209 202.35165,47.4273887 202.306407,47.4730667 C202.04974,47.7333006 201.667785,48.048696 201.131831,48.048696" id="Fill-167" fill="#102048"></path>
                    <path d="M202.857153,46.3986339 C202.420384,46.3986339 202.066271,46.0443469 202.066271,45.6073175 C202.066271,45.1702881 202.420384,44.8160011 202.857153,44.8160011 C203.293921,44.8160011 203.648904,45.1702881 203.648904,45.6073175 C203.648904,46.0443469 203.293921,46.3986339 202.857153,46.3986339" id="Fill-168" fill="#F39176"></path>
                    <path d="M200.521921,43.3241153 C200.81078,43.1981311 201.103119,43.1606316 201.405898,43.1638508 C201.706068,43.1722904 202.006237,43.2344124 202.289876,43.3396893 C202.411684,43.3838011 202.473458,43.5177898 202.429955,43.6389017 C202.385582,43.7600136 202.251593,43.8223966 202.130655,43.7782847 C202.120215,43.7745435 202.107164,43.7687141 202.098463,43.7636678 C201.873119,43.6404678 201.629503,43.550852 201.374576,43.505435 C201.12313,43.4628893 200.845582,43.4629763 200.608056,43.5271864 L200.595006,43.5308407 C200.535842,43.5465887 200.475808,43.5119605 200.460147,43.4534927 C200.445356,43.4001582 200.473198,43.3454316 200.521921,43.3241153" id="Fill-169" fill="#102048"></path>
                    <path d="M205.248938,44.0171153 C205.191514,44.0171153 205.13496,43.9886644 205.101898,43.936635 C205.080147,43.9039209 202.958079,40.6478215 200.106904,41.2499876 C200.011198,41.2702599 199.919842,41.2093559 199.899831,41.1150418 C199.879819,41.0207277 199.939853,40.9282407 200.034689,40.9082294 C203.116429,40.2589062 205.303751,43.6057525 205.395107,43.7485288 C205.447311,43.8296181 205.423819,43.9375921 205.342904,43.9893605 C205.313322,44.0082407 205.28113,44.0171153 205.248938,44.0171153" id="Fill-170" fill="#E49B31"></path>
                    <path d="M204.146576,65.2592836 L193.004633,68.7824904 L192.999412,68.7824904 C192.529582,68.9314441 192.050181,69.0059209 191.566429,69.0059209 C190.933028,69.0059209 190.304847,68.8802847 189.718429,68.638235 C188.242814,68.0192768 187.172644,66.7020983 186.869864,65.1335605 L183.155593,45.9347198 C182.081073,44.9712192 181.806136,43.9054 182.145458,42.751096 L184.933989,43.0676226 L189.164203,43.5470237 L193.795514,61.1355638 L204.146576,65.2592836" id="Fill-171" fill="#F9B384"></path>
                    <path d="M204.146576,65.2592836 L193.004633,68.7824904 L192.999412,68.7824904 C192.860203,68.745339 192.725345,68.6940927 192.589616,68.638235 C191.10965,68.0192768 190.043831,66.7020983 189.736701,65.1335605 L186.02765,45.9347198 C185.049706,45.059704 184.733876,44.1009017 184.933989,43.0676226 L189.164203,43.5470237 L193.795514,61.1355638 L204.146576,65.2592836" id="Fill-172" fill="#E28B6D"></path>
                    <path d="M215.767921,63.5371808 C215.591299,65.1661876 215.177153,66.7579559 214.609006,68.2938667 C213.90165,70.2113842 212.435605,75.2752 214.493288,80.0225763 C214.493288,80.0225763 202.698802,84.4398531 193.432701,79.3012994 C193.432701,79.3012994 193.88861,76.429504 194.898746,72.6036915 C195.666136,69.6761254 196.760667,66.1900701 198.217141,63.0066203 C200.614147,57.7611367 204.002147,53.3396836 208.558633,53.6095751 C215.539966,54.023809 216.201209,59.5810339 215.767921,63.5371808" id="Fill-173" fill="#EB5D60"></path>
                    <polyline id="Fill-174" fill="#1F3C88" points="197.480203 43.0261209 197.163503 45.4041593 171.105311 43.1033819 171.727401 38.4296994 197.480203 43.0261209"></polyline>
                    <path d="M181.87748,40.6121492 C181.758282,40.9680023 181.71565,41.4081638 181.815706,41.7847243 C181.944475,42.2749141 182.462158,42.211139 182.870215,42.0258169 C183.637605,41.6773593 184.17965,40.5070463 183.448802,39.8536339 C183.084249,39.5271017 182.477819,39.8154384 182.223763,40.0582712 C182.056712,40.2174915 181.946215,40.4083819 181.87748,40.6121492" id="Fill-175" fill="#F9B384"></path>
                    <path d="M182.95113,40.5932689 C182.825842,40.9478169 183.226938,41.8343175 183.547989,42.072974 C183.853379,42.3001458 184.329299,42.2866599 184.527672,41.8377977 C184.985322,40.8000814 185.556949,40.5460249 184.712994,39.870861 C184.291017,39.5335401 183.611503,39.8078689 183.328734,40.0453944 C183.143412,40.2011345 183.023345,40.3901977 182.95113,40.5932689" id="Fill-176" fill="#F9B384"></path>
                    <path d="M184.515492,40.8940475 C184.49722,41.2684328 184.569435,41.7045921 184.753887,42.042609 C184.994893,42.4824226 185.446452,42.2874429 185.769243,42.0031085 C186.376542,41.4682847 186.572305,40.1983503 185.746621,39.7558395 C185.334215,39.5347582 184.858294,39.9696124 184.689503,40.2698689 C184.578136,40.4667627 184.525932,40.6796655 184.515492,40.8940475" id="Fill-177" fill="#F9B384"></path>
                    <path d="M185.956305,40.7543164 C185.847548,41.1121706 185.796215,41.5507661 185.861469,41.9208011 C185.945864,42.4024644 186.361751,42.319461 186.694983,42.1199571 C187.322294,41.7447017 187.799955,40.5622949 187.241379,39.9414226 C186.96122,39.6311605 186.466158,39.9404655 186.252994,40.1912158 C186.113785,40.3557435 186.018079,40.5494181 185.956305,40.7543164" id="Fill-178" fill="#F9B384"></path>
                    <path d="M210.224791,63.1601853 C210.224791,63.1601853 201.786983,70.8955966 194.898746,72.6036915 C195.666136,69.6761254 196.760667,66.1900701 198.217141,63.0066203 L210.224791,63.1601853" id="Fill-179" fill="#AB4446"></path>
                    <path d="M197.559379,58.8180814 L194.664701,48.2518542 C194.664701,48.2518542 195.080588,42.2545548 194.230542,41.4488825 C193.714599,40.9603458 190.946079,40.1732927 189.248599,40.5227073 C188.539503,40.6686158 188.073153,41.3432576 188.102734,42.0664486 C188.111435,42.289096 188.113175,42.5527232 188.098384,42.8466282 C188.023559,44.3377311 188.121006,45.8325751 188.469028,47.2845254 L188.874475,48.9754802 L191.005243,63.4155469 C191.198395,64.7248949 191.798734,65.9601141 192.784508,66.8438305 C194.416734,68.3084836 196.670181,68.653548 198.595616,67.8730203 L202.489119,66.2950859 L200.093853,56.9325819 C198.606927,57.9556814 197.559379,58.8180814 197.559379,58.8180814" id="Fill-180" fill="#F9B384"></path>
                    <path d="M207.763401,53.607313 C205.58739,53.4767175 202.338599,55.3881446 200.093853,56.9325819 L202.489119,66.2950859 L210.223921,63.1604463 L207.763401,53.607313" id="Fill-181" fill="#EB5D60"></path>
                    <polygon id="Fill-182" fill="#102048" points="0.256666667 153.509288 245.536904 153.509288 245.536904 153.043808 0.256666667 153.043808"></polygon>
                </g>
            </g>
        </g>
    </g>
</svg>