<?xml version="1.0" encoding="UTF-8"?>
<svg width="30px" height="30px" viewBox="0 0 30 30" version="1.1" xmlns="http://www.w3.org/2000/svg" xmlns:xlink="http://www.w3.org/1999/xlink">
    <title>96957D35-04B1-44E1-8E95-23E70EBE67F0</title>
    <g id="Page-2" stroke="none" stroke-width="1" fill="none" fill-rule="evenodd">
        <g id="dashboard" transform="translate(-648.000000, -849.000000)" fill-rule="nonzero">
            <g id="medical-file" transform="translate(648.000000, 849.000000)">
                <path d="M22.9525862,0.517241379 L17.5862069,0.517241379 L7.24137931,0.517241379 L1.35775862,0.517241379 C0.607758621,0.517241379 0,1.125 0,1.875 L0,28.125 C0,28.875 0.607758621,29.4827586 1.35775862,29.4827586 L22.9525862,29.4827586 C23.7025862,29.4827586 24.3103448,28.875 24.3103448,28.125 L24.3103448,1.875 C24.3103448,1.125 23.7025862,0.517241379 22.9525862,0.517241379 Z" id="Path" fill="#BF5A45"></path>
                <path d="M17.5862069,2.5862069 L7.24137931,2.5862069 L2.59293103,2.5862069 C2.3037931,2.5862069 2.06896552,2.82103448 2.06896552,3.11017241 L2.06896552,26.8893103 C2.06896552,27.1789655 2.3037931,27.4137931 2.59293103,27.4137931 L21.7168966,27.4137931 C22.0065517,27.4137931 22.2413793,27.1789655 22.2413793,26.8898276 L22.2413793,3.11017241 C22.2413793,2.82103448 22.0065517,2.5862069 21.7174138,2.5862069 L17.5862069,2.5862069 Z" id="Path" fill="#F2ECBF"></path>
                <path d="M30,25.862069 L28.4482759,27.9310345 L26.8965517,25.862069 L26.8965517,1.30913793 C26.8965517,0.872068966 27.2513793,0.517241379 27.6884483,0.517241379 L29.2081034,0.517241379 C29.6451724,0.517241379 30,0.872068966 30,1.30913793 L30,25.862069 Z" id="Path" fill="#366DB6"></path>
                <path d="M28.4327586,30 C28.1472414,30 27.9155172,29.7687931 27.9155172,29.4827586 L27.9155172,26.3793103 C27.9155172,26.0932759 28.1472414,25.862069 28.4327586,25.862069 C28.7182759,25.862069 28.95,26.0932759 28.95,26.3793103 L28.95,29.4827586 C28.95,29.7687931 28.7182759,30 28.4327586,30 Z" id="Path" fill="#7383BF"></path>
                <path d="M30,3.62068966 L26.8965517,3.62068966 L26.8965517,1.30913793 C26.8965517,0.872068966 27.2513793,0.517241379 27.6884483,0.517241379 L29.2081034,0.517241379 C29.6451724,0.517241379 30,0.872068966 30,1.30913793 L30,3.62068966 Z" id="Path" fill="#1F436D"></path>
                <path d="M26.8810345,25.862069 L27.9755172,27.3217241 C28.2041379,27.6263793 28.6608621,27.6263793 28.8894828,27.3217241 L29.9844828,25.862069 L29.9844828,22.7586207 L26.8810345,22.7586207 L26.8810345,25.862069 Z" id="Path" fill="#1F436D"></path>
                <polygon id="Path" fill="#1F436D" points="26.8965517 10.3448276 30 10.3448276 30 14.4827586 26.8965517 14.4827586"></polygon>
                <circle id="Oval" fill="#DD352E" cx="12.4137931" cy="11.3793103" r="5.17241379"></circle>
                <path d="M14.8437931,10.3448276 L13.4482759,10.3448276 L13.4482759,8.94931034 C13.4482759,8.57741379 13.1467241,8.27586207 12.7748276,8.27586207 L12.0527586,8.27586207 C11.6808621,8.27586207 11.3793103,8.57741379 11.3793103,8.94931034 L11.3793103,10.3448276 L9.9837931,10.3448276 C9.61189655,10.3448276 9.31034483,10.6463793 9.31034483,11.0182759 L9.31034483,11.7403448 C9.31034483,12.1122414 9.61189655,12.4137931 9.9837931,12.4137931 L11.3793103,12.4137931 L11.3793103,13.8093103 C11.3793103,14.1812069 11.6808621,14.4827586 12.0527586,14.4827586 L12.7748276,14.4827586 C13.1467241,14.4827586 13.4482759,14.1812069 13.4482759,13.8093103 L13.4482759,12.4137931 L14.8437931,12.4137931 C15.2156897,12.4137931 15.5172414,12.1122414 15.5172414,11.7403448 L15.5172414,11.0182759 C15.5172414,10.6463793 15.2156897,10.3448276 14.8437931,10.3448276 Z" id="Path" fill="#FFFFFF"></path>
                <g id="Group" transform="translate(3.620690, 19.137931)" fill="#D3CCA3">
                    <path d="M13.4482759,3.62068966 L7.24137931,3.62068966 C6.95586207,3.62068966 6.72413793,3.38948276 6.72413793,3.10344828 C6.72413793,2.81741379 6.95586207,2.5862069 7.24137931,2.5862069 L13.4482759,2.5862069 C13.7337931,2.5862069 13.9655172,2.81741379 13.9655172,3.10344828 C13.9655172,3.38948276 13.7337931,3.62068966 13.4482759,3.62068966 Z" id="Path"></path>
                    <path d="M5.17241379,3.62068966 L0.517241379,3.62068966 C0.231724138,3.62068966 0,3.38948276 0,3.10344828 C0,2.81741379 0.231724138,2.5862069 0.517241379,2.5862069 L5.17241379,2.5862069 C5.45793103,2.5862069 5.68965517,2.81741379 5.68965517,3.10344828 C5.68965517,3.38948276 5.45793103,3.62068966 5.17241379,3.62068966 Z" id="Path"></path>
                    <path d="M16.5517241,3.62068966 L15.5172414,3.62068966 C15.2317241,3.62068966 15,3.38948276 15,3.10344828 C15,2.81741379 15.2317241,2.5862069 15.5172414,2.5862069 L16.5517241,2.5862069 C16.8372414,2.5862069 17.0689655,2.81741379 17.0689655,3.10344828 C17.0689655,3.38948276 16.8372414,3.62068966 16.5517241,3.62068966 Z" id="Path"></path>
                    <path d="M9.82758621,1.03448276 L3.62068966,1.03448276 C3.33517241,1.03448276 3.10344828,0.803275862 3.10344828,0.517241379 C3.10344828,0.231206897 3.33517241,0 3.62068966,0 L9.82758621,0 C10.1131034,0 10.3448276,0.231206897 10.3448276,0.517241379 C10.3448276,0.803275862 10.1131034,1.03448276 9.82758621,1.03448276 Z" id="Path"></path>
                    <path d="M16.5517241,1.03448276 L11.8965517,1.03448276 C11.6110345,1.03448276 11.3793103,0.803275862 11.3793103,0.517241379 C11.3793103,0.231206897 11.6110345,0 11.8965517,0 L16.5517241,0 C16.8372414,0 17.0689655,0.231206897 17.0689655,0.517241379 C17.0689655,0.803275862 16.8372414,1.03448276 16.5517241,1.03448276 Z" id="Path"></path>
                    <path d="M1.55172414,1.03448276 L0.517241379,1.03448276 C0.231724138,1.03448276 0,0.803275862 0,0.517241379 C0,0.231206897 0.231724138,0 0.517241379,0 L1.55172414,0 C1.83724138,0 2.06896552,0.231206897 2.06896552,0.517241379 C2.06896552,0.803275862 1.83724138,1.03448276 1.55172414,1.03448276 Z" id="Path"></path>
                    <path d="M9.82758621,6.20689655 L3.62068966,6.20689655 C3.33517241,6.20689655 3.10344828,5.97568966 3.10344828,5.68965517 C3.10344828,5.40362069 3.33517241,5.17241379 3.62068966,5.17241379 L9.82758621,5.17241379 C10.1131034,5.17241379 10.3448276,5.40362069 10.3448276,5.68965517 C10.3448276,5.97568966 10.1131034,6.20689655 9.82758621,6.20689655 Z" id="Path"></path>
                    <path d="M16.5517241,6.20689655 L11.8965517,6.20689655 C11.6110345,6.20689655 11.3793103,5.97568966 11.3793103,5.68965517 C11.3793103,5.40362069 11.6110345,5.17241379 11.8965517,5.17241379 L16.5517241,5.17241379 C16.8372414,5.17241379 17.0689655,5.40362069 17.0689655,5.68965517 C17.0689655,5.97568966 16.8372414,6.20689655 16.5517241,6.20689655 Z" id="Path"></path>
                    <path d="M1.55172414,6.20689655 L0.517241379,6.20689655 C0.231724138,6.20689655 0,5.97568966 0,5.68965517 C0,5.40362069 0.231724138,5.17241379 0.517241379,5.17241379 L1.55172414,5.17241379 C1.83724138,5.17241379 2.06896552,5.40362069 2.06896552,5.68965517 C2.06896552,5.97568966 1.83724138,6.20689655 1.55172414,6.20689655 Z" id="Path"></path>
                </g>
                <path d="M16.6877586,4.13793103 L8.13982759,4.13793103 C7.6437931,4.13793103 7.24137931,3.73551724 7.24137931,3.23948276 L7.24137931,0.898448276 C7.24137931,0.402413793 7.6437931,0 8.13982759,0 L16.6877586,0 C17.1837931,0 17.5862069,0.402413793 17.5862069,0.898448276 L17.5862069,3.23948276 C17.5862069,3.73551724 17.1837931,4.13793103 16.6877586,4.13793103 Z" id="Path" fill="#7383BF"></path>
            </g>
        </g>
    </g>
</svg>