<?xml version="1.0" encoding="UTF-8"?>
<svg width="18px" height="18px" viewBox="0 0 18 18" version="1.1" xmlns="http://www.w3.org/2000/svg" xmlns:xlink="http://www.w3.org/1999/xlink">
    <title>1A30CB53-4AEE-4EE5-A069-554742705EFB</title>
    <g id="Page-2" stroke="none" stroke-width="1" fill="none" fill-rule="evenodd">
        <g id="dashboard" transform="translate(-1317.000000, -26.000000)" fill="#757575">
            <g id="notification" transform="translate(1317.000000, 26.000000)">
                <path d="M5.5547,16 C6.2477,17.19 7.5237,18 8.9997,18 C10.4767,18 11.7517,17.19 12.4457,16 L5.5547,16 Z" id="Fill-1725"></path>
                <path d="M3.0347,13 L14.9657,13 C13.7447,11.998 12.9997,10.486 12.9997,8.838 L12.9997,6 C12.9997,3.794 11.2057,2 8.9997,2 C6.7947,2 4.9997,3.794 4.9997,6 L4.9997,8.838 C4.9997,10.486 4.2547,11.998 3.0347,13 L3.0347,13 Z M17.9997,15 L-0.0003,15 L-0.0003,12.279 L0.6837,12.052 C2.0687,11.589 2.9997,10.298 2.9997,8.838 L2.9997,6 C2.9997,2.691 5.6917,0 8.9997,0 C12.3087,0 14.9997,2.691 14.9997,6 L14.9997,8.838 C14.9997,10.298 15.9317,11.589 17.3167,12.052 L17.9997,12.279 L17.9997,15 Z" id="Fill-1726"></path>
            </g>
        </g>
    </g>
</svg>