<?xml version="1.0" encoding="UTF-8"?>
<svg width="20px" height="21px" viewBox="0 0 20 21" version="1.1" xmlns="http://www.w3.org/2000/svg" xmlns:xlink="http://www.w3.org/1999/xlink">
    <title>0907E5FA-E830-468C-A7ED-F12050EDE417</title>
    <g id="Page-2" stroke="none" stroke-width="1" fill="none" fill-rule="evenodd">
        <g id="dashboard" transform="translate(-1257.000000, -25.000000)" fill="#757575">
            <g id="panier" transform="translate(1257.000000, 25.000000)">
                <path d="M12.2046,14 L3.7806,14 L2.2806,8 L13.5886,8 L12.2046,14 Z M15.9996,0.999 C15.5346,0.999 15.1306,1.32 15.0256,1.774 L14.0506,6 L0.9996,6 C0.6916,6 0.4016,6.142 0.2116,6.385 C0.0226,6.627 -0.0454,6.944 0.0296,7.243 L2.0296,15.243 C2.1416,15.687 2.5406,16 2.9996,16 L12.9996,16 C13.4656,16 13.8696,15.679 13.9746,15.225 L16.7956,2.999 L19.9996,2.999 L19.9996,0.999 L15.9996,0.999 Z" id="Fill-1459"></path>
                <path d="M4,17 C2.896,17 2,17.896 2,19 C2,20.106 2.896,21 4,21 C5.104,21 6,20.106 6,19 C6,17.896 5.104,17 4,17" id="Fill-1460"></path>
                <path d="M12,17 C10.896,17 10,17.896 10,19 C10,20.106 10.896,21 12,21 C13.104,21 14,20.106 14,19 C14,17.896 13.104,17 12,17" id="Fill-1461"></path>
            </g>
        </g>
    </g>
</svg>