<?xml version="1.0" encoding="UTF-8"?>
<svg width="21px" height="30px" viewBox="0 0 21 30" version="1.1" xmlns="http://www.w3.org/2000/svg" xmlns:xlink="http://www.w3.org/1999/xlink">
    <title>A1AC2788-018D-43A5-87CE-E5911E71C4F8</title>
    <g id="Page-2" stroke="none" stroke-width="1" fill="none" fill-rule="evenodd">
        <g id="dashboard" transform="translate(-817.000000, -329.000000)" fill-rule="nonzero">
            <g id="paper" transform="translate(817.000000, 329.000000)">
                <path d="M14.9465342,25.1657227 L0.989934247,21.8995898 C0.52540274,21.7908984 0.235372603,21.3192773 0.34209863,20.8461914 L4.89179178,0.682265625 C4.99851781,0.209179688 5.46161096,-0.0861914062 5.92614247,0.0225 L19.8826849,3.28863281 C20.3472164,3.39732422 20.6372466,3.86894531 20.5305205,4.34203125 L15.9808274,24.505957 C15.8741589,24.979043 15.4110658,25.2744141 14.9465342,25.1657227 Z" id="Path" fill="#9DC6FB"></path>
                <path d="M19.8829151,3.28869141 L19.1324384,3.11308594 L14.7606411,22.4886914 C14.6508658,22.9750781 14.1747123,23.2788281 13.6971205,23.1670313 L0.514586301,20.0820117 L0.342156164,20.8463086 C0.235430137,21.3192773 0.52540274,21.7908398 0.989876712,21.8995312 L14.9467068,25.1657227 C15.4111233,25.2744141 15.8741589,24.9791016 15.9808849,24.5060742 L20.5306356,4.34185547 C20.6373041,3.86894531 20.3473315,3.39738281 19.8829151,3.28869141 L19.8829151,3.28869141 Z" id="Path" fill="#80B4FB"></path>
                <path d="M15.2092356,26.8367578 L0.888961644,26.8367578 C0.412347945,26.8367578 0.0259479452,26.4432422 0.0259479452,25.9578516 L0.0259479452,5.26845703 C0.0259479452,4.78306641 0.412347945,4.38955078 0.888961644,4.38955078 L15.2092932,4.38955078 C15.6859068,4.38955078 16.0723068,4.78306641 16.0723068,5.26845703 L16.0723068,25.9578516 C16.0723068,26.4432422 15.6858493,26.8367578 15.2092356,26.8367578 Z" id="Path" fill="#ECBE6B"></path>
                <path d="M15.2094082,4.38955078 L14.4393699,4.38955078 L14.4393699,24.2701172 C14.4393699,24.7692188 14.0420959,25.1738086 13.5520192,25.1738086 L0.0259479452,25.1738086 L0.0259479452,25.9580273 C0.0259479452,26.4433594 0.412290411,26.8367578 0.888789041,26.8367578 L15.2094082,26.8367578 C15.6859644,26.8367578 16.0722493,26.4433008 16.0722493,25.9580273 L16.0722493,5.26828125 C16.0722493,4.78294922 15.6859644,4.38955078 15.2094082,4.38955078 Z" id="Path" fill="#EAB14D"></path>
                <g id="Group" transform="translate(1.726027, 8.613281)" fill="#E7A52E">
                    <path d="M4.39112877,0.908027344 L0.477764384,0.908027344 C0.232726027,0.908027344 0.0341178082,0.705761719 0.0341178082,0.456210938 C0.0341178082,0.206660156 0.232783562,0.00439453125 0.477764384,0.00439453125 L4.39112877,0.00439453125 C4.63616712,0.00439453125 4.83477534,0.206660156 4.83477534,0.456210938 C4.83477534,0.705761719 4.63616712,0.908027344 4.39112877,0.908027344 Z" id="Path"></path>
                    <path d="M4.39112877,3.39585937 L0.477764384,3.39585937 C0.232726027,3.39585937 0.0341178082,3.19359375 0.0341178082,2.94404297 C0.0341178082,2.69449219 0.232783562,2.49222656 0.477764384,2.49222656 L4.39112877,2.49222656 C4.63616712,2.49222656 4.83477534,2.69449219 4.83477534,2.94404297 C4.83477534,3.19359375 4.63616712,3.39585937 4.39112877,3.39585937 Z" id="Path"></path>
                    <path d="M4.39112877,5.88380859 L0.477764384,5.88380859 C0.232726027,5.88380859 0.0341178082,5.68154297 0.0341178082,5.43199219 C0.0341178082,5.18244141 0.232783562,4.98017578 0.477764384,4.98017578 L4.39112877,4.98017578 C4.63616712,4.98017578 4.83477534,5.18244141 4.83477534,5.43199219 C4.83477534,5.68154297 4.63616712,5.88380859 4.39112877,5.88380859 Z" id="Path"></path>
                    <path d="M4.39112877,8.37175781 L0.477764384,8.37175781 C0.232726027,8.37175781 0.0341178082,8.16949219 0.0341178082,7.91994141 C0.0341178082,7.67039062 0.232783562,7.468125 0.477764384,7.468125 L4.39112877,7.468125 C4.63616712,7.468125 4.83477534,7.67039062 4.83477534,7.91994141 C4.83477534,8.16949219 4.63616712,8.37175781 4.39112877,8.37175781 Z" id="Path"></path>
                    <path d="M4.39112877,10.8595898 L0.477764384,10.8595898 C0.232726027,10.8595898 0.0341178082,10.6573242 0.0341178082,10.4077734 C0.0341178082,10.1582227 0.232783562,9.95595703 0.477764384,9.95595703 L4.39112877,9.95595703 C4.63616712,9.95595703 4.83477534,10.1582227 4.83477534,10.4077734 C4.83477534,10.6573242 4.63616712,10.8595898 4.39112877,10.8595898 Z" id="Path"></path>
                    <path d="M4.39112877,13.3475391 L0.477764384,13.3475391 C0.232726027,13.3475391 0.0341178082,13.1452734 0.0341178082,12.8957227 C0.0341178082,12.6461719 0.232783562,12.4439062 0.477764384,12.4439062 L4.39112877,12.4439062 C4.63616712,12.4439062 4.83477534,12.6461719 4.83477534,12.8957227 C4.83477534,13.1452734 4.63616712,13.3475391 4.39112877,13.3475391 Z" id="Path"></path>
                </g>
                <g id="Group" transform="translate(4.832877, 7.500000)">
                    <path d="M10.2543863,0.052734375 L0.924805479,0.052734375 C0.434671233,0.052734375 0.0372821918,0.457382813 0.0372821918,0.956601562 L0.0372821918,21.5961328 C0.0372821918,22.095293 0.434613699,22.5 0.924805479,22.5 L15.1961178,22.5 C15.6862521,22.5 16.0836411,22.0953516 16.0836411,21.5961328 L16.0836411,5.98927734 C16.0836411,5.66964844 15.9589644,5.36314453 15.7370548,5.13708984 L11.0911644,0.405703125 C10.8692548,0.179707031 10.5682356,0.052734375 10.2543863,0.052734375 L10.2543863,0.052734375 Z" id="Path" fill="#F9F6F9"></path>
                    <path d="M15.7370548,5.13714844 L14.1436438,3.51439453 C14.3655534,3.74039063 14.4901726,4.04689453 14.4901726,4.36652344 L14.4901726,19.9733203 C14.4901726,20.4725391 14.0928411,20.8771875 13.6026493,20.8771875 L0.0372821918,20.8771875 L0.0372821918,21.5961328 C0.0372821918,22.095293 0.434613699,22.5 0.924805479,22.5 L15.1961178,22.5 C15.6862521,22.5 16.0836411,22.0953516 16.0836411,21.5961328 L16.0836411,5.98927734 C16.0836411,5.66964844 15.9589644,5.36314453 15.7370548,5.13714844 L15.7370548,5.13714844 Z" id="Path" fill="#E7ECF6"></path>
                    <path d="M15.7370548,5.13714844 L11.0911644,0.405761719 C10.9277671,0.239355469 10.7213918,0.127207031 10.4987342,0.0793359375 L10.4987342,5.13791016 C10.4987342,5.47072266 10.7636219,5.74048828 11.0904164,5.74048828 L16.0575781,5.74048828 C16.0105726,5.51367188 15.9003945,5.30349609 15.7370548,5.13714844 L15.7370548,5.13714844 Z" id="Path" fill="#E7ECF6"></path>
                    <path d="M15.7370548,5.13714844 L14.7051781,4.08632813 L10.4987342,4.08632813 L10.4987342,5.13791016 C10.4987342,5.47066406 10.7636219,5.74048828 11.0904164,5.74048828 L16.0575781,5.74048828 C16.0105726,5.51373047 15.9003945,5.30349609 15.7370548,5.13714844 L15.7370548,5.13714844 Z" id="Path" fill="#D8E2F1"></path>
                </g>
                <path d="M17.835674,19.7872266 C18.0807123,19.7872266 18.2793205,19.5849609 18.2793205,19.3354102 C18.2793205,19.0858594 18.0806548,18.8835937 17.835674,18.8835937 L9.05255342,18.8835937 L9.05255342,17.2993945 L17.835674,17.2993945 C18.0807123,17.2993945 18.2793205,17.0971289 18.2793205,16.8475781 C18.2793205,16.5980273 18.0806548,16.3957617 17.835674,16.3957617 L9.05255342,16.3957617 L9.05255342,15.7939453 C9.05255342,15.5443359 8.85388767,15.3420703 8.60890685,15.3420703 C8.36392603,15.3420703 8.16526027,15.5443359 8.16526027,15.7939453 L8.16526027,16.3957617 L6.8732137,16.3957617 C6.62817534,16.3957617 6.42956712,16.5980273 6.42956712,16.8475781 C6.42956712,17.0971289 6.62823288,17.2993945 6.8732137,17.2993945 L8.16526027,17.2993945 L8.16526027,18.8835937 L6.8732137,18.8835937 C6.62817534,18.8835937 6.42956712,19.0858594 6.42956712,19.3354102 C6.42956712,19.5849609 6.62823288,19.7872266 6.8732137,19.7872266 L8.16526027,19.7872266 L8.16526027,21.3714844 L6.8732137,21.3714844 C6.62817534,21.3714844 6.42956712,21.57375 6.42956712,21.8233008 C6.42956712,22.0728516 6.62823288,22.2751172 6.8732137,22.2751172 L8.16526027,22.2751172 L8.16526027,23.8593164 L6.8732137,23.8593164 C6.62817534,23.8593164 6.42956712,24.061582 6.42956712,24.3111328 C6.42956712,24.5606836 6.62823288,24.7630078 6.8732137,24.7630078 L8.16526027,24.7630078 L8.16526027,25.3640039 C8.16526027,25.6136133 8.36392603,25.8158789 8.60890685,25.8158789 C8.85388767,25.8158789 9.05255342,25.6136133 9.05255342,25.3640039 L9.05255342,24.7630078 L17.835674,24.7630078 C18.0807123,24.7630078 18.2793205,24.5607422 18.2793205,24.3111328 C18.2793205,24.061582 18.0806548,23.8593164 17.835674,23.8593164 L9.05255342,23.8593164 L9.05255342,22.2751172 L17.835674,22.2751172 C18.0807123,22.2751172 18.2793205,22.0728516 18.2793205,21.8233008 C18.2793205,21.57375 18.0806548,21.3714844 17.835674,21.3714844 L9.05255342,21.3714844 L9.05255342,19.7872266 L17.835674,19.7872266 Z" id="Path" fill="#D8E2F1"></path>
            </g>
        </g>
    </g>
</svg>