<?xml version="1.0" encoding="UTF-8"?>
<svg width="30px" height="30px" viewBox="0 0 30 30" version="1.1" xmlns="http://www.w3.org/2000/svg" xmlns:xlink="http://www.w3.org/1999/xlink">
    <title>B93D9099-4F6E-4CF3-B558-D4E20906FD41</title>
    <g id="Page-2" stroke="none" stroke-width="1" fill="none" fill-rule="evenodd">
        <g id="dashboard" transform="translate(-484.000000, -589.000000)" fill-rule="nonzero">
            <g id="puzzle" transform="translate(484.000000, 589.000000)">
                <path d="M12.8482617,4.14257812 C13.6825781,4.18605469 14.4351562,4.53462891 15,5.07773437 L15,0 L2.06894531,0 C0.926367188,0 0,0.926367188 0,2.06894531 L0,15 L5.07726562,15 C4.5346875,15.5648437 4.18552734,16.3174219 4.14210938,17.1517383 C4.04537109,19.0194727 5.58158203,20.6633203 7.45195313,20.6891602 C9.33111328,20.7155273 10.8621094,19.2005273 10.8621094,17.3276367 C10.8621094,16.4234766 10.5031641,15.6041602 9.92279297,15.0000586 L15,15.0000586 L15,9.92279297 C14.3958398,10.5031641 13.5765234,10.8621094 12.6724219,10.8621094 C10.7994727,10.8621094 9.28447266,9.33105469 9.31089844,7.45248047 C9.33673828,5.58205078 10.9805273,4.04583984 12.8482617,4.14257812 Z" id="Path" fill="#E7552B"></path>
                <path d="M4.14257812,17.1517383 C4.18605469,16.3174219 4.53462891,15.5648437 5.07773437,15 L0,15 L0,27.9310547 C0,29.0736328 0.926367188,30 2.06894531,30 L15,30 L15,24.9227344 C15.5648437,25.4653125 16.3174219,25.8144727 17.1517383,25.8578906 C19.0194727,25.9546289 20.6633203,24.418418 20.6891602,22.5480469 C20.7155273,20.6688867 19.2005273,19.1378906 17.3276367,19.1378906 C16.4234766,19.1378906 15.6041602,19.4968359 15.0000586,20.077207 L15.0000586,15 L9.92279297,15 C10.5031641,15.6041602 10.8621094,16.4234766 10.8621094,17.3275781 C10.8621094,19.2005273 9.33105469,20.7155273 7.45248047,20.6891016 C5.58205078,20.6632617 4.04583984,19.0194727 4.14257812,17.1517383 Z" id="Path" fill="#5BD2F3"></path>
                <path d="M17.1517383,25.8574219 C16.3174219,25.8139453 15.5648437,25.4653711 15,24.9222656 L15,30 L27.9310547,30 C29.0736328,30 30,29.0736328 30,27.9310547 L30,15 L24.9227344,15 C25.4653125,14.4351563 25.8144727,13.6825781 25.8578906,12.8482617 C25.9546289,10.9805273 24.418418,9.33673828 22.5480469,9.31083984 C20.6688867,9.28447266 19.1378906,10.7994727 19.1378906,12.6723633 C19.1378906,13.5765234 19.4968359,14.3958398 20.077207,14.9999414 L15,14.9999414 L15,20.077207 C15.6041602,19.4968359 16.4234766,19.1378906 17.3275781,19.1378906 C19.2005273,19.1378906 20.7155273,20.6689453 20.6891016,22.5475195 C20.6632617,24.4179492 19.0194727,25.9541602 17.1517383,25.8574219 Z" id="Path" fill="#1B556F"></path>
                <path d="M25.8574219,12.8482617 C25.8139453,13.6825781 25.4653711,14.4351562 24.9222656,15 L30,15 L30,2.06894531 C30,0.926367188 29.0736328,0 27.9310547,0 L15,0 L15,5.07726562 C14.4351563,4.5346875 13.6825781,4.18552734 12.8482617,4.14210938 C10.9805273,4.04537109 9.33673828,5.58158203 9.31083984,7.45195313 C9.28447266,9.33111328 10.7994727,10.8621094 12.6723633,10.8621094 C13.5765234,10.8621094 14.3958398,10.5031641 14.9999414,9.92279297 L14.9999414,15 L20.077207,15 C19.4968359,14.3958398 19.1378906,13.5765234 19.1378906,12.6724219 C19.1378906,10.7994727 20.6689453,9.28447266 22.5475195,9.31089844 C24.4179492,9.33673828 25.9541602,10.9805273 25.8574219,12.8482617 Z" id="Path" fill="#F0A21A"></path>
            </g>
        </g>
    </g>
</svg>