<?xml version="1.0" encoding="UTF-8"?>
<svg width="20px" height="20px" viewBox="0 0 20 20" version="1.1" xmlns="http://www.w3.org/2000/svg" xmlns:xlink="http://www.w3.org/1999/xlink">
    <title>7881EBBA-839A-4D92-975A-75736558DD2D</title>
    <g id="Page-2" stroke="none" stroke-width="1" fill="none" fill-rule="evenodd">
        <g id="dashboard" transform="translate(-953.000000, -25.000000)" fill="#757575">
            <path d="M961.118943,39.2081494 C959.493124,39.2081494 957.963718,38.5748719 956.813873,37.4250266 C955.663013,36.2751814 955.029736,34.7457756 955.029736,33.1189425 C955.029736,31.4931243 955.663013,29.9637185 956.813873,28.8138732 C957.963718,27.6630131 959.493124,27.0297356 961.118943,27.0297356 C962.744761,27.0297356 964.274167,27.6630131 965.424012,28.8138732 C966.574872,29.9637185 967.208149,31.4931243 967.208149,33.1189425 C967.208149,34.7457756 966.574872,36.2751814 965.424012,37.4250266 C964.274167,38.5748719 962.744761,39.2081494 961.118943,39.2081494 L961.118943,39.2081494 Z M973,43.5649769 L967.527833,38.0917948 C968.632009,36.6750393 969.237885,34.9446897 969.237885,33.1189425 C969.237885,30.95017 968.3925,28.9113006 966.859035,27.3788502 C965.326584,25.84437 963.287715,25 961.118943,25 C958.95017,25 956.911301,25.84437 955.37885,27.3788502 C953.845385,28.9113006 953,30.95017 953,33.1189425 C953,35.287715 953.845385,37.3265845 955.37885,38.8590349 C956.911301,40.393515 958.95017,41.237885 961.118943,41.237885 C962.94469,41.237885 964.675039,40.6330238 966.091795,39.5268179 L971.564977,45 L973,43.5649769 Z" id="search_header"></path>
        </g>
    </g>
</svg>