<?xml version="1.0" encoding="UTF-8"?>
<svg width="28px" height="30px" viewBox="0 0 28 30" version="1.1" xmlns="http://www.w3.org/2000/svg" xmlns:xlink="http://www.w3.org/1999/xlink">
    <title>0961EAAE-5C32-4551-BBEA-806B431E841F</title>
    <g id="Page-2" stroke="none" stroke-width="1" fill="none" fill-rule="evenodd">
        <g id="dashboard" transform="translate(-485.000000, -719.000000)" fill-rule="nonzero">
            <g id="shopping-bag(1)" transform="translate(485.000000, 719.000000)">
                <path d="M23.2105417,27.8382422 C23.1792167,29.0399414 22.2028917,30 21.00595,30 L2.22798333,30 C1.03098333,30 0.0553,29.0399414 0.023975,27.8382422 C-0.226858333,18.2625586 1.85955,10.9480664 2.84124167,8.06847656 C3.11383333,7.26896484 3.86213333,6.73289063 4.702775,6.73289063 L18.5311583,6.73289063 C19.3723833,6.73289063 20.1206833,7.26890625 20.393275,8.06847656 C20.9444083,9.68572266 21.8441417,12.701543 22.4827167,16.7307422 C22.980825,19.8768164 23.320325,23.6400586 23.2105417,27.8382422 Z" id="Path" fill="#DB5C6E"></path>
                <path d="M23.2105417,27.8382422 C23.1792167,29.0399414 22.2028917,30 21.00595,30 L10.6026667,30 C9.90978333,30 9.279025,29.6020312 8.97814167,28.9757227 C8.14595833,27.2439844 6.65711667,23.4413672 6.73009167,18.5206055 C6.74455833,17.529082 7.54658333,16.7307422 8.5337,16.7307422 L22.4826583,16.7307422 C22.980825,19.8768164 23.320325,23.6400586 23.2105417,27.8382422 L23.2105417,27.8382422 Z" id="Path" fill="#D64553"></path>
                <path d="M6.61190833,6.73289063 C6.00285,6.73289063 5.46134167,7.26890625 5.264175,8.06847656 C4.55320833,10.9480078 3.04325,18.2625586 3.22478333,27.8382422 C3.24706667,29.0399414 3.95383333,30 4.820375,30 L2.22798333,30 C1.03098333,30 0.0553,29.0399414 0.023975,27.8382422 C-0.226858333,18.2625586 1.85896667,10.9480664 2.84065833,8.06847656 C3.11325,7.26896484 3.86155,6.73289063 4.702775,6.73289063 L6.61190833,6.73289063 Z" id="Path" fill="#D64553"></path>
                <path d="M16.3466333,12.3890625 C15.80845,12.3890625 15.372175,11.9508398 15.372175,11.4102539 L15.372175,5.72941406 C15.372175,3.64962891 13.6876833,1.95761719 11.6171417,1.95761719 C9.5466,1.95761719 7.86210833,3.64962891 7.86210833,5.72941406 L7.86210833,11.4101953 C7.86210833,11.9507813 7.42583333,12.3890625 6.88765,12.3890625 C6.34946667,12.3890625 5.91319167,11.9507813 5.91319167,11.4101953 L5.91319167,5.72941406 C5.91319167,2.57021484 8.471925,4.26325641e-14 11.6171417,4.26325641e-14 C14.7623583,4.26325641e-14 17.3210917,2.57021484 17.3210917,5.72941406 L17.3210917,11.4101953 C17.3210917,11.9507813 16.8848167,12.3890625 16.3466333,12.3890625 L16.3466333,12.3890625 Z" id="Path" fill="#407093"></path>
                <g id="Group" transform="translate(5.891667, 0.000000)" fill="#365E7D">
                    <path d="M10.4750333,11.4101953 L10.4750333,5.72941406 C10.4750333,3.64962891 8.79054167,1.95761719 6.72,1.95761719 C6.55135833,1.95761719 6.385575,1.96998047 6.22270833,1.99171875 C8.05886667,2.23699219 9.48045,3.81908203 9.48045,5.72941406 L9.48045,11.4101953 C9.48045,11.9507813 9.916725,12.3890039 10.4549083,12.3890039 C10.6367917,12.3890039 10.8064833,12.3380273 10.9522,12.2508398 C10.6668917,12.0801562 10.4750333,11.7680859 10.4750333,11.4101953 L10.4750333,11.4101953 Z" id="Path"></path>
                    <path d="M1.01605,11.4101953 L1.01605,5.72941406 C1.01605,2.73849609 3.3096,0.275976563 6.22270833,0.0219726563 C6.05879167,0.007734375 5.89300833,1.42108547e-14 5.725475,1.42108547e-14 C2.58031667,1.42108547e-14 0.021525,2.57021484 0.021525,5.72941406 L0.021525,11.4101953 C0.021525,11.9507813 0.4578,12.3890039 0.995983333,12.3890039 C1.177925,12.3890039 1.34755833,12.3380273 1.493275,12.2508398 C1.20790833,12.0801563 1.01605,11.7680859 1.01605,11.4101953 Z" id="Path"></path>
                </g>
                <path d="M10.7723583,28.9756055 C9.94058333,27.2441016 8.45185833,23.4411914 8.524425,18.5205469 C8.53906667,17.5287891 9.34085833,16.7309766 10.328325,16.7309766 L18.2593833,16.7309766 L26.1904417,16.7309766 C27.1779083,16.7309766 27.9797,17.5287891 27.9943417,18.5205469 C28.0669083,23.4411914 26.578125,27.2441016 25.7464083,28.9756055 C25.44535,29.6021484 24.8143,30 24.1217667,30 L12.3969417,30 C11.70435,30 11.0733583,29.6021484 10.7723583,28.9756055 Z" id="Path" fill="#FFD064"></path>
                <path d="M14.2234167,29.9998828 L12.3968833,29.9998828 C11.7046417,29.9998828 11.0732417,29.6019141 10.7723583,28.9756055 C9.94081667,27.2438672 8.451975,23.44125 8.52430833,18.5204883 C8.538775,17.5289648 9.3408,16.730625 10.3285583,16.730625 L12.7997333,16.730625 C12.12015,16.730625 11.5677917,17.5289648 11.5581083,18.5204883 C11.5080583,23.44125 12.5325667,27.2439258 13.1054583,28.9756055 C13.31225,29.6019141 13.7470667,29.9998828 14.2234167,29.9998828 L14.2234167,29.9998828 Z" id="Path" fill="#FFC250"></path>
                <path d="M18.5609083,25.4474414 C16.358825,25.4474414 14.56735,23.6479102 14.56735,21.4360547 L14.56735,19.407832 C14.56735,18.9736523 14.9178167,18.6216211 15.3500667,18.6216211 C15.7823167,18.6216211 16.1327833,18.9736523 16.1327833,19.407832 L16.1327833,21.4360547 C16.1327833,22.780957 17.2220417,23.8750195 18.5609083,23.8750195 C19.899775,23.8750195 20.9890333,22.7808984 20.9890333,21.4360547 L20.9890333,19.407832 C20.9890333,18.9736523 21.3395,18.6216211 21.77175,18.6216211 C22.204,18.6216211 22.5544667,18.9736523 22.5544667,19.407832 L22.5544667,21.4360547 C22.5544667,23.6479688 20.7629333,25.4474414 18.5609083,25.4474414 Z" id="Path" fill="#407093"></path>
                <g id="Group" transform="translate(14.525000, 18.574219)" fill="#365E7D">
                    <path d="M4.76805,5.30080078 C6.10691667,5.30080078 7.196175,4.20667969 7.196175,2.86183594 L7.196175,0.833613281 C7.196175,0.532324219 7.36510833,0.270878906 7.61279167,0.138925781 C7.50353333,0.0806835937 7.37905,0.0474609375 7.24675,0.0474609375 C6.8145,0.0474609375 6.46403333,0.399492187 6.46403333,0.833671875 L6.46403333,2.86189453 C6.46403333,4.08181641 5.5678,5.0953125 4.40195,5.27314453 C4.52135833,5.29130859 4.643625,5.30080078 4.76805,5.30080078 Z" id="Path"></path>
                    <path d="M0.774433333,2.86183594 L0.774433333,0.833613281 C0.774433333,0.532324219 0.943366667,0.270878906 1.19110833,0.138925781 C1.08185,0.0806835937 0.957366667,0.0474609375 0.825066667,0.0474609375 C0.392816667,0.0474609375 0.04235,0.399492187 0.04235,0.833671875 L0.04235,2.86189453 C0.04235,5.07380859 1.833825,6.87328125 4.03590833,6.87328125 C4.1594,6.87328125 4.28131667,6.86677734 4.40195,6.85570313 C2.3709,6.66931641 0.774433333,4.94970703 0.774433333,2.86183594 Z" id="Path"></path>
                </g>
            </g>
        </g>
    </g>
</svg>