<?xml version="1.0" encoding="UTF-8"?>
<svg width="30px" height="30px" viewBox="0 0 30 30" version="1.1" xmlns="http://www.w3.org/2000/svg" xmlns:xlink="http://www.w3.org/1999/xlink">
    <title>208C92FB-2336-44A1-89BF-E2228F2E2240</title>
    <g id="Page-2" stroke="none" stroke-width="1" fill="none" fill-rule="evenodd">
        <g id="dashboard" transform="translate(-320.000000, -589.000000)" fill-rule="nonzero">
            <g id="suitcases" transform="translate(320.000000, 589.000000)">
                <g id="Group" transform="translate(1.757812, 27.480469)" fill="#46637F">
                    <path d="M1.7578125,0.0399023437 L0,0.0399023437 L0,1.640625 C0,2.12601562 0.393515625,2.51953125 0.87890625,2.51953125 C1.36429687,2.51953125 1.7578125,2.12601562 1.7578125,1.640625 L1.7578125,0.0399023437 Z" id="Path"></path>
                    <path d="M14.0625,0.0399023437 L12.3046875,0.0399023437 L12.3046875,1.640625 C12.3046875,2.12601562 12.6982031,2.51953125 13.1835938,2.51953125 C13.6689844,2.51953125 14.0625,2.12601562 14.0625,1.640625 L14.0625,0.0399023437 Z" id="Path"></path>
                    <path d="M26.6285156,0.0399023437 L24.8707031,0.0399023437 L24.8707031,1.640625 C24.8707031,2.12601562 25.2642187,2.51953125 25.7496094,2.51953125 C26.235,2.51953125 26.6285156,2.12601562 26.6285156,1.640625 L26.6285156,0.0399023437 Z" id="Path"></path>
                </g>
                <path d="M23.0431055,10.6736133 L16.2197461,10.6736133 C15.9769922,10.6736133 15.780293,10.8703711 15.780293,11.1130664 C15.780293,11.3557617 15.9769922,11.5525195 16.2197461,11.5525195 L23.0430469,11.5525195 C23.3292188,11.5525195 23.5620117,11.7853711 23.5620117,12.071543 L23.5620117,15.9406641 C23.5620117,16.1833594 23.7587109,16.3801172 24.0014648,16.3801172 C24.2442187,16.3801172 24.440918,16.1833594 24.440918,15.9406641 L24.440918,12.071543 C24.440918,11.3007422 23.8139062,10.6736133 23.0431055,10.6736133 Z" id="Path" fill="#46637F"></path>
                <path d="M30,23.0144531 L28.828125,24.1792969 L30,25.3447266 L30,26.4925781 C30,27.3837891 29.2775391,28.10625 28.3863281,28.10625 L15.9644531,28.10625 L15.9644531,14.6115234 L28.3863281,14.6115234 C29.2775391,14.6115234 30,15.3339844 30,16.2246094 L30,23.0144531 Z" id="Path" fill="#FF7680"></path>
                <path d="M30,23.0144531 L28.828125,24.1792969 L28.828125,16.2246094 C28.828125,15.3339844 28.1056641,14.6115234 27.2144531,14.6115234 L28.3863281,14.6115234 C29.2775391,14.6115234 30,15.3339844 30,16.2246094 L30,23.0144531 Z" id="Path" fill="#F44D90"></path>
                <path d="M28.828125,25.1742187 L28.828125,24.1792969 L30,25.3447266 L30,26.4925781 C30,27.3837891 29.2775391,28.10625 28.3863281,28.10625 L15.9644531,28.10625 L15.9644531,26.7878906 L27.2144531,26.7878906 C28.1056641,26.7878906 28.828125,26.0654297 28.828125,25.1742187 L28.828125,25.1742187 Z" id="Path" fill="#F44D90"></path>
                <path d="M24.4412109,14.6115234 L24.4412109,15.534375 L25.2650391,16.3740234 C25.3189453,16.4285156 25.3494141,16.5023437 25.3494141,16.5791016 L25.3494141,19.2744141 C25.3494141,19.4361328 25.2181641,19.5673828 25.0564453,19.5673828 L22.9470703,19.5673828 C22.7847656,19.5673828 22.6541016,19.4361328 22.6541016,19.2744141 L22.6541016,16.5791016 C22.6541016,16.5023437 22.6839844,16.4285156 22.7378906,16.3740234 L23.5623047,15.534375 L23.5623047,14.6115234 L24.4412109,14.6115234 Z" id="Path" fill="#D8E5EF"></path>
                <polygon id="Path" fill="#46637F" points="15.9644531 23.0144531 30 23.0144531 30 25.3447266 15.9644531 25.3447266"></polygon>
                <path d="M30,23.0144531 L30,25.3447266 L28.8193359,25.3447266 C28.8251953,25.2890625 28.828125,25.2316406 28.828125,25.1742187 L28.828125,23.0144531 L30,23.0144531 Z" id="Path" fill="#234063"></path>
                <path d="M13.2193945,0 L4.35873047,0 C4.11603516,0 3.91927734,0.196757812 3.91927734,0.439453125 C3.91927734,0.682148437 4.11603516,0.87890625 4.35873047,0.87890625 L5.09115234,0.87890625 L5.09115234,6.57310547 L5.97005859,6.57310547 L5.97005859,0.87890625 L11.6080078,0.87890625 L11.6080078,6.57310547 L12.4869141,6.57310547 L12.4869141,0.87890625 L13.2193359,0.87890625 C13.4620312,0.87890625 13.6587891,0.682148437 13.6587891,0.439453125 C13.6587891,0.196757813 13.4620898,0 13.2193945,0 Z" id="Path" fill="#46637F"></path>
                <path d="M17.578125,7.01484375 L17.578125,26.4925781 C17.578125,27.3837891 16.8556641,28.10625 15.9644531,28.10625 L1.61367187,28.10625 C0.823242188,28.10625 0.165820312,27.5384766 0.0275390625,26.7878906 C0.009375,26.6923828 0,26.5933594 0,26.4925781 L0,7.01484375 C0,6.12363281 0.722460937,5.40117187 1.61367187,5.40117187 L15.9644531,5.40117187 C16.8556641,5.40117187 17.578125,6.12363281 17.578125,7.01484375 Z" id="Path" fill="#FFFF4D"></path>
                <path d="M17.578125,7.01484375 L17.578125,26.4925781 C17.578125,27.3837891 16.8556641,28.10625 15.9644531,28.10625 L1.61367188,28.10625 C0.823242188,28.10625 0.165820312,27.5384766 0.0275390625,26.7878906 L14.6460938,26.7878906 L16.2597656,25.1742188 L16.2597656,7.01484375 C16.2597656,6.12363281 15.5373047,5.40117187 14.6460938,5.40117187 L15.9644531,5.40117187 C16.8556641,5.40117187 17.578125,6.12363281 17.578125,7.01484375 L17.578125,7.01484375 Z" id="Path" fill="#FFE150"></path>
                <path d="M16.2597656,16.1238281 L16.2597656,26.3484375 C16.2597656,26.5910156 16.0628906,26.7878906 15.8203125,26.7878906 L1.7578125,26.7878906 C1.51523437,26.7878906 1.31835938,26.5910156 1.31835938,26.3484375 L1.31835938,16.1238281 C1.31835938,15.88125 1.51523437,15.684375 1.7578125,15.684375 L15.8203125,15.684375 C16.0628906,15.684375 16.2597656,15.88125 16.2597656,16.1238281 Z" id="Path" fill="#F7904B"></path>
                <path d="M16.2597656,16.1238281 L16.2597656,26.3484375 C16.2597656,26.5910156 16.0628906,26.7878906 15.8203125,26.7878906 L1.7578125,26.7878906 C1.51523437,26.7878906 1.31835938,26.5910156 1.31835938,26.3484375 L1.31835938,25.6160156 L13.8193359,25.6160156 C14.5277344,25.6160156 15.1013672,25.0417969 15.1013672,24.3339844 L15.1013672,16.1238281 C15.1013672,15.88125 14.9050781,15.684375 14.6619141,15.684375 L15.8203125,15.684375 C16.0628906,15.684375 16.2597656,15.88125 16.2597656,16.1238281 Z" id="Path" fill="#F25D40"></path>
                <g id="Group" transform="translate(3.046875, 9.785156)" fill="#46637F">
                    <path d="M11.015625,7.63564453 L0.46875,7.63564453 C0.226054687,7.63564453 0.029296875,7.83240234 0.029296875,8.07509766 C0.029296875,8.31779297 0.226054687,8.51455078 0.46875,8.51455078 L9.16992188,8.51455078 L9.16992188,9.94195312 C9.16992188,10.1846484 9.36667969,10.3814062 9.609375,10.3814062 C9.85207031,10.3814062 10.0488281,10.1846484 10.0488281,9.94195312 L10.0488281,8.51455078 L11.015625,8.51455078 C11.2583203,8.51455078 11.4550781,8.31779297 11.4550781,8.07509766 C11.4550781,7.83240234 11.2583203,7.63564453 11.015625,7.63564453 Z" id="Path"></path>
                    <path d="M8.671875,0.295546875 L8.671875,1.47503906 C8.671875,1.63476563 8.54238281,1.76419922 8.38271484,1.76419922 L3.10166016,1.76419922 C2.94193359,1.76419922 2.8125,1.63470703 2.8125,1.47503906 L2.8125,0.295546875 C2.8125,0.135820313 2.94199219,0.00638671875 3.10166016,0.00638671875 L8.38271484,0.00638671875 C8.54238281,0.00638671875 8.671875,0.135878906 8.671875,0.295546875 Z" id="Path"></path>
                </g>
            </g>
        </g>
    </g>
</svg>