<?xml version="1.0" encoding="UTF-8"?>
<svg width="30px" height="30px" viewBox="0 0 30 30" version="1.1" xmlns="http://www.w3.org/2000/svg" xmlns:xlink="http://www.w3.org/1999/xlink">
    <title>BA9D11C1-3D41-41B0-A048-2A2A5BAB0921</title>
    <g id="Page-2" stroke="none" stroke-width="1" fill="none" fill-rule="evenodd">
        <g id="dashboard" transform="translate(-648.000000, -589.000000)" fill-rule="nonzero">
            <g id="sun" transform="translate(648.000000, 589.000000)">
                <ellipse id="Oval" fill="#FEDB41" cx="15" cy="15.0293387" rx="9.45710843" ry="9.43815631"></ellipse>
                <g id="Group" fill="#FEA832">
                    <path d="M22.5293976,15.4501815 C22.2970158,15.4499153 22.1086993,15.2619762 22.1084337,15.0300601 C22.1044491,11.1136964 18.9242279,7.93984842 15,7.93587174 C14.7671088,7.93587174 14.5783133,7.7474545 14.5783133,7.51503006 C14.5783133,7.28260562 14.7671088,7.09418838 15,7.09418838 C19.389735,7.09882745 22.9471588,10.6491222 22.9518072,15.0300601 C22.9516796,15.141694 22.9070887,15.2486979 22.8278576,15.3274996 C22.7486265,15.4063013 22.6412554,15.4504357 22.5293976,15.4501815 L22.5293976,15.4501815 Z" id="Path"></path>
                    <g id="Path">
                        <path d="M15,3.66733467 C15.6870104,3.66814349 16.3725376,3.73100512 17.0481928,3.8551503 C17.0573494,3.72408818 17.0633735,3.59062124 17.0633735,3.45643287 C17.0631325,1.58044088 15,0.0593987976 15,0.0593987976 C15,0.0593987976 12.9366265,1.58044088 12.9366265,3.45643287 C12.9366265,3.59158317 12.9428916,3.72408818 12.9520482,3.8551503 C13.6276226,3.73100782 14.3130696,3.66814616 15,3.66733467 L15,3.66733467 Z"></path>
                        <path d="M15,26.3913427 C15.6869975,26.3904937 16.3725139,26.3277135 17.0481928,26.2037675 C17.0573494,26.3345892 17.0633735,26.4670942 17.0633735,26.6022445 C17.0633735,28.477996 15.000241,29.9992786 15.000241,29.9992786 C15.000241,29.9992786 12.9368675,28.478477 12.9368675,26.6022445 C12.9368675,26.4670942 12.9431325,26.3345892 12.9522892,26.2037675 C13.6278083,26.3276951 14.313163,26.3904752 15,26.3913427 L15,26.3913427 Z"></path>
                        <path d="M23.0503614,6.99511022 C23.5353794,7.48054603 23.9754799,8.008703 24.3653012,8.57314629 C24.4648193,8.48705411 24.5628916,8.39759519 24.6585542,8.30212425 C25.9879518,6.97539078 25.606506,4.44408818 25.606506,4.44408818 C25.606506,4.44408818 23.0701205,4.06412826 21.7407229,5.39014028 C21.6443373,5.48633267 21.5554217,5.58252505 21.4691566,5.68280561 C22.0347333,6.07184567 22.5639509,6.51106428 23.0503614,6.99511022 L23.0503614,6.99511022 Z"></path>
                        <path d="M6.94963855,23.0635671 C7.43594533,23.5477268 7.96517356,23.9869543 8.53084337,24.3758717 C8.44457831,24.4751904 8.35493976,24.5730661 8.25927711,24.6685371 C6.92987952,25.9952705 4.39349398,25.6145892 4.39349398,25.6145892 C4.39349398,25.6145892 4.01204819,23.0832866 5.34144578,21.7565531 C5.43783133,21.6603607 5.53421687,21.5716232 5.6346988,21.4855311 C6.02445924,22.0500204 6.46456422,22.5781826 6.94963855,23.0635671 L6.94963855,23.0635671 Z"></path>
                        <path d="M26.3848193,15.0300601 C26.3839791,15.7156814 26.3210728,16.3998249 26.1968675,17.0741483 C26.3279518,17.0832866 26.4607229,17.0895391 26.5961446,17.0895391 C28.4756627,17.0895391 30,15.0303006 30,15.0303006 C30,15.0303006 28.4759036,12.9713026 26.5961446,12.9713026 C26.4607229,12.9713026 26.3279518,12.9773146 26.1968675,12.9864529 C26.3210335,13.6606197 26.3839396,14.3446 26.3848193,15.0300601 L26.3848193,15.0300601 Z"></path>
                        <path d="M3.61518072,15.0300601 C3.61602092,15.7156814 3.67892722,16.3998249 3.80313253,17.0741483 C3.67204819,17.0832866 3.53807229,17.0895391 3.40385542,17.0895391 C1.52409639,17.0885772 -2.13162821e-14,15.0300601 -2.13162821e-14,15.0300601 C-2.13162821e-14,15.0300601 1.52409639,12.9710621 3.40385542,12.9710621 C3.53927711,12.9710621 3.67204819,12.9770741 3.80313253,12.9862124 C3.67895209,13.6604582 3.61604594,14.3445197 3.61518072,15.0300601 L3.61518072,15.0300601 Z"></path>
                        <path d="M23.0503614,23.0635671 C22.5639509,23.5476131 22.0347333,23.9868317 21.4691566,24.3758717 C21.5554217,24.4751904 21.6450602,24.5730661 21.7407229,24.6685371 C23.0701205,25.9952705 25.606506,25.6145892 25.606506,25.6145892 C25.606506,25.6145892 25.9879518,23.0832866 24.6585542,21.7565531 C24.5621687,21.6603607 24.4657831,21.5716232 24.3653012,21.4855311 C23.9755408,22.0500204 23.5354358,22.5781826 23.0503614,23.0635671 L23.0503614,23.0635671 Z"></path>
                        <path d="M6.94963855,6.99511022 C6.46462064,7.48054603 6.02452005,8.008703 5.6346988,8.57314629 C5.53518072,8.48705411 5.43710843,8.39759519 5.34144578,8.30212425 C4.01204819,6.97539078 4.39349398,4.44408818 4.39349398,4.44408818 C4.39349398,4.44408818 6.92987952,4.06412826 8.25927711,5.39014028 C8.35566265,5.48633267 8.44457831,5.58252505 8.53084337,5.68280561 C7.96522056,6.07178497 7.43599774,6.51100798 6.94963855,6.99511022 L6.94963855,6.99511022 Z"></path>
                    </g>
                </g>
            </g>
        </g>
    </g>
</svg>