<?xml version="1.0" encoding="UTF-8"?>
<svg width="33px" height="24px" viewBox="0 0 33 24" version="1.1" xmlns="http://www.w3.org/2000/svg" xmlns:xlink="http://www.w3.org/1999/xlink">
    <title>FCCF9026-2523-4AD1-87B9-D4313C4E8576</title>
    <g id="Page-2" stroke="none" stroke-width="1" fill="none" fill-rule="evenodd">
        <g id="dashboard" transform="translate(-646.000000, -332.000000)" fill-rule="nonzero">
            <g id="team" transform="translate(646.000000, 332.000000)">
                <path d="M23.9516191,10.1352258 L23.9516191,10.5090968 C23.9516191,10.9672258 24.025418,11.4223226 24.1701152,11.8569032 L25.016127,14.3974194 L26.6128887,14.3974194 L26.6128887,8.53683871 L25.5483809,8.53683871 C24.6665332,8.53690323 23.9516191,9.25245161 23.9516191,10.1352258 Z" id="Path" fill="#5A4146"></path>
                <path d="M31.2393984,11.242 L30.3387305,14.3974839 L26.0806348,10.6680645 C25.4926934,10.6680645 25.016127,10.1909677 25.016127,9.60251613 L25.016127,9.60251613 C25.016127,8.71980645 25.731041,8.00419355 26.6128887,8.00419355 L30.338666,8.00419355 C30.9266074,8.00419355 31.4031739,8.48129032 31.4031739,9.06974194 L31.4031739,10.0711613 C31.4032383,10.4670968 31.3480664,10.8611613 31.2393984,11.242 Z" id="Path" fill="#694B4B"></path>
                <rect id="Rectangle" fill="#E6AF78" x="26.0803125" y="15.996129" width="3.19352344" height="2.358"></rect>
                <path d="M26.0806348,16.9744516 C26.5742812,17.1752258 27.1125938,17.2882581 27.6773965,17.2882581 C28.2421992,17.2882581 28.7805117,17.1752258 29.2741582,16.9744516 L29.2741582,15.9958065 L26.0806348,15.9958065 L26.0806348,16.9744516 L26.0806348,16.9744516 Z" id="Path" fill="#D29B6E"></path>
                <path d="M31.8418418,18.0226452 L29.2740293,17.2882581 L27.6773965,18.3489032 L26.0806348,17.2882581 L23.5129512,18.0226452 C22.8274277,18.2187097 22.3548574,18.845871 22.3548574,19.5594839 L22.3548574,23.4547097 C22.3548574,23.7489677 22.5931406,23.9874839 22.8871113,23.9874839 L32.4677461,23.9874839 C32.7617168,23.9874839 33,23.7489677 33,23.4547097 L33,19.5594839 C33,18.8458065 32.5273652,18.2187097 31.8418418,18.0226452 Z" id="Path" fill="#D5DCED"></path>
                <polygon id="Path" fill="#AFB9D2" points="28.2096504 23.9874194 27.1451426 23.9874194 27.4112695 18.3538065 27.9435234 18.3538065"></polygon>
                <path d="M27.6773965,16.5285806 L27.6773965,16.5285806 C25.9136367,16.5285806 24.483873,15.0973548 24.483873,13.3319355 L24.483873,12.7077419 C24.483873,12.4251613 24.5960215,12.154129 24.7956328,11.9542581 L25.7608184,10.988129 C25.9651992,10.7835484 26.244668,10.6659355 26.5335469,10.6750323 C28.2349805,10.7287742 29.7409922,11.0936129 30.564252,11.8984516 C30.7657969,12.0954839 30.8709844,12.3710968 30.8709844,12.6530323 L30.8709844,13.3319355 C30.8709844,15.0974194 29.4411563,16.5285806 27.6773965,16.5285806 Z" id="Path" fill="#F0C087"></path>
                <path d="M26.0806348,12.839871 C26.0806348,12.2252903 26.5962598,11.7367742 27.2090156,11.775871 C28.2835137,11.8445161 29.8779551,12.0242581 30.8561602,12.4952258 C30.8242559,12.2704516 30.7277695,12.0582581 30.564252,11.8983871 C29.7409922,11.0935484 28.2349805,10.7287097 26.5335469,10.6749677 L26.5334824,10.6750323 L26.5334824,10.6749677 C26.244668,10.665871 25.9651348,10.7835484 25.7608184,10.9880645 L24.7956973,11.954129 C24.5960215,12.1539355 24.483873,12.4249677 24.483873,12.7076129 L24.483873,13.3318065 C24.483873,14.7896129 25.4597578,16.0170323 26.792584,16.4014194 C26.3489531,15.8535484 26.0806992,15.1580645 26.0806992,14.3973548 L26.0806348,12.839871 L26.0806348,12.839871 Z" id="Path" fill="#E6AF78"></path>
                <path d="M30.8709844,21.1470323 C30.8709844,20.7230968 31.039207,20.3165806 31.3386562,20.0168387 L32.7087363,18.6454194 C32.8918477,18.9074194 33,19.2228387 33,19.5595484 L33,23.4547742 C33,23.7490323 32.7617168,23.9875484 32.4677461,23.9875484 L30.8709844,23.9875484 L30.8709844,21.1470323 L30.8709844,21.1470323 Z" id="Path" fill="#C7CFE2"></path>
                <path d="M27.9435234,19.4193548 L27.4112695,19.4193548 C27.2643164,19.4193548 27.1451426,19.3000645 27.1451426,19.1529677 L27.1451426,18.3538065 L28.2096504,18.3538065 L28.2096504,19.1529677 C28.2096504,19.3000645 28.090541,19.4193548 27.9435234,19.4193548 Z" id="Path" fill="#959CB5"></path>
                <g id="Group" transform="translate(25.458984, 16.838710)" fill="#C7CFE2">
                    <path d="M2.21841211,1.51025806 L1.31626172,2.2 C1.16086523,2.31883871 0.936181641,2.27122581 0.842273438,2.09948387 L0.033,0.620129032 L0.358746094,0.122774194 C0.430998047,0.0124516129 0.584976563,-0.00632258065 0.681591797,0.0833548387 L2.21841211,1.51025806 Z" id="Path"></path>
                    <path d="M2.21841211,1.51025806 L3.1205625,2.20006452 C3.27595898,2.31890323 3.50064258,2.27129032 3.59455078,2.09954839 L4.40382422,0.620193548 L4.07807813,0.12283871 C4.00582617,0.012516129 3.85184766,-0.00625806452 3.75523242,0.0834193548 L2.21841211,1.51025806 Z" id="Path"></path>
                </g>
                <path d="M9.52758984,16.306129 C9.07274414,15.0998065 8.712,13.0260645 8.63407617,11.9463871 C8.48583398,9.89180645 6.93902344,8.21696774 4.84803516,8.21696774 C2.75704688,8.21696774 1.21023633,9.89187097 1.06199414,11.9463871 C0.984070313,13.026 0.623326172,15.0998065 0.168480469,16.306129 C0.0682558594,16.5720645 0.183949219,16.8652903 0.445564453,16.984 C0.932958984,17.2050968 1.97213672,17.6382581 3.22542773,17.8069677 L6.47057812,17.8069677 C7.71800391,17.637871 8.76446484,17.2044516 9.25044141,16.984 C9.51212109,16.8652903 9.62781445,16.5720645 9.52758984,16.306129 Z" id="Path" fill="#5A4146"></path>
                <path d="M9.25050586,16.9840645 C9.51205664,16.8653548 9.62781445,16.572129 9.52752539,16.3061935 C9.07274414,15.099871 8.71193555,13.026129 8.63407617,11.9464516 C8.48589844,9.89187097 6.93902344,8.21703226 4.84809961,8.21703226 C4.84281445,8.21703226 4.83759375,8.21703226 4.83230859,8.21703226 C3.22787695,8.2236129 2.66088281,10.413871 4.04204883,11.2310968 C4.125,11.2801935 4.17817383,11.3038065 4.17817383,11.3038065 L5.38789453,17.8070323 L6.47064258,17.8070323 C7.71806836,17.6378065 8.7645293,17.2044516 9.25050586,16.9840645 Z" id="Path" fill="#694B4B"></path>
                <path d="M8.69794922,18.8766452 L6.97550391,18.0146452 C6.61482422,17.834129 6.38698242,17.4650968 6.38704687,17.0614839 L6.38717578,15.4630968 L3.19352344,15.4630968 L3.19352344,17.0615484 C3.19352344,17.4651613 2.96574609,17.8340645 2.60506641,18.0145806 L0.882621094,18.8766452 C0.341666016,19.1473548 0,19.7007742 0,20.306129 L0,23.4546452 C0,23.7488387 0.238283203,23.9874194 0.532253906,23.9874194 L9.04838086,23.9874194 C9.34235156,23.9874194 9.58063477,23.7488387 9.58063477,23.4546452 L9.58063477,20.3061935 C9.58063477,19.7007742 9.2389043,19.1473548 8.69794922,18.8766452 Z" id="Path" fill="#E6AF78"></path>
                <path d="M4.79034961,17.594129 C5.3634668,17.594129 5.91241406,17.475871 6.41566406,17.2653548 C6.40245117,17.1981935 6.38704687,17.1314194 6.38704687,17.0614194 L6.38717578,15.4630323 L3.19352344,15.4630323 L3.19352344,17.0614839 C3.19352344,17.131871 3.17811914,17.1989677 3.16477734,17.2663871 C3.66834961,17.4758065 4.21703906,17.594129 4.79034961,17.594129 Z" id="Path" fill="#D29B6E"></path>
                <path d="M8.69794922,18.8766452 L7.47089062,18.2625161 C6.90189844,19.142 5.91505664,19.7252903 4.79034961,19.7252903 C3.66564258,19.7252903 2.67873633,19.142 2.10974414,18.2624516 L0.882685547,18.8766452 C0.341730469,19.1473548 0,19.7007742 0,20.306129 L0,23.4546452 C0,23.7489032 0.238283203,23.9874194 0.532253906,23.9874194 L9.04838086,23.9874194 C9.34235156,23.9874194 9.58063477,23.7489032 9.58063477,23.4546452 L9.58063477,20.3061935 C9.58063477,19.7007742 9.2389043,19.1473548 8.69794922,18.8766452 Z" id="Path" fill="#D5DCED"></path>
                <path d="M4.79034961,16.5285806 L4.79034961,16.5285806 C3.16664648,16.5285806 1.82602148,15.3156774 1.62331641,13.7456774 C1.59392578,13.5181935 1.70317383,13.2951613 1.90774805,13.191871 C2.15279883,13.068129 2.50890234,12.8594839 2.84985937,12.5549677 C3.22955273,12.215871 3.45230273,11.8582581 3.57811523,11.5957419 C3.68646094,11.3696774 3.93550781,11.2418065 4.17823828,11.3038065 C6.05227734,11.7822581 7.32812695,12.7581935 7.7910293,13.1566452 C7.91529492,13.2636129 7.98690234,13.4213548 7.97414062,13.5849677 C7.84516992,15.2320645 6.46903125,16.5285806 4.79034961,16.5285806 Z" id="Path" fill="#F0C087"></path>
                <path d="M7.79096484,13.1565806 C7.32812695,12.758129 6.05221289,11.7821935 4.17817383,11.3037419 C3.93544336,11.2417419 3.68639648,11.3696129 3.57805078,11.5956774 C3.48278906,11.7945161 3.32533008,12.0478065 3.0916875,12.3063871 C3.09162305,12.3070323 3.09142969,12.3075484 3.09136523,12.3081935 C3.01885547,12.3904516 2.94164063,12.4729032 2.84985938,12.5549677 C2.50890234,12.8595484 2.15279883,13.068129 1.90774805,13.191871 C1.70317383,13.2951613 1.59399023,13.5182581 1.62331641,13.7457419 C1.80539648,15.1557419 2.90767383,16.2780645 4.30617773,16.492129 C3.66892969,16.0581935 3.19358789,15.4614194 3.19358789,14.3975484 L3.19358789,13.6378065 C3.31450195,13.5484516 3.43625391,13.4593548 3.55858594,13.3500645 C3.85442578,13.0858065 4.11268945,12.7801935 4.31977734,12.4511613 C5.7534082,12.8989677 6.72536133,13.6448387 7.09383984,13.962 C7.19470898,14.0505161 7.44504492,14.2814839 7.73791992,14.5565161 C7.86392578,14.2529677 7.94726367,13.9272903 7.97401172,13.5850323 C7.98683789,13.4213548 7.91523047,13.2636129 7.79096484,13.1565806 Z" id="Path" fill="#E6AF78"></path>
                <path d="M0.324457031,19.3457419 C0.119431641,19.618129 0,19.9522581 0,20.306129 L0,23.4546452 C0,23.7489032 0.238283203,23.9874194 0.532253906,23.9874194 L2.12901563,23.9874194 L2.12901563,21.3029032 C2.12901563,20.9792258 1.98199805,20.6730323 1.7294707,20.4708387 L0.324457031,19.3457419 Z" id="Path" fill="#C7CFE2"></path>
                <path d="M24.1469121,18.1495484 L19.6935234,16.5285161 L16.5,17.594129 L13.3064766,16.5285161 L8.85308789,18.1496129 C8.0117168,18.455871 7.45161914,19.2562581 7.45161914,20.1523871 L7.45161914,23.4547097 C7.45161914,23.7489032 7.68990234,23.9874839 7.98387305,23.9874839 L25.016127,23.9874839 C25.3100977,23.9874839 25.5483809,23.7489032 25.5483809,23.4547097 L25.5483809,20.1523871 C25.5483809,19.2561935 24.9883477,18.4558065 24.1469121,18.1495484 Z" id="Path" fill="#FF507D"></path>
                <polygon id="Path" fill="#707487" points="15.942416 18.6597419 15.4354922 23.9874194 17.5645078 23.9874194 17.057584 18.6597419"></polygon>
                <path d="M17.0588086,19.3916774 L15.9411914,19.3916774 C15.7353926,19.3916774 15.5685879,19.2247097 15.5685879,19.0187097 L15.5685879,17.594129 L17.4313477,17.594129 L17.4313477,19.0187097 C17.4314121,19.2246452 17.2646074,19.3916774 17.0588086,19.3916774 Z" id="Path" fill="#5B5D6E"></path>
                <path d="M24.975457,18.7003226 C25.3348477,19.0864516 25.5483809,19.6007097 25.5483809,20.1523226 L25.5483809,23.4546452 C25.5483809,23.7489032 25.3100977,23.9874194 25.016127,23.9874194 L22.3548574,23.9874194 L22.3548574,22.2062581 C22.3548574,21.6410323 22.5791543,21.0989677 22.9784414,20.6993548 L24.975457,18.7003226 Z" id="Path" fill="#D23C69"></path>
                <path d="M22.3548574,5.54122581 L22.3548574,1.078 C22.3548574,0.489483871 21.8782266,0.0124516129 21.2903496,0.0124516129 L14.9032383,0.0124516129 C12.5516016,0.0124516129 10.6451426,1.92070968 10.6451426,4.27470968 L10.6451426,5.54122581 C10.6451426,6.11387097 10.737375,6.68277419 10.9182949,7.226 L11.0954766,7.75806452 C11.1497461,7.92103226 11.1773965,8.09167742 11.1773965,8.26348387 L11.1773965,8.53690323 L21.8225391,8.53690323 L21.8225391,8.26348387 C21.8225391,8.09167742 21.8501895,7.92103226 21.904459,7.75806452 L22.0816406,7.226 C22.262625,6.68270968 22.3548574,6.11380645 22.3548574,5.54122581 Z" id="Path" fill="#5A4146"></path>
                <path d="M13.3064766,2.17683871 C13.3064766,3.37219355 14.2745625,4.34122581 15.46875,4.34122581 L15.7681348,4.34122581 L15.9126387,8.53683871 L21.8225391,8.53683871 L21.8225391,8.26341935 C21.8225391,8.0916129 21.8501895,7.92096774 21.904459,7.758 L22.0816406,7.22593548 C22.2625605,6.68270968 22.354793,6.11380645 22.354793,5.54116129 L22.354793,1.078 C22.354793,0.489483871 21.8781621,0.0124516129 21.2902852,0.0124516129 L15.46875,0.0124516129 C14.2745625,0.0124516129 13.3064766,0.981483871 13.3064766,2.17683871 Z" id="Path" fill="#694B4B"></path>
                <rect id="Rectangle" fill="#E6AF78" x="13.3063477" y="12.7993548" width="6.38730469" height="4.79483871"></rect>
                <path d="M13.3064766,14.6006452 C14.2467187,15.145871 15.3352676,15.4629677 16.5,15.4629677 C17.6647324,15.4629677 18.7533457,15.145871 19.6935234,14.6006452 L19.6935234,12.7990968 L13.3064121,12.7990968 L13.3064766,14.6006452 L13.3064766,14.6006452 Z" id="Path" fill="#D29B6E"></path>
                <g id="Group" transform="translate(12.181641, 15.612903)" fill="#D23C69">
                    <path d="M4.31835938,1.98122581 L2.62079297,3.68045161 C2.39262891,3.90883871 2.01551367,3.88309677 1.82047852,3.62580645 L0.060328125,1.30425806 L0.520716797,0.333096774 C0.656583984,0.046516129 1.01094727,-0.058516129 1.28074805,0.107935484 L4.31835938,1.98122581 Z" id="Path"></path>
                    <path d="M4.31835938,1.98122581 L6.01592578,3.68045161 C6.24408984,3.90883871 6.62120508,3.88309677 6.81624023,3.62580645 L8.57639063,1.30425806 L8.11600195,0.333096774 C7.98013477,0.046516129 7.62577148,-0.058516129 7.3559707,0.107935484 L4.31835938,1.98122581 Z" id="Path"></path>
                </g>
                <path d="M16.5,14.3974839 L16.5,14.3974839 C13.5604219,14.3974839 11.1773965,12.012129 11.1773965,9.06967742 L11.1773965,8.44548387 C11.1773965,8.16290323 11.2895449,7.89187097 11.4891562,7.692 L11.9300801,7.25064516 C12.1296914,7.05083871 12.2418398,6.77980645 12.2418398,6.49716129 L12.2418398,5.22 C12.2418398,4.97329032 12.4073555,4.75896774 12.6471855,4.70225806 C13.9060195,4.40464516 17.8232871,3.69967742 20.4891328,5.66225806 C20.6622539,5.78967742 20.7579668,5.99903226 20.7579668,6.21412903 L20.7579668,6.49716129 C20.7579668,6.77974194 20.8701152,7.05077419 21.0697266,7.25064516 L21.5106504,7.692 C21.7102617,7.89180645 21.8224102,8.16283871 21.8224102,8.44548387 L21.8224102,9.06967742 C21.8226035,12.012129 19.4395781,14.3974839 16.5,14.3974839 Z" id="Path" fill="#F0C087"></path>
                <path d="M20.4891973,5.66232258 C18.6142559,4.282 16.1237227,4.22225806 14.3709844,4.41122581 C13.6316426,4.49090323 13.0207559,4.61406452 12.6473145,4.70232258 C12.4074844,4.75903226 12.2419687,4.97335484 12.2419687,5.22006452 L12.2419687,6.49716129 C12.2419687,6.77980645 12.1298203,7.05083871 11.9301445,7.25070968 L11.4892207,7.69206452 C11.2895449,7.89193548 11.1773965,8.16296774 11.1773965,8.4456129 L11.1773965,9.06974194 C11.1773965,11.793871 13.2212051,14.0365161 15.8568223,14.3549032 C14.9384297,13.3975484 14.3709199,12.1001935 14.3709199,10.6680645 L14.3709199,6.77380645 C14.3709199,6.23387097 14.7720117,5.78264516 15.307166,5.71548387 C16.584498,5.55516129 18.9240176,5.45877419 20.7579669,6.49729032 L20.7579669,6.21419355 C20.7580957,5.99909677 20.6621895,5.78967742 20.4891973,5.66232258 Z" id="Path" fill="#E6AF78"></path>
                <path d="M8.02454297,18.7003226 C7.66515234,19.0864516 7.45161914,19.6007097 7.45161914,20.1523226 L7.45161914,23.4546452 C7.45161914,23.7489032 7.68990234,23.9874194 7.98387305,23.9874194 L10.6451426,23.9874194 L10.6451426,22.2062581 C10.6451426,21.6410323 10.4208457,21.0989677 10.0215586,20.6993548 L8.02454297,18.7003226 Z" id="Path" fill="#D23C69"></path>
            </g>
        </g>
    </g>
</svg>