<?xml version="1.0" encoding="UTF-8"?>
<svg width="29px" height="26px" viewBox="0 0 29 26" version="1.1" xmlns="http://www.w3.org/2000/svg" xmlns:xlink="http://www.w3.org/1999/xlink">
    <title>5DDA5060-42C8-4639-918C-E04D0F6469F7</title>
    <g id="Page-2" stroke="none" stroke-width="1" fill="none" fill-rule="evenodd">
        <g id="dashboard" transform="translate(-321.000000, -461.000000)" fill-rule="nonzero">
            <g id="wallet" transform="translate(321.000000, 461.000000)">
                <path d="M2.26171287,3.23555556 L24.8786119,3.23555556 C26.1225683,3.23555556 27.1403248,4.25955111 27.1403248,5.51113333 L27.1403248,8.24182667 C27.1403248,9.49340889 26.1225683,10.5174044 24.8786119,10.5174044 L2.26171287,10.5174044 C1.01775644,10.5172889 0,9.49329333 0,8.24176889 L0,5.51107556 C0,4.25955111 1.01775644,3.23555556 2.26171287,3.23555556 Z" id="Path" fill="#A86A3F"></path>
                <path d="M7.21479802,5.67036889 L21.373,1.89297333 C21.8479683,1.75644444 22.345505,2.05226667 22.481202,2.53014667 L24.8333604,11.2682844 C24.9690574,11.7461644 24.6750376,12.2467511 24.2000693,12.38328 L5.76732475,17.3212 C5.29235644,17.4577289 4.7948198,17.1619067 4.65912277,16.6840267 L2.94019802,10.2669956 L7.21479802,5.67036889 Z" id="Path" fill="#3DB39E"></path>
                <path d="M22.3681307,10.9951689 L19.3148614,11.8143422 C19.0660931,11.8826356 18.8172673,11.7460489 18.7720733,11.4957556 C18.704196,11.2454622 18.8399505,10.9951111 19.0887188,10.94964 L21.7122713,10.2442311 L20.3100495,4.96496 L17.686497,5.67036889 C17.4377287,5.73866222 17.188903,5.60207556 17.1437089,5.35178222 C17.0758317,5.10148889 17.2115861,4.85113778 17.4603545,4.80566667 L20.5136238,3.98649333 C20.7623921,3.9182 21.0112178,4.05478667 21.0564119,4.30508 L22.6848337,10.4490533 C22.752596,10.6993467 22.616899,10.94964 22.3681307,10.9951689 Z M9.70265347,14.4312711 L6.64938416,15.2504444 C6.40061584,15.3187378 6.1517901,15.1821511 6.10659604,14.9318578 L4.47817426,8.78788444 C4.41029703,8.53759111 4.54605149,8.28724 4.7948198,8.24176889 L7.84808911,7.42259556 C8.09685743,7.35430222 8.34568317,7.49088889 8.39087723,7.74118222 C8.45875446,7.99147556 8.323,8.24182667 8.07423168,8.28729778 L5.45067921,8.99270667 L6.85290099,14.2719778 L9.47645347,13.5665689 C9.72522178,13.4982756 9.97404752,13.6348622 10.0192416,13.8851556 C10.0871188,14.1126844 9.95142178,14.3629778 9.70265347,14.4312711 Z" id="Shape" fill="#78CABB"></path>
                <path d="M0.180948515,8.85617778 C4.20672277,6.53507111 15.0628871,0.140746667 15.0628871,0.140746667 C15.492604,-0.109546667 16.0580178,0.0269822222 16.3068436,0.459333333 L20.8302119,8.28724 C21.0789802,8.71959111 20.9206574,9.26570667 20.4909406,9.51605778 L3.93532871,19.0733689 C3.50561188,19.3236622 2.94019802,19.1871333 2.69137228,18.7547822 C2.69137228,18.7547822 1.42484752,16.1606756 0.158265347,13.9760978 C0.158265347,8.85617778 0.180948515,10.5400533 0.180948515,8.85617778 Z" id="Path" fill="#5ABEAC"></path>
                <path d="M18.5232475,8.03694667 L15.3569069,2.53008889 C15.2212099,2.30256 14.9498158,2.23426667 14.7462416,2.37079556 L12.0096178,3.96367111 C11.7834752,4.1002 11.715598,4.37325778 11.851295,4.57808 C11.9869921,4.80560889 12.2583861,4.87390222 12.4619604,4.73737333 L14.8141188,3.37202667 L17.5281743,8.10518222 L15.1760158,9.47052889 C14.9498733,9.60705778 14.881996,9.88011556 15.0176931,10.0849378 C15.1533901,10.3124667 15.4247842,10.38076 15.6283584,10.2442311 L18.3649822,8.65135556 C18.568499,8.53759111 18.6589446,8.26453333 18.5232475,8.03694667 Z M6.53631287,14.4768 L4.18415446,15.8421467 L1.47009901,11.1089333 L3.82225743,9.74358667 C4.0484,9.60705778 4.11627723,9.334 3.9805802,9.12917778 C3.84488317,8.90164889 3.57348911,8.83335556 3.36991485,8.96988444 L0.633291089,10.56276 C0.407148515,10.6992889 0.339271287,10.9723467 0.474968317,11.1771689 L3.64130891,16.6840267 C3.77700594,16.9115556 4.0484,16.9798489 4.25197426,16.84332 L6.98859802,15.2504444 C7.21474059,15.1139156 7.28261782,14.8408578 7.14692079,14.6360356 C7.0338495,14.4312711 6.76245545,14.3402133 6.53631287,14.4768 Z M7.68976634,6.44407111 C5.94827327,7.44530222 5.36023366,9.67535111 6.35536436,11.42752 C7.37312079,13.1796889 9.56695644,13.7713333 11.3084495,12.7701022 C13.0499426,11.7688711 13.6379822,9.53882222 12.6428515,7.78665333 C11.625095,6.05719111 9.43125941,5.44284 7.68976634,6.44407111 Z M18.5232475,8.03694667 L15.3569069,2.53008889 C15.2212099,2.30256 14.9498158,2.23426667 14.7462416,2.37079556 L12.0096178,3.96367111 C11.7834752,4.1002 11.715598,4.37325778 11.851295,4.57808 C11.9869921,4.80560889 12.2583861,4.87390222 12.4619604,4.73737333 L14.8141188,3.37202667 L17.5281743,8.10518222 L15.1760158,9.47052889 C14.9498733,9.60705778 14.881996,9.88011556 15.0176931,10.0849378 C15.1533901,10.3124667 15.4247842,10.38076 15.6283584,10.2442311 L18.3649822,8.65135556 C18.568499,8.53759111 18.6589446,8.26453333 18.5232475,8.03694667 Z M6.53631287,14.4768 L4.18415446,15.8421467 L1.47009901,11.1089333 L3.82225743,9.74358667 C4.0484,9.60705778 4.11627723,9.334 3.9805802,9.12917778 C3.84488317,8.90164889 3.57348911,8.83335556 3.36991485,8.96988444 L0.633291089,10.56276 C0.407148515,10.6992889 0.339271287,10.9723467 0.474968317,11.1771689 L3.64130891,16.6840267 C3.77700594,16.9115556 4.0484,16.9798489 4.25197426,16.84332 L6.98859802,15.2504444 C7.21474059,15.1139156 7.28261782,14.8408578 7.14692079,14.6360356 C7.0338495,14.4312711 6.76245545,14.3402133 6.53631287,14.4768 Z M7.68976634,6.44407111 C5.94827327,7.44530222 5.36023366,9.67535111 6.35536436,11.42752 C7.37312079,13.1796889 9.56695644,13.7713333 11.3084495,12.7701022 C13.0499426,11.7688711 13.6379822,9.53882222 12.6428515,7.78665333 C11.625095,6.05719111 9.43125941,5.44284 7.68976634,6.44407111 Z" id="Shape" fill="#8CD2C5"></path>
                <path d="M25.783297,25.9911022 L2.26171287,25.9911022 C1.01775644,25.9911022 0,24.9671067 0,23.7155244 L0,7.33153778 L25.783297,7.33153778 C27.0272535,7.33153778 28.0450099,8.35553333 28.0450099,9.60711556 L28.0450099,23.7155822 C28.0450099,24.9671067 27.027196,25.9911022 25.783297,25.9911022 Z M1.8093703,7.33153778 L0,7.33153778 L0,5.51107556 C0,6.51230667 0.814182178,7.33153778 1.8093703,7.33153778 Z" id="Shape" fill="#C47E4D"></path>
                <path d="M28.0449525,20.3021867 L24.4262693,20.3021867 C22.6847762,20.3021867 21.2599287,18.8686044 21.2599287,17.1164356 C21.2599287,15.3642667 22.6847762,13.9306844 24.4262693,13.9306844 L28.0449525,13.9306844 C28.5425465,13.9306844 28.9496376,14.3402711 28.9496376,14.8409156 L28.9496376,19.3920133 C28.9496376,19.8926 28.5425465,20.3021867 28.0449525,20.3021867 Z" id="Path" fill="#A86A3F"></path>
                <path d="M24.4262693,15.2959733 C25.4214,15.2959733 26.2356396,16.1151467 26.2356396,17.1164356 C26.2356396,18.1177244 25.4214574,18.9368978 24.4262693,18.9368978 C23.4311386,18.9368978 22.616899,18.1177244 22.616899,17.1164356 C22.616899,16.1151467 23.4311386,15.2959733 24.4262693,15.2959733 Z" id="Path" fill="#EFC75E"></path>
                <path d="M24.8786119,18.4817244 C23.8834812,18.4817244 23.0692416,17.6625511 23.0692416,16.6612622 C23.0692416,16.27444 23.1823129,15.9103244 23.3858871,15.6145022 C22.9109188,15.9330889 22.616899,16.4792044 22.616899,17.1163778 C22.616899,18.1176089 23.4310812,18.93684 24.4262693,18.93684 C25.0369347,18.93684 25.5797228,18.6182533 25.9189941,18.1631378 C25.6249743,18.36796 25.2630772,18.4817244 24.8786119,18.4817244 Z" id="Path" fill="#D7B354"></path>
                <path d="M25.783297,25.0808711 L2.26171287,25.0808711 C1.01775644,25.0808711 0,24.0568756 0,22.8052933 L0,23.7155244 C0,24.9671067 1.01775644,25.9911022 2.26171287,25.9911022 L25.783297,25.9911022 C27.0272535,25.9911022 28.0450099,24.9671067 28.0450099,23.7155244 L28.0450099,22.8052933 C28.0450099,24.0568756 27.027196,25.0808711 25.783297,25.0808711 Z" id="Path" fill="#B27245"></path>
                <path d="M25.783297,7.33153778 L1.8093703,7.33153778 C0.814182178,7.33153778 0,6.51230667 0,5.51107556 L0,6.42130667 C0,7.42253778 0.814182178,8.24176889 1.8093703,8.24176889 L25.783297,8.24176889 C27.0272535,8.24176889 28.0450099,9.26576444 28.0450099,10.5173467 L28.0450099,9.60711556 C28.0450099,8.35553333 27.027196,7.33153778 25.783297,7.33153778 Z" id="Path" fill="#CA8B5F"></path>
            </g>
        </g>
    </g>
</svg>