<?xml version="1.0" encoding="UTF-8"?>
<svg width="24px" height="24px" viewBox="0 0 24 24" version="1.1" xmlns="http://www.w3.org/2000/svg" xmlns:xlink="http://www.w3.org/1999/xlink">
    <title>1630C443-3572-4B9D-9B7F-D274BA829CD1</title>
    <g id="Page-2" stroke="none" stroke-width="1" fill="none" fill-rule="evenodd" opacity="0.7">
        <g id="dashboard" transform="translate(-291.000000, -175.000000)">
            <g id="Outlined-/-Action-/-work_outline" transform="translate(291.000000, 175.000000)">
                <polygon id="Path" points="0 0 24 0 24 24 0 24"></polygon>
                <path d="M14,6 L14,4 L10,4 L10,6 L14,6 Z M4,8 L4,19 L20,19 L20,8 L4,8 Z M20,6 C21.11,6 22,6.89 22,8 L22,19 C22,20.11 21.11,21 20,21 L4,21 C2.89,21 2,20.11 2,19 L2.01,8 C2.01,6.89 2.89,6 4,6 L8,6 L8,4 C8,2.89 8.89,2 10,2 L14,2 C15.11,2 16,2.89 16,4 L16,6 L20,6 Z" id="🔹-Icon-Color" fill="#101F53"></path>
            </g>
        </g>
    </g>
</svg>